<svg width="403" height="341" viewBox="0 0 403 341" fill="none" xmlns="http://www.w3.org/2000/svg">
<g clip-path="url(#clip0_722_39)">
<path d="M323.72 89.3966L316.855 62.3768L307.199 24.3868L306.651 22.2423V22.2371L302.834 7.21494C302.206 4.75562 300.629 2.64607 298.448 1.34909C296.268 0.0521126 293.663 -0.326383 291.204 0.296649L265.837 6.75127L107.341 47.0965C104.883 47.7252 102.775 49.3037 101.479 51.4857C100.183 53.6678 99.8052 56.2752 100.428 58.7359L105.898 80.2654L119.798 134.953L125.026 155.529L125.294 156.583H126.453L126.184 155.529L121.188 135.854V135.849L106.688 78.8058L101.518 58.462C100.968 56.2898 101.302 53.9882 102.446 52.0621C103.59 50.136 105.451 48.7425 107.62 48.1873L265.784 7.9263L291.478 1.38738C293.648 0.837674 295.948 1.17188 297.872 2.31669C299.797 3.4615 301.19 5.32346 301.744 7.49423L305.798 23.4384L306.346 25.604L315.728 62.5244L322.557 89.3967L322.841 90.5243H324.01L323.72 89.3966Z" fill="#CCCCCC"/>
<path d="M153.147 126.925C168.139 126.925 180.292 114.762 180.292 99.7588C180.292 84.7554 168.139 72.5928 153.147 72.5928C138.156 72.5928 126.002 84.7554 126.002 99.7588C126.002 114.762 138.156 126.925 153.147 126.925Z" fill="#FF4D00"/>
<path d="M214.725 89.3968L216.025 90.5244H195.355C193.116 90.5269 190.969 91.4181 189.386 93.0025C187.803 94.587 186.913 96.7353 186.91 98.976V163.448L186.61 178.713L173.4 166.889L172.163 167.205L162.37 158.559C160.929 157.284 159.071 156.581 157.147 156.583H131.381L131.775 155.529L136.925 141.761L166.119 63.6469L169.12 55.6221C169.304 55.1288 169.605 54.6875 169.997 54.3359C170.389 53.9843 170.86 53.7328 171.37 53.6028C171.88 53.4729 172.414 53.4684 172.926 53.5897C173.438 53.7111 173.913 53.9546 174.311 54.2996L193.955 71.3556L205.517 81.3984L214.725 89.3968Z" fill="#474557"/>
<path d="M300.67 89.3968L301.976 90.5244H238.723L239.149 89.3968L252.622 53.8043C252.807 53.3127 253.108 52.873 253.499 52.5226C253.89 52.1723 254.36 51.9215 254.868 51.7917C255.377 51.6619 255.909 51.6568 256.42 51.7769C256.931 51.8971 257.405 52.1388 257.803 52.4817L284.586 75.5497L286.128 76.8723L300.67 89.3968Z" fill="#FF4D00"/>
<path d="M325.19 100.456C322.723 100.454 320.289 101.025 318.08 102.125C315.871 103.224 313.947 104.822 312.459 106.791C310.862 106.104 309.12 105.824 307.389 105.976C305.657 106.129 303.991 106.709 302.539 107.666C301.087 108.622 299.895 109.924 299.07 111.456C298.245 112.987 297.813 114.699 297.813 116.438H341.16C341.16 114.34 340.747 112.261 339.944 110.322C339.142 108.383 337.965 106.621 336.482 105.137C334.999 103.653 333.239 102.476 331.301 101.673C329.364 100.869 327.287 100.456 325.19 100.456Z" fill="#E6E6E6"/>
<path d="M385.067 89.3965H195.355C193.22 89.4002 191.148 90.1163 189.466 91.4314C187.784 92.7465 186.588 94.5855 186.068 96.6573V96.6625C185.879 97.4191 185.784 98.1959 185.783 98.9756V179.224L186.399 179.766L186.91 180.219V98.9756C186.912 96.7349 187.803 94.5866 189.386 93.0022C190.969 91.4177 193.116 90.5265 195.355 90.524H385.067C387.307 90.5256 389.454 91.4165 391.037 93.0012C392.621 94.5858 393.511 96.7346 393.513 98.9756V196.627H394.05C394.246 196.625 394.443 196.634 394.639 196.654V98.9756C394.636 96.4362 393.626 94.0018 391.832 92.2062C390.037 90.4106 387.605 89.4002 385.067 89.3965Z" fill="#3F3D56"/>
<path d="M230.228 163.015C244.432 163.015 255.946 151.492 255.946 137.278C255.946 123.063 244.432 111.54 230.228 111.54C216.025 111.54 204.511 123.063 204.511 137.278C204.511 151.492 216.025 163.015 230.228 163.015Z" fill="#06BDE1"/>
<path d="M385.278 196.627H208.886C206.706 196.621 204.602 195.826 202.963 194.388L199.004 190.895L199.609 190.02L200.704 188.439L248.247 119.936L253.127 112.902C253.428 112.469 253.828 112.115 254.295 111.871C254.762 111.627 255.281 111.499 255.807 111.499C256.334 111.499 256.853 111.627 257.32 111.871C257.786 112.115 258.187 112.469 258.487 112.902L273.324 134.279V134.284L282.053 146.861L302.892 176.884L334.498 131.734C334.798 131.303 335.198 130.951 335.664 130.708C336.13 130.465 336.647 130.339 337.172 130.339C337.697 130.339 338.214 130.465 338.68 130.708C339.146 130.951 339.546 131.303 339.847 131.734L360.122 160.692L361.286 162.357L384.541 195.574L385.278 196.627Z" fill="#3F3D56"/>
<path d="M291.057 127.143C288.014 127.14 285.011 127.845 282.285 129.201C279.56 130.558 277.186 132.529 275.351 134.959C273.381 134.11 271.231 133.765 269.095 133.953C266.959 134.142 264.903 134.858 263.111 136.038C261.32 137.218 259.849 138.824 258.832 140.713C257.814 142.603 257.281 144.715 257.281 146.861H310.761C310.761 144.272 310.251 141.708 309.261 139.315C308.271 136.923 306.819 134.749 304.99 132.918C303.16 131.087 300.988 129.635 298.598 128.644C296.207 127.653 293.645 127.143 291.057 127.143Z" fill="#CCCCCC"/>
<path d="M198.967 189.451L192.417 183.676L192.401 183.666L192.38 183.65L192.365 183.634C192.159 183.487 191.954 183.334 191.754 183.176C191.701 183.139 191.654 183.102 191.606 183.065C191.58 183.044 191.559 183.028 191.533 183.007C191.522 183.002 191.517 182.991 191.506 182.986C191.359 182.87 191.206 182.749 191.059 182.628C190.985 182.575 190.917 182.517 190.843 182.459C190.643 182.296 190.443 182.127 190.243 181.958C190.032 181.779 189.822 181.6 189.611 181.416C189.606 181.41 189.595 181.405 189.59 181.4C189.548 181.363 189.511 181.326 189.469 181.295C189.269 181.115 189.069 180.936 188.869 180.747C188.7 180.594 188.532 180.436 188.368 180.283C188.216 180.141 188.063 179.998 187.916 179.846L187.884 179.814C187.773 179.709 187.663 179.598 187.547 179.482C187.436 179.377 187.331 179.266 187.226 179.155C187.115 179.05 187.01 178.939 186.91 178.829L186.826 178.744L186.799 178.718L185.783 177.817V179.224L186.399 179.767L186.91 180.22L197.73 189.767L198.746 190.668L199.004 190.895L199.246 190.542L199.609 190.02L198.967 189.451ZM356.21 195.574C356.226 195.922 356.252 196.275 356.279 196.628H393.512V195.574H356.21ZM198.967 189.451L192.417 183.676L192.401 183.666L192.38 183.65L192.365 183.634C192.159 183.487 191.954 183.334 191.754 183.176C191.701 183.139 191.654 183.102 191.606 183.065C191.58 183.044 191.559 183.028 191.533 183.007C191.522 183.002 191.517 182.991 191.506 182.986C191.359 182.87 191.206 182.749 191.059 182.628C190.985 182.575 190.917 182.517 190.843 182.459C190.643 182.296 190.443 182.127 190.243 181.958C190.032 181.779 189.822 181.6 189.611 181.416C189.606 181.41 189.595 181.405 189.59 181.4C189.548 181.363 189.511 181.326 189.469 181.295C189.269 181.115 189.069 180.936 188.869 180.747C188.7 180.594 188.532 180.436 188.368 180.283C188.216 180.141 188.063 179.998 187.916 179.846L187.884 179.814C187.773 179.709 187.663 179.598 187.547 179.482C187.436 179.377 187.331 179.266 187.226 179.155C187.115 179.05 187.01 178.939 186.91 178.829L186.826 178.744L186.799 178.718L185.783 177.817V179.224L186.399 179.767L186.91 180.22L197.73 189.767L198.746 190.668L199.004 190.895L199.246 190.542L199.609 190.02L198.967 189.451ZM384.541 195.574H356.21C356.226 195.922 356.252 196.275 356.279 196.628H385.278L384.541 195.574ZM198.967 189.451L192.417 183.676L192.401 183.666L192.38 183.65L192.365 183.634C192.159 183.487 191.954 183.334 191.754 183.176C191.701 183.139 191.654 183.102 191.606 183.065C191.58 183.044 191.559 183.028 191.533 183.007C191.522 183.002 191.517 182.991 191.506 182.986C191.359 182.87 191.206 182.749 191.059 182.628C190.985 182.575 190.917 182.517 190.843 182.459C190.643 182.296 190.443 182.127 190.243 181.958C190.032 181.779 189.822 181.6 189.611 181.416C189.606 181.41 189.595 181.405 189.59 181.4C189.548 181.363 189.511 181.326 189.469 181.295C189.269 181.115 189.069 180.936 188.869 180.747C188.7 180.594 188.532 180.436 188.368 180.283C188.216 180.141 188.063 179.998 187.916 179.846L187.884 179.814C187.773 179.709 187.663 179.598 187.547 179.482C187.436 179.377 187.331 179.266 187.226 179.155C187.115 179.05 187.01 178.939 186.91 178.829L186.826 178.744L186.799 178.718L185.783 177.817V179.224L186.399 179.767L186.91 180.22L197.73 189.767L198.746 190.668L199.004 190.895L199.246 190.542L199.609 190.02L198.967 189.451ZM173.4 166.889L163.065 157.768C161.431 156.324 159.327 155.528 157.147 155.529H126.184L126.453 156.583H157.147C159.071 156.581 160.928 157.284 162.37 158.559L172.163 167.205L185.783 179.224V177.817L173.4 166.889ZM394.639 195.595C394.444 195.579 394.25 195.574 394.05 195.574H208.886C207.106 195.576 205.378 194.974 203.984 193.867C203.874 193.782 203.768 193.693 203.663 193.598L199.988 190.352L199.609 190.02L198.967 189.451L192.417 183.676L192.401 183.666L192.38 183.65L192.365 183.634L187.989 179.767L186.91 178.813L186.826 178.744L186.799 178.718L185.783 177.817L173.4 166.889L163.065 157.768C161.431 156.325 159.327 155.528 157.147 155.529H111.847C109.475 155.532 107.2 156.477 105.522 158.156C103.844 159.835 102.9 162.112 102.897 164.486V332.043C102.9 334.417 103.844 336.694 105.522 338.373C107.2 340.052 109.475 340.997 111.847 341H394.05C396.422 340.997 398.697 340.052 400.375 338.373C402.053 336.694 402.997 334.417 403 332.043V204.531C402.996 202.259 402.131 200.073 400.579 198.414C399.027 196.756 396.905 195.748 394.639 195.595L394.639 195.595ZM401.947 332.043C401.944 334.138 401.112 336.147 399.631 337.629C398.151 339.11 396.143 339.944 394.05 339.946H111.847C109.754 339.944 107.746 339.11 106.266 337.629C104.785 336.147 103.952 334.138 103.95 332.043V164.486C103.952 162.391 104.785 160.382 106.266 158.9C107.746 157.419 109.754 156.585 111.847 156.583H157.147C159.071 156.581 160.928 157.284 162.37 158.559L172.163 167.205L185.783 179.224L186.399 179.767L186.91 180.22L197.73 189.767L198.746 190.668L199.004 190.895L202.963 194.388C204.602 195.826 206.706 196.621 208.886 196.628H394.049C394.246 196.626 394.443 196.635 394.639 196.654C396.625 196.804 398.481 197.699 399.836 199.159C401.19 200.62 401.944 202.538 401.947 204.531L401.947 332.043ZM198.967 189.451L192.417 183.676L192.401 183.666L192.38 183.65L192.365 183.634C192.159 183.487 191.954 183.334 191.754 183.176C191.701 183.139 191.654 183.102 191.606 183.065C191.58 183.044 191.559 183.028 191.533 183.007C191.522 183.002 191.517 182.991 191.506 182.986C191.359 182.87 191.206 182.749 191.059 182.628C190.985 182.575 190.917 182.517 190.843 182.459C190.643 182.296 190.443 182.127 190.243 181.958C190.032 181.779 189.822 181.6 189.611 181.416C189.606 181.41 189.595 181.405 189.59 181.4C189.548 181.363 189.511 181.326 189.469 181.295C189.269 181.115 189.069 180.936 188.869 180.747C188.7 180.594 188.532 180.436 188.368 180.283C188.216 180.141 188.063 179.998 187.916 179.846L187.884 179.814C187.773 179.709 187.663 179.598 187.547 179.482C187.436 179.377 187.331 179.266 187.226 179.155C187.115 179.05 187.01 178.939 186.91 178.829L186.826 178.744L186.799 178.718L185.783 177.817V179.224L186.399 179.767L186.91 180.22L197.73 189.767L198.746 190.668L199.004 190.895L199.246 190.542L199.609 190.02L198.967 189.451ZM356.21 195.574C356.226 195.922 356.252 196.275 356.279 196.628H393.512V195.574H356.21ZM198.967 189.451L192.417 183.676L192.401 183.666L192.38 183.65L192.365 183.634C192.159 183.487 191.954 183.334 191.754 183.176C191.701 183.139 191.654 183.102 191.606 183.065C191.58 183.044 191.559 183.028 191.533 183.007C191.522 183.002 191.517 182.991 191.506 182.986C191.359 182.87 191.206 182.749 191.059 182.628C190.985 182.575 190.917 182.517 190.843 182.459C190.643 182.296 190.443 182.127 190.243 181.958C190.032 181.779 189.822 181.6 189.611 181.416C189.606 181.41 189.595 181.405 189.59 181.4C189.548 181.363 189.511 181.326 189.469 181.295C189.269 181.115 189.069 180.936 188.869 180.747C188.7 180.594 188.532 180.436 188.368 180.283C188.216 180.141 188.063 179.998 187.916 179.846L187.884 179.814C187.773 179.709 187.663 179.598 187.547 179.482C187.436 179.377 187.331 179.266 187.226 179.155C187.115 179.05 187.01 178.939 186.91 178.829L186.826 178.744L186.799 178.718L185.783 177.817V179.224L186.399 179.767L186.91 180.22L197.73 189.767L198.746 190.668L199.004 190.895L199.246 190.542L199.609 190.02L198.967 189.451ZM198.967 189.451L192.417 183.676L192.401 183.666L192.38 183.65L192.365 183.634C192.159 183.487 191.954 183.334 191.754 183.176C191.701 183.139 191.654 183.102 191.606 183.065C191.58 183.044 191.559 183.028 191.533 183.007C191.522 183.002 191.517 182.991 191.506 182.986C191.359 182.87 191.206 182.749 191.059 182.628C190.985 182.575 190.917 182.517 190.843 182.459C190.643 182.296 190.443 182.127 190.243 181.958C190.032 181.779 189.822 181.6 189.611 181.416C189.606 181.41 189.595 181.405 189.59 181.4C189.548 181.363 189.511 181.326 189.469 181.295C189.269 181.115 189.069 180.936 188.869 180.747C188.7 180.594 188.532 180.436 188.368 180.283C188.216 180.141 188.063 179.998 187.916 179.846L187.884 179.814C187.773 179.709 187.663 179.598 187.547 179.482C187.436 179.377 187.331 179.266 187.226 179.155C187.115 179.05 187.01 178.939 186.91 178.829L186.826 178.744L186.799 178.718L185.783 177.817V179.224L186.399 179.767L186.91 180.22L197.73 189.767L198.746 190.668L199.004 190.895L199.246 190.542L199.609 190.02L198.967 189.451ZM384.541 195.574H356.21C356.226 195.922 356.252 196.275 356.279 196.628H385.278L384.541 195.574Z" fill="#3F3D56"/>
<path d="M27.8713 164.802V152.367C27.8713 147.406 29.8405 142.649 33.3457 139.141C36.8509 135.633 41.6049 133.662 46.562 133.662C51.519 133.662 56.2731 135.633 59.7782 139.141C63.2834 142.649 65.2526 147.406 65.2526 152.367V164.802C65.2523 165.068 65.1468 165.322 64.9592 165.51C64.7716 165.698 64.5173 165.803 64.252 165.803H63.1286C62.9351 165.803 62.7457 165.747 62.5835 165.641C62.4212 165.536 62.293 165.386 62.2143 165.209L61.948 164.609C61.9038 164.51 61.8269 164.429 61.7301 164.379C61.6333 164.33 61.5225 164.315 61.4162 164.338C61.31 164.361 61.2147 164.419 61.1463 164.504C61.078 164.588 61.0406 164.693 61.0406 164.802C61.0403 165.068 60.9348 165.322 60.7472 165.51C60.5597 165.698 60.3053 165.803 60.0401 165.803H28.8719C28.6066 165.803 28.3523 165.698 28.1647 165.51C27.9772 165.322 27.8716 165.068 27.8713 164.802Z" fill="#2F2E41"/>
<path d="M67.1219 333.788H73.5767L76.6473 308.872L67.1208 308.873L67.1219 333.788Z" fill="#FFB8B8"/>
<path d="M86.0254 339.787L65.7391 339.788L65.7387 331.944L78.1872 331.943C80.2659 331.943 82.2595 332.769 83.7295 334.24C85.1994 335.711 86.0253 337.706 86.0254 339.787Z" fill="#2F2E41"/>
<path d="M19.2108 333.788H25.6656L28.7361 308.872L19.2097 308.873L19.2108 333.788Z" fill="#FFB8B8"/>
<path d="M38.114 339.787L17.8277 339.788L17.8273 331.944L30.2758 331.943C32.3545 331.943 34.3481 332.769 35.8181 334.24C37.2881 335.711 38.1139 337.706 38.114 339.787Z" fill="#2F2E41"/>
<path d="M56.6197 311.449L44.139 260.681C44.0334 260.252 43.7775 259.876 43.4178 259.619C43.0581 259.363 42.6184 259.245 42.1789 259.286C41.7393 259.327 41.3291 259.524 41.0228 259.843C40.7164 260.161 40.5344 260.578 40.5098 261.019L37.7315 310.67C37.7138 310.986 37.6332 311.295 37.4944 311.578C37.3556 311.862 37.1616 312.116 36.9236 312.323C36.6856 312.531 36.4085 312.689 36.1085 312.788C35.8086 312.887 35.4919 312.925 35.1771 312.9L12.9865 311.124C12.3821 311.076 11.8192 310.798 11.4137 310.347C11.0082 309.896 10.791 309.306 10.807 308.7C11.0991 297.776 16.6863 221.564 32.6222 204.904C32.9028 204.617 33.2518 204.407 33.6364 204.292C34.0209 204.178 34.4282 204.163 34.8199 204.25L56.1011 210.047C56.5403 210.143 56.943 210.363 57.2625 210.68C57.582 210.996 57.8051 211.397 57.9059 211.836L81.3533 306.421C81.423 306.73 81.4301 307.05 81.374 307.363C81.318 307.675 81.1999 307.972 81.0268 308.238C80.8538 308.504 80.6292 308.732 80.3664 308.909C80.1036 309.086 79.808 309.209 79.497 309.27L59.3755 313.209C58.7781 313.327 58.1582 313.21 57.6449 312.882C57.1316 312.554 56.7644 312.041 56.6198 311.449H56.6197Z" fill="#2F2E41"/>
<path d="M49.1156 165.528C56.2574 165.528 62.0469 159.734 62.0469 152.587C62.0469 145.44 56.2574 139.646 49.1156 139.646C41.9739 139.646 36.1843 145.44 36.1843 152.587C36.1843 159.734 41.9739 165.528 49.1156 165.528Z" fill="#FFB8B8"/>
<path d="M55.8335 211.455L33.5072 206.439C33.0216 206.33 32.5826 206.071 32.2525 205.698C31.9225 205.326 31.7182 204.858 31.6688 204.363L30.1159 188.964C29.6962 184.853 30.7987 180.731 33.2143 177.38C35.6299 174.029 39.1905 171.682 43.2206 170.784C43.3998 170.745 43.5788 170.706 43.7575 170.669H43.7577C46.5321 170.087 49.4094 170.226 52.1145 171.075C54.8195 171.924 57.2616 173.453 59.2072 175.516C61.205 177.596 62.636 180.155 63.3635 182.947C64.0909 185.738 64.0904 188.67 63.3621 191.462L58.6465 209.734C58.5176 210.243 58.2229 210.694 57.8091 211.016C57.3952 211.338 56.8858 211.513 56.3614 211.513C56.1838 211.513 56.0068 211.494 55.8335 211.455Z" fill="#06BDE1"/>
<path d="M0.479348 234.804C0.1718 234.176 0.00555221 233.488 -0.00768681 232.789C-0.0209258 232.09 0.119167 231.397 0.402723 230.758C0.686279 230.118 1.1064 229.549 1.6335 229.09C2.1606 228.631 2.78185 228.294 3.4535 228.101L19.6133 195.05L27.9496 201.263L9.5043 231.698C9.75305 232.849 9.5714 234.051 8.99376 235.077C8.41612 236.102 7.48263 236.88 6.37019 237.263C5.25774 237.646 4.04362 237.607 2.9579 237.154C1.87217 236.701 0.990276 235.864 0.479324 234.804H0.479348Z" fill="#FFB8B8"/>
<path d="M110.408 217.016C110.408 216.316 110.255 215.626 109.959 214.992C109.664 214.358 109.233 213.797 108.697 213.349C108.161 212.9 107.534 212.574 106.859 212.394C106.183 212.214 105.477 212.184 104.789 212.307L75.7413 189.751L70.989 199.002L100.939 218.203C101.222 219.346 101.913 220.345 102.883 221.012C103.853 221.678 105.033 221.965 106.201 221.819C107.368 221.672 108.441 221.103 109.216 220.217C109.992 219.332 110.416 218.193 110.408 217.016H110.408Z" fill="#FFB8B8"/>
<path d="M27.2326 203.906C26.9039 203.906 26.5806 203.823 26.2926 203.664L17.5417 198.851C17.1021 198.609 16.7719 198.208 16.619 197.73C16.4661 197.252 16.502 196.733 16.7195 196.281L25.5342 177.949C26.3345 176.228 27.7368 174.86 29.4763 174.104C30.7269 173.574 32.097 173.392 33.4423 173.577C34.7876 173.762 36.0582 174.306 37.1202 175.153C37.9439 175.798 38.6172 176.615 39.0932 177.548C39.6752 178.655 39.9722 179.89 39.9573 181.141C39.9423 182.392 39.6159 183.619 39.0076 184.712L28.9518 202.895C28.7816 203.202 28.5323 203.457 28.23 203.635C27.9277 203.813 27.5833 203.907 27.2326 203.906Z" fill="#06BDE1"/>
<path d="M71.28 200.677L54.2528 188.781C53.2258 188.068 52.3927 187.109 51.829 185.993C51.2653 184.876 50.9887 183.636 51.0243 182.386C51.0416 181.339 51.2866 180.309 51.7424 179.366C52.3235 178.138 53.2248 177.089 54.3515 176.331C55.4782 175.572 56.7885 175.132 58.1443 175.056C60.039 174.97 61.8999 175.58 63.3755 176.773L79.3538 189.349C79.748 189.659 80.0084 190.109 80.0814 190.606C80.1543 191.102 80.0343 191.608 79.746 192.019L74.0061 200.196C73.7074 200.621 73.253 200.91 72.7422 201C72.2313 201.09 71.7056 200.974 71.28 200.677Z" fill="#06BDE1"/>
<path d="M34.1892 148.152C34.1892 144.588 35.6037 141.171 38.1215 138.651C40.6393 136.131 44.0542 134.716 47.6149 134.716C51.1756 134.716 54.5904 136.131 57.1082 138.651C59.626 141.171 61.0405 144.588 61.0405 148.152V148.942H57.5646C57.423 148.942 57.2836 148.908 57.1577 148.844C57.0318 148.779 56.9232 148.685 56.8408 148.57L56.2095 147.686C56.1626 147.62 56.0951 147.572 56.0177 147.549C55.9403 147.525 55.8574 147.529 55.7822 147.558C55.7069 147.587 55.6436 147.641 55.6022 147.711C55.5608 147.78 55.5438 147.861 55.5538 147.942C55.5695 148.067 55.5584 148.194 55.5212 148.315C55.484 148.435 55.4216 148.547 55.3382 148.641C55.2547 148.736 55.152 148.812 55.037 148.864C54.922 148.916 54.7973 148.942 54.6712 148.942H34.1892V148.152Z" fill="#2F2E41"/>
</g>
<defs>
<clipPath id="clip0_722_39">
<rect width="403" height="341" fill="white"/>
</clipPath>
</defs>
</svg>
