<svg width="454" height="401" viewBox="0 0 454 401" fill="none" xmlns="http://www.w3.org/2000/svg">
<g clip-path="url(#clip0)">
<path d="M105.624 111.568C105.121 111.588 83.7133 110.104 83.1667 110.085L85.0898 90.8879L97.2832 90.5207L120.583 47.3654C117.352 41.2034 121.328 33.0272 128.183 31.7669C141.997 28.6271 146.743 50.3603 132.887 53.2522L113.614 105.986C113.01 107.619 111.921 109.029 110.492 110.027C109.064 111.025 107.366 111.562 105.624 111.568Z" fill="#FFB8B8"/>
<path d="M49.1844 121.455C28.8128 121.505 27.0244 90.7176 47.4412 88.5481C101.43 85.286 94.5976 71.7263 98.6975 111.723C98.8234 112.91 98.4736 114.097 97.7247 115.026C96.9758 115.955 95.889 116.549 94.7029 116.677L50.9527 121.361C50.3653 121.424 49.7751 121.455 49.1844 121.455Z" fill="#06BEE1"/>
<path d="M44.535 24.1149C72.5996 40.0847 49.56 82.2211 20.9723 67.2167C-7.09136 51.2474 15.9482 9.11096 44.535 24.1149Z" fill="#FFB8B8"/>
<path d="M70.0489 386.823L82.3079 386.822L88.1409 339.534L70.0469 339.535L70.0489 386.823Z" fill="#FFB8B8"/>
<path d="M67.4221 398.207L105.953 398.205C105.806 378.325 80.0346 384.053 67.4214 383.32L67.4221 398.207Z" fill="#2F2E41"/>
<path d="M17.0491 386.823L29.3081 386.822L35.1411 339.534L17.0471 339.535L17.0491 386.823Z" fill="#FFB8B8"/>
<path d="M14.4221 398.207L52.9528 398.205C52.8056 378.325 27.0346 384.053 14.4214 383.32L14.4221 398.207Z" fill="#2F2E41"/>
<path d="M30.9819 370.308C28.0189 369.495 11.9181 371.954 10.0179 368.726C3.38193 302.215 4.85703 237.123 19.5877 201.356L70.2359 198.255C81.5617 218.931 107.596 356.13 91.8918 364.472L71.6973 365.192C70.5457 365.229 69.4163 364.87 68.4986 364.173C67.581 363.476 66.9311 362.485 66.658 361.365L49.7632 265.248C45.556 259.367 37.2859 366.473 35.9202 366.072C35.7421 367.253 35.1453 368.331 34.2388 369.108C33.3322 369.886 32.1763 370.312 30.9819 370.308Z" fill="#2F2E41"/>
<path d="M17.9789 209.763C-7.59267 183.009 8.71853 111.284 7.89299 112.81C7.96305 111.053 13.755 83.9938 28.7375 79.5529C40.6242 75.63 53.7807 87.3646 55.4035 99.2334L73.2099 204.387C73.302 204.959 73.2583 205.545 73.0822 206.098C72.9061 206.65 72.6026 207.153 72.1962 207.567C73.0717 210.293 19.2308 209.217 17.9789 209.763Z" fill="#06BEE1"/>
<path d="M26.278 42.9333C28.5237 41.5136 29.6305 39.0788 30.9377 36.8607C37.8231 32.9365 45.7384 42.4296 53.0211 38.8867C73.6138 19.1176 52.4468 13.2853 33.4806 12.2428C29.0003 11.6906 25.1889 13.28 21.8015 15.9049C-16.0842 13.0115 2.08529 63.3877 25.9957 70.0413C30.2174 71.8904 33.3842 68.1478 29.6613 64.7458C24.5104 59.3457 18.1296 48.4758 26.278 42.9333Z" fill="#2F2E41"/>
<path d="M419.51 19.63H419.509L145.509 19.63L145.508 19.63C140.869 19.6366 136.422 21.4824 133.142 24.7627C129.861 28.043 128.016 32.4902 128.009 37.1293V37.13L128.009 383.13L128.009 383.131C128.016 387.77 129.861 392.217 133.142 395.497C136.422 398.778 140.869 400.623 145.508 400.63H145.509H419.509H419.51C424.149 400.623 428.596 398.778 431.876 395.497C435.157 392.217 437.003 387.77 437.009 383.131V383.13V37.13V37.1293C437.003 32.4902 435.157 28.043 431.876 24.7627C428.596 21.4824 424.149 19.6366 419.51 19.63ZM434.009 383.129C434.004 386.974 432.475 390.659 429.757 393.378C427.038 396.096 423.353 397.625 419.508 397.63H145.51C141.665 397.625 137.98 396.096 135.261 393.378C132.543 390.659 131.014 386.974 131.009 383.13V37.1302C131.014 33.286 132.543 29.6006 135.261 26.8823C137.98 24.164 141.665 22.6348 145.509 22.63H419.509C423.353 22.6348 427.038 24.164 429.757 26.8823C432.475 29.6007 434.004 33.2862 434.009 37.1306V383.129Z" fill="#FF4D00" stroke="#FF4D00"/>
<path d="M68.3066 165.728C59.276 166.751 55.3113 145.736 51.8586 140.381L69.8435 133.398L75.6956 144.101L124.724 145.32C125.015 144.925 125.333 144.551 125.676 144.199C135.399 134.019 151.233 149.273 141.547 159.432C140.478 160.567 139.181 161.463 137.741 162.061C136.301 162.659 134.75 162.944 133.192 162.899C131.633 162.854 130.102 162.479 128.698 161.799C127.295 161.119 126.052 160.15 125.051 158.954C123.84 159.041 69.4907 165.76 68.3066 165.728Z" fill="#FFB8B8"/>
<path d="M54.9878 155.696C51.9809 158.594 28.8971 117.923 27.2106 116.774C15.5463 98.6438 43.0063 80.7437 54.8716 98.7755L78.8687 135.654C79.5182 136.655 79.7443 137.873 79.4973 139.04C79.2504 140.207 78.5505 141.228 77.5513 141.88C76.4576 142.392 55.7596 156.798 54.9878 155.696Z" fill="#06BEE1"/>
<path d="M365.509 259.63H199.509C182.552 259.548 182.482 233.719 199.51 233.63H365.509C382.455 233.709 382.546 259.541 365.509 259.63Z" fill="#CCCCCC"/>
<path d="M365.509 307.63H199.509C182.552 307.548 182.482 281.719 199.51 281.63H365.509C382.455 281.709 382.546 307.541 365.509 307.63Z" fill="#CCCCCC"/>
<path d="M365.509 355.63H199.509C182.552 355.548 182.482 329.719 199.51 329.63H365.509C382.455 329.709 382.546 355.541 365.509 355.63Z" fill="#CCCCCC"/>
<path d="M427.509 52.13C422.367 52.13 417.34 50.6051 413.064 47.7482C408.789 44.8913 405.456 40.8307 403.488 36.0798C401.52 31.3289 401.005 26.1012 402.009 21.0577C403.012 16.0142 405.488 11.3814 409.124 7.74526C412.76 4.10909 417.393 1.63281 422.437 0.629598C427.48 -0.373617 432.708 0.141273 437.459 2.10915C442.21 4.07703 446.27 7.40952 449.127 11.6852C451.984 15.9609 453.509 20.9877 453.509 26.13C453.501 33.0233 450.759 39.6319 445.885 44.5062C441.011 49.3804 434.402 52.1222 427.509 52.13Z" fill="#06BEE1"/>
<path d="M439.509 25.13H428.509V12.63C428.509 12.3648 428.404 12.1104 428.216 11.9229C428.029 11.7353 427.774 11.63 427.509 11.63C427.244 11.63 426.989 11.7353 426.802 11.9229C426.614 12.1104 426.509 12.3648 426.509 12.63V25.13H415.509C415.244 25.13 414.989 25.2353 414.802 25.4229C414.614 25.6104 414.509 25.8648 414.509 26.13C414.509 26.3952 414.614 26.6496 414.802 26.8371C414.989 27.0246 415.244 27.13 415.509 27.13H426.509V39.63C426.509 39.8952 426.614 40.1496 426.802 40.3371C426.989 40.5246 427.244 40.63 427.509 40.63C427.774 40.63 428.029 40.5246 428.216 40.3371C428.404 40.1496 428.509 39.8952 428.509 39.63V27.13H439.509C439.774 27.13 440.029 27.0246 440.216 26.8371C440.404 26.6496 440.509 26.3952 440.509 26.13C440.509 25.8648 440.404 25.6104 440.216 25.4229C440.029 25.2353 439.774 25.13 439.509 25.13Z" fill="white"/>
<path d="M362.509 202.43H202.509C198.134 202.425 193.941 200.685 190.847 197.592C187.754 194.498 186.014 190.304 186.009 185.93V96.3302C186.014 91.9556 187.754 87.7617 190.847 84.6684C193.941 81.5751 198.134 79.8351 202.509 79.8302H362.509C366.884 79.8351 371.078 81.5751 374.171 84.6684C377.264 87.7617 379.004 91.9556 379.009 96.3302V185.93C379.004 190.304 377.264 194.498 374.171 197.592C371.078 200.685 366.884 202.425 362.509 202.43Z" fill="#06BEE1"/>
</g>
<defs>
<clipPath id="clip0">
<rect width="454" height="401" fill="white"/>
</clipPath>
</defs>
</svg>
