<svg width="122" height="73" viewBox="0 0 122 73" fill="none" xmlns="http://www.w3.org/2000/svg">
<g clip-path="url(#clip0)">
<path d="M93.4061 72.1745C91.8441 70.8535 90.8954 68.7669 91.1442 66.7355C91.393 64.7041 92.9341 62.8366 94.933 62.4053C96.9319 61.9739 99.2106 63.168 99.8177 65.1223C100.152 61.3545 100.537 57.4288 102.538 54.2202C104.351 51.3148 107.49 49.2359 110.892 48.864C114.294 48.4921 117.876 49.8968 119.997 52.5842C122.119 55.2716 122.638 59.1784 121.153 62.2638C120.058 64.5366 118.041 66.2281 115.928 67.6042C109.1 72.0135 100.911 73.8066 92.8667 72.6535L93.4061 72.1745Z" fill="#141D33"/>
<path d="M116.633 49.9746C113.826 52.2629 111.251 54.8222 108.945 57.6155C105.336 61.9719 102.415 66.8563 100.285 72.0984C100.129 72.4809 100.75 72.6473 100.904 72.2692C104.389 63.7496 109.953 56.2405 117.087 50.4287C117.407 50.1677 116.951 49.7157 116.633 49.9746Z" fill="white" fill-opacity="0.7"/>
<path d="M39.2738 71.8155C41.4191 70.0013 42.7222 67.1352 42.3804 64.3451C42.0387 61.555 39.9221 58.99 37.1766 58.3976C34.431 57.8051 31.3013 59.4452 30.4674 62.1294C30.0084 56.9543 29.4796 51.5624 26.7305 47.1553C24.2412 43.1648 19.9298 40.3095 15.2572 39.7986C10.5846 39.2878 5.6649 41.2171 2.75076 44.9083C-0.163381 48.5994 -0.876896 53.9655 1.16409 58.2032C2.66762 61.325 5.43764 63.6483 8.33993 65.5384C17.5992 71.5684 29.0854 74.0833 40.0147 72.4736" fill="#141D33"/>
<path d="M7.37143 41.3241C11.2269 44.4671 14.7639 47.9823 17.9313 51.8188C21.0991 55.6514 23.8881 59.7825 26.259 64.154C27.5842 66.6062 28.7747 69.129 29.8251 71.7112C30.0392 72.2364 29.187 72.4651 28.9752 71.9457C27.1147 67.3934 24.8129 63.0346 22.1027 58.9317C19.4057 54.8437 16.3189 51.0272 12.8856 47.5357C10.9437 45.5619 8.89481 43.6965 6.74825 41.9478C6.30826 41.5892 6.93508 40.9685 7.37143 41.3241L7.37143 41.3241Z" fill="white" fill-opacity="0.7"/>
<path d="M87.5736 72.8402H36.3896V20.2802C36.3896 9.09763 45.4797 0 56.6528 0H67.3104C78.4835 0 87.5736 9.09763 87.5736 20.2802V72.8402Z" fill="#141D33"/>
<path d="M76.9161 72.8402H36.3897V20.2801C36.3785 15.9952 37.7342 11.8186 40.2594 8.35841C40.3525 8.23143 40.4453 8.10609 40.5411 7.98212C41.7625 6.3788 43.2161 4.96679 44.8537 3.79268C44.9462 3.72531 45.0391 3.65911 45.1334 3.59291C46.5037 2.6438 47.9861 1.86793 49.5467 1.28294C49.6394 1.24778 49.7337 1.21256 49.8281 1.17877C51.2395 0.674656 52.7027 0.329339 54.1904 0.149196C54.2827 0.136586 54.3774 0.126718 54.4721 0.116851C55.9219 -0.0382991 57.3841 -0.0382991 58.834 0.116851C58.9284 0.126718 59.0231 0.136585 59.1164 0.149331C60.6038 0.329485 62.0665 0.674761 63.4776 1.17878C63.572 1.21256 63.6664 1.24779 63.7593 1.28301C65.3007 1.86062 66.7656 2.62492 68.1214 3.55886C68.2155 3.62362 68.3098 3.68982 68.4027 3.75601C69.3207 4.41182 70.1829 5.14243 70.9806 5.94038C71.6203 6.58042 72.2165 7.26267 72.765 7.98254C72.8604 8.1061 72.9533 8.23144 73.0462 8.35822C75.5715 11.8185 76.9273 15.9951 76.9161 20.2801V72.8402Z" fill="#CCCCCC"/>
<path d="M73.6207 49.3321C74.8598 49.3321 75.8643 48.3267 75.8643 47.0865C75.8643 45.8463 74.8598 44.8409 73.6207 44.8409C72.3815 44.8409 71.377 45.8463 71.377 47.0865C71.377 48.3267 72.3815 49.3321 73.6207 49.3321Z" fill="#06BEE1"/>
<path d="M83.3806 71.266H81.6613L80.8434 64.6292L83.3808 64.6294L83.3806 71.266Z" fill="#AD5D47"/>
<path d="M80.4333 70.7743H83.7488V72.8636H78.3457C78.3457 72.5893 78.3997 72.3176 78.5046 72.0641C78.6095 71.8106 78.7633 71.5803 78.9571 71.3862C79.151 71.1922 79.3811 71.0383 79.6344 70.9333C79.8877 70.8283 80.1591 70.7743 80.4333 70.7743Z" fill="#2F2E41"/>
<path d="M91.9346 71.266H90.2154L89.3974 64.6292L91.9349 64.6294L91.9346 71.266Z" fill="#AD5D47"/>
<path d="M88.9873 70.7743H92.3029V72.8636H86.8997C86.8997 72.5893 86.9537 72.3176 87.0586 72.0641C87.1635 71.8106 87.3173 71.5803 87.5112 71.3862C87.705 71.1922 87.9351 71.0383 88.1884 70.9333C88.4417 70.8283 88.7132 70.7743 88.9873 70.7743Z" fill="#2F2E41"/>
<path d="M74.7562 47.5314C74.6325 47.349 74.5503 47.1417 74.5153 46.9241C74.4804 46.7065 74.4935 46.4838 74.5538 46.2718C74.6141 46.0599 74.7201 45.8637 74.8644 45.6971C75.0086 45.5306 75.1876 45.3977 75.3887 45.3079L81.2329 29.1866L84.1086 30.7573L77.4358 46.1633C77.5642 46.5115 77.5605 46.8947 77.4255 47.2403C77.2905 47.5859 77.0334 47.8699 76.7031 48.0386C76.3729 48.2072 75.9922 48.2487 75.6334 48.1552C75.2746 48.0618 74.9624 47.8398 74.7562 47.5314Z" fill="#AD5D47"/>
<path d="M91.0564 50.5605C90.8653 50.4509 90.7006 50.3007 90.5738 50.1204C90.447 49.9402 90.3613 49.7343 90.3226 49.5173C90.2839 49.3004 90.2933 49.0775 90.35 48.8645C90.4066 48.6515 90.5093 48.4536 90.6507 48.2846L88.8402 31.2311L92.1128 31.3807L92.8653 48.1551C93.1332 48.4116 93.2978 48.7576 93.3278 49.1275C93.3579 49.4974 93.2513 49.8654 93.0284 50.1619C92.8054 50.4584 92.4815 50.6628 92.118 50.7363C91.7546 50.8097 91.3768 50.7472 91.0564 50.5605Z" fill="#AD5D47"/>
<path d="M85.8355 26.2005C87.7377 26.2005 89.2797 24.6572 89.2797 22.7535C89.2797 20.8497 87.7377 19.3064 85.8355 19.3064C83.9334 19.3064 82.3914 20.8497 82.3914 22.7535C82.3914 24.6572 83.9334 26.2005 85.8355 26.2005Z" fill="#AD5D47"/>
<path d="M91.0344 46.6821H80.6508L80.6633 46.6012C80.6819 46.4804 82.5139 34.4698 81.1627 30.5405C81.0272 30.1543 81.0391 29.7316 81.1962 29.3538C81.3534 28.9759 81.6446 28.6696 82.0139 28.4937H82.0139C83.9451 27.5835 87.6522 26.4627 90.781 29.1827C91.2415 29.5895 91.601 30.098 91.8312 30.6679C92.0615 31.2378 92.1561 31.8535 92.1075 32.4663L91.0344 46.6821Z" fill="#06BEE1"/>
<path d="M82.6451 36.2447L77.9703 35.2955L80.1616 30.0985C80.2927 29.5951 80.618 29.1644 81.066 28.9007C81.514 28.637 82.0483 28.562 82.5515 28.692C83.0548 28.822 83.486 29.1465 83.7505 29.5943C84.015 30.0421 84.0913 30.5766 83.9626 31.0806L82.6451 36.2447Z" fill="#06BEE1"/>
<path d="M88.6323 38.0071L88.3513 31.5594C88.1382 30.3473 88.8315 29.2015 89.8977 29.0142C90.9642 28.8276 92.0056 29.6683 92.2196 30.8892L93.276 36.914L88.6323 38.0071Z" fill="#06BEE1"/>
<path d="M90.6889 45.9102C92.3597 52.2787 92.542 60.3757 92.0912 69.2078L89.8475 68.9271L85.7809 52.0854L83.5372 69.2078L81.0131 69.0674C80.259 59.8004 79.5248 51.8447 80.7326 46.6119L90.6889 45.9102Z" fill="#2F2E41"/>
<path d="M88.1049 25.4175C87.4624 26.1025 86.2691 25.7348 86.1854 24.799C86.1788 24.7263 86.1793 24.6532 86.1868 24.5806C86.2301 24.1661 86.4693 23.7898 86.412 23.3521C86.399 23.2431 86.3585 23.1393 86.2942 23.0505C85.7822 22.3643 84.5803 23.3574 84.0971 22.7362C83.8008 22.3553 84.1491 21.7556 83.9217 21.3298C83.6216 20.768 83.6172 21.0551 83.0598 20.7474C82.4396 20.405 83.0351 19.5977 83.4434 19.0184C83.9413 18.312 84.3077 18.2728 85.1698 18.2185C86.0319 18.1642 86.2832 18.3203 87.0881 18.6343C88.0025 18.9909 88.4436 19.5585 89.0063 20.3632C89.6906 21.3419 89.7322 21.9061 89.3899 23.0505C89.1817 23.7466 88.6296 24.8581 88.1049 25.4175Z" fill="#2F2E41"/>
<path d="M117.791 72.9305H14.2596C14.2154 72.9304 14.1731 72.9127 14.1419 72.8814C14.1107 72.8501 14.0931 72.8077 14.0931 72.7634C14.0931 72.7192 14.1107 72.6768 14.1419 72.6454C14.1731 72.6141 14.2154 72.5964 14.2596 72.5963H117.791C117.835 72.5964 117.877 72.6141 117.908 72.6454C117.939 72.6768 117.957 72.7192 117.957 72.7634C117.957 72.8077 117.939 72.8501 117.908 72.8814C117.877 72.9127 117.835 72.9304 117.791 72.9305Z" fill="#3F3D56"/>
<path d="M65.7678 57.6125H47.5379C47.2978 57.6138 47.0671 57.5197 46.8962 57.3509C46.7253 57.1821 46.6283 56.9524 46.6264 56.7121V15.9877C46.6283 15.7474 46.7253 15.5176 46.8962 15.3489C47.0671 15.1801 47.2978 15.086 47.5379 15.0873H65.7678C66.0079 15.086 66.2387 15.1801 66.4096 15.3489C66.5805 15.5176 66.6775 15.7474 66.6793 15.9877V56.7121C66.6775 56.9524 66.5805 57.1821 66.4096 57.3509C66.2387 57.5197 66.0079 57.6138 65.7678 57.6125Z" fill="white"/>
<path d="M66.6793 28.2645H46.6264V28.5452H66.6793V28.2645Z" fill="#CCCCCC"/>
<path d="M66.7494 44.2795H46.6965V44.5602H66.7494V44.2795Z" fill="#CCCCCC"/>
<path d="M53.2172 15.0873H52.9368V57.7528H53.2172V15.0873Z" fill="#CCCCCC"/>
<path d="M60.2287 15.0873H59.9482V57.7528H60.2287V15.0873Z" fill="#CCCCCC"/>
</g>
<defs>
<clipPath id="clip0">
<rect width="122" height="73" fill="white"/>
</clipPath>
</defs>
</svg>
