<svg width="287" height="191" viewBox="0 0 287 191" fill="none" xmlns="http://www.w3.org/2000/svg">
<g clip-path="url(#clip0)">
<path d="M39.1752 185.839L44.4193 185.839L46.9134 165.644L39.1733 165.645L39.1752 185.839Z" fill="#FFB8B8"/>
<path d="M54.5337 190.699L38.0518 190.701L38.0512 184.343L48.1651 184.342C49.854 184.342 51.4738 185.012 52.6681 186.204C53.8625 187.396 54.5335 189.013 54.5337 190.699Z" fill="#2F2E41"/>
<path d="M81.3781 185.839L86.6222 185.839L89.1163 165.644L81.3762 165.645L81.3781 185.839Z" fill="#FFB8B8"/>
<path d="M96.7366 190.699L80.2547 190.701L80.2541 184.343L90.368 184.342C92.0569 184.342 93.6767 185.012 94.871 186.204C96.0654 187.396 96.7364 189.013 96.7366 190.699Z" fill="#2F2E41"/>
<path d="M38.0411 178.401C37.5624 178.402 37.0986 178.236 36.729 177.932C36.3595 177.629 36.1073 177.206 36.0158 176.737L32.6482 134.492C29.0229 98.7166 35.2283 86.1131 35.2914 85.9901L35.3595 85.8571L35.5087 85.8657L64.6161 87.5382L70.7948 107.716L87.1274 129.625C89.7113 133.104 91.0841 137.332 91.0361 141.663L90.6227 173.605C90.6133 174.122 90.4111 174.616 90.0558 174.991C89.7005 175.367 89.2177 175.596 88.7018 175.635L80.1754 176.227C79.6423 176.266 79.115 176.096 78.7052 175.753C78.2953 175.411 78.0351 174.922 77.9797 174.391L75.8672 139.712C75.861 139.676 75.8439 139.643 75.8182 139.616L51.5951 117.077C51.5152 116.992 51.415 116.929 51.3039 116.893C51.1928 116.857 51.0745 116.851 50.96 116.873C50.8455 116.896 50.7386 116.947 50.6494 117.022C50.5602 117.097 50.4916 117.194 50.4501 117.303L48.0072 176.012C48.0342 176.291 48.0032 176.572 47.9161 176.839C47.829 177.105 47.6878 177.351 47.5012 177.561C47.3115 177.775 47.0793 177.947 46.8194 178.067C46.5594 178.187 46.2773 178.252 45.991 178.257L38.0792 178.401C38.0664 178.401 38.0537 178.401 38.0411 178.401Z" fill="#2F2E41"/>
<path d="M58.5042 42.2818C65.627 38.3945 68.2447 29.4787 64.351 22.3677C60.4574 15.2567 51.5268 12.6433 44.404 16.5305C37.2812 20.4177 34.6635 29.3336 38.5572 36.4446C42.4509 43.5556 51.3814 46.169 58.5042 42.2818Z" fill="#2F2E41"/>
<path d="M114.589 58.2098C114.042 57.9012 113.433 57.7163 112.806 57.668C112.179 57.6197 111.549 57.7093 110.96 57.9304C110.372 58.1514 109.839 58.4987 109.399 58.9476C108.96 59.3965 108.624 59.9362 108.416 60.5287L98.6018 61.0779L97.4814 67.1135L111.33 66.1435C112.35 66.4266 113.439 66.3262 114.39 65.8614C115.341 65.3967 116.088 64.5998 116.489 63.6219C116.891 62.6439 116.92 61.5528 116.569 60.5554C116.219 59.5579 115.515 58.7233 114.589 58.2098Z" fill="#FFB8B8"/>
<path d="M33.4922 108.011C33.7641 107.445 33.9084 106.826 33.9149 106.198C33.9214 105.57 33.79 104.949 33.5298 104.377C33.2697 103.806 32.8872 103.298 32.4092 102.89C31.9313 102.482 31.3696 102.183 30.7636 102.016L29.5613 92.2759L23.4546 91.5618L25.3459 105.292C25.131 106.327 25.3038 107.405 25.8316 108.321C26.3594 109.238 27.2055 109.929 28.2096 110.264C29.2138 110.599 30.3061 110.555 31.2797 110.139C32.2533 109.724 33.0405 108.967 33.4922 108.011H33.4922Z" fill="#FFB8B8"/>
<path d="M50.8105 45.1459C57.033 45.1459 62.0773 40.1099 62.0773 33.8977C62.0773 27.6855 57.033 22.6495 50.8105 22.6495C44.588 22.6495 39.5437 27.6855 39.5437 33.8977C39.5437 40.1099 44.588 45.1459 50.8105 45.1459Z" fill="#FFB8B8"/>
<path d="M53.0321 91.513C47.041 91.513 42.0207 91.0289 37.0417 89.2518C34.992 88.5203 34.7729 87.6133 34.4847 86.4789C34.0322 84.6985 33.7842 63.6418 36.1199 56.6535C36.7537 54.7751 37.9076 53.1144 39.448 51.8639C40.9884 50.6134 42.8522 49.8242 44.8234 49.5879C47.0474 49.3262 53.7 48.3875 57.4675 47.8513C59.3187 47.5733 61.2051 48.0347 62.7181 49.1353C63.7167 49.8839 64.2352 50.6881 64.2593 51.5255L65.2831 87.1276C65.3164 88.1565 64.948 89.158 64.2555 89.9208C63.5631 90.6835 62.6008 91.1477 61.572 91.2154C59.2698 91.3708 56.2776 91.513 53.0321 91.513Z" fill="#06BEE1"/>
<path d="M23.2312 100.232C22.9535 100.232 22.6786 100.176 22.423 100.068C22.1675 99.959 21.9365 99.8 21.744 99.6002C21.5514 99.4003 21.4013 99.1637 21.3025 98.9046C21.2037 98.6454 21.1583 98.369 21.169 98.0919L21.5268 81.7632C21.6053 79.7452 22.2088 77.7824 23.278 76.0681L37.1616 53.834C37.5966 53.1413 38.2009 52.5704 38.9177 52.175C39.6345 51.7795 40.4402 51.5726 41.2592 51.5735C42.0791 51.5736 42.8852 51.7845 43.5999 52.1857C44.3146 52.5869 44.9139 53.1651 45.34 53.8644C45.7826 54.5871 46.0262 55.4136 46.0461 56.2605C46.066 57.1073 45.8616 57.9443 45.4535 58.687L31.9863 83.1223L32.9133 98.1199C32.9182 98.3932 32.8686 98.6648 32.7674 98.9188C32.6661 99.1728 32.5153 99.4042 32.3236 99.5994C32.1319 99.7947 31.9032 99.9499 31.6509 100.056C31.3985 100.162 31.1275 100.217 30.8537 100.218L23.2358 100.232L23.2312 100.232Z" fill="#06BEE1"/>
<path d="M105.511 69.5455C105.327 69.7531 105.103 69.9211 104.852 70.0392C104.6 70.1573 104.328 70.223 104.05 70.2324L87.7055 71.0978C85.6853 71.17 83.6811 70.7159 81.89 69.7802L58.6433 57.6214C57.9175 57.2418 57.3009 56.6833 56.8521 55.9989C56.4032 55.3145 56.1371 54.527 56.0788 53.711C56.0206 52.8951 56.1722 52.0778 56.5192 51.3368C56.8663 50.5958 57.3973 49.9556 58.0619 49.4771L58.1959 49.6628L58.0619 49.4771C58.7505 48.9823 59.5579 48.678 60.4023 48.5948C61.2466 48.5116 62.098 48.6526 62.8702 49.0034L88.2849 60.583L103.207 58.5372C103.479 58.5134 103.753 58.5437 104.013 58.6263C104.273 58.7089 104.514 58.8422 104.722 59.0184C104.93 59.1946 105.101 59.4103 105.225 59.6529C105.349 59.8955 105.424 60.1603 105.445 60.432L106.03 68.0149C106.033 68.0528 106.034 68.0906 106.035 68.1283C106.049 68.6502 105.861 69.1574 105.511 69.5455Z" fill="#06BEE1"/>
<path d="M42.4648 32.3047L39.5417 24.4244L52.6852 20.6265L62.0795 23.5085V32.3047H42.4648Z" fill="#2F2E41"/>
<path d="M56.2814 14.5381C56.0021 11.3764 54.7865 8.36929 52.7893 5.89978C50.7921 3.43028 48.1038 1.6102 45.0668 0.671428C42.0299 -0.267349 38.7817 -0.28233 35.7362 0.628388C32.6906 1.53911 29.9856 3.3343 27.9656 5.78527C25.2025 9.13803 23.9257 13.4513 22.9913 17.6916C22.0568 21.932 21.3802 26.284 19.5658 30.2299C17.7514 34.1757 14.5525 37.7605 10.3291 38.7964C6.10572 39.8322 0.976289 37.4998 0 33.2689C0.151457 36.1283 0.874745 38.9285 2.12724 41.5045C3.37973 44.0805 5.13609 46.3801 7.29277 48.2678C10.952 51.436 16.9264 50.3157 20.5287 47.0831C24.131 43.8506 25.9139 39.1065 27.4564 34.5226C28.9988 29.9388 30.5196 25.1593 33.7914 21.5936C37.0632 18.028 46.3361 14.2382 50.5384 16.6428C53.834 18.5286 55.0166 17.3298 56.2814 14.5381Z" fill="#2F2E41"/>
<path d="M279.431 108.337H119.794C117.787 108.334 115.863 107.538 114.445 106.121C113.026 104.704 112.227 102.784 112.225 100.78V19.7198C112.227 17.7164 113.026 15.7957 114.445 14.3791C115.863 12.9624 117.787 12.1656 119.794 12.1633H279.431C281.438 12.1656 283.362 12.9624 284.781 14.3791C286.2 15.7957 286.998 17.7164 287 19.7198V100.78C286.998 102.784 286.2 104.704 284.781 106.121C283.362 107.538 281.438 108.334 279.431 108.337Z" fill="#E6E6E6"/>
<path d="M277.596 102.841H121.629C120.595 102.84 119.604 102.429 118.873 101.7C118.142 100.97 117.731 99.9804 117.73 98.9483V21.5517C117.731 20.5196 118.142 19.5301 118.873 18.8004C119.604 18.0706 120.595 17.6601 121.629 17.6589H277.596C278.63 17.6601 279.621 18.0706 280.352 18.8004C281.083 19.5301 281.494 20.5196 281.495 21.5517V98.9483C281.494 99.9804 281.083 100.97 280.352 101.7C279.621 102.429 278.63 102.84 277.596 102.841Z" fill="white"/>
<path d="M260.623 91.6208H138.602C137.629 91.6208 136.695 91.2348 136.007 90.5477C135.319 89.8606 134.932 88.9288 134.932 87.9571C134.932 86.9854 135.319 86.0535 136.007 85.3664C136.695 84.6793 137.629 84.2933 138.602 84.2933H260.623C261.597 84.2933 262.53 84.6793 263.218 85.3664C263.906 86.0535 264.293 86.9854 264.293 87.9571C264.293 88.9288 263.906 89.8606 263.218 90.5477C262.53 91.2348 261.597 91.6208 260.623 91.6208Z" fill="#E6E6E6"/>
<path d="M260.623 76.0499H138.602C137.629 76.0499 136.695 75.6639 136.007 74.9768C135.319 74.2897 134.932 73.3578 134.932 72.3862C134.932 71.4145 135.319 70.4826 136.007 69.7955C136.695 69.1084 137.629 68.7224 138.602 68.7224H260.623C261.597 68.7224 262.53 69.1084 263.218 69.7955C263.906 70.4826 264.293 71.4145 264.293 72.3862C264.293 73.3578 263.906 74.2897 263.218 74.9768C262.53 75.6639 261.597 76.0499 260.623 76.0499Z" fill="#E6E6E6"/>
<path d="M165.208 58.0186H138.602C137.568 58.0174 136.577 57.6069 135.846 56.8772C135.115 56.1474 134.704 55.1579 134.703 54.1259V34.7744C134.704 33.7424 135.115 32.7529 135.846 32.0231C136.577 31.2934 137.568 30.8829 138.602 30.8817H165.208C166.242 30.8829 167.233 31.2934 167.964 32.0231C168.695 32.7529 169.106 33.7424 169.107 34.7744V54.1259C169.106 55.1579 168.695 56.1474 167.964 56.8772C167.233 57.6069 166.242 58.0174 165.208 58.0186Z" fill="#06BEE1"/>
<path d="M260.759 55.8993H198.831C197.857 55.8993 196.924 55.5132 196.236 54.8262C195.548 54.1391 195.161 53.2072 195.161 52.2355C195.161 51.2638 195.548 50.3319 196.236 49.6449C196.924 48.9578 197.857 48.5718 198.831 48.5718H260.759C261.732 48.5718 262.666 48.9578 263.354 49.6449C264.042 50.3319 264.429 51.2638 264.429 52.2355C264.429 53.2072 264.042 54.1391 263.354 54.8262C262.666 55.5132 261.732 55.8993 260.759 55.8993Z" fill="#CCCCCC"/>
<path d="M235.07 40.3283H198.831C197.857 40.3283 196.924 39.9423 196.236 39.2552C195.548 38.5682 195.161 37.6363 195.161 36.6646C195.161 35.6929 195.548 34.761 196.236 34.0739C196.924 33.3869 197.857 33.0009 198.831 33.0009H235.07C236.043 33.0009 236.977 33.3869 237.665 34.0739C238.353 34.761 238.74 35.6929 238.74 36.6646C238.74 37.6363 238.353 38.5682 237.665 39.2552C236.977 39.9423 236.043 40.3283 235.07 40.3283Z" fill="#CCCCCC"/>
<path d="M114.828 191H23.9997C23.8781 191 23.7614 190.952 23.6754 190.866C23.5894 190.78 23.541 190.663 23.541 190.542C23.541 190.42 23.5894 190.304 23.6754 190.218C23.7614 190.132 23.8781 190.084 23.9997 190.084H114.828C114.949 190.084 115.066 190.132 115.152 190.218C115.238 190.304 115.286 190.42 115.286 190.542C115.286 190.663 115.238 190.78 115.152 190.866C115.066 190.952 114.949 191 114.828 191Z" fill="#CCCCCC"/>
</g>
<defs>
<clipPath id="clip0">
<rect width="287" height="191" fill="white"/>
</clipPath>
</defs>
</svg>
