<svg width="139" height="120" viewBox="0 0 139 120" fill="none" xmlns="http://www.w3.org/2000/svg">
<g clip-path="url(#clip0)">
<path d="M66.2681 76.4179H135.535C136.454 76.4179 137.335 76.0503 137.985 75.3958C138.635 74.7413 139 73.8537 139 72.9281V41.4003C139 40.4747 138.635 39.5871 137.985 38.9326C137.335 38.2781 136.454 37.9105 135.535 37.9105H66.2681C65.3491 37.9105 64.4677 38.2781 63.8179 38.9326C63.1681 39.5871 62.803 40.4747 62.803 41.4003V72.9281C62.803 73.8537 63.1681 74.7413 63.8179 75.3958C64.4677 76.0503 65.3491 76.4179 66.2681 76.4179Z" fill="#141D33"/>
<path d="M128.042 58.806H72.868C72.4089 58.806 71.9687 58.6173 71.644 58.2814C71.3194 57.9455 71.1371 57.4899 71.1371 57.0149C71.1371 56.5399 71.3194 56.0843 71.644 55.7485C71.9687 55.4126 72.4089 55.2239 72.868 55.2239H128.042C128.501 55.2239 128.941 55.4126 129.266 55.7485C129.591 56.0843 129.773 56.5399 129.773 57.0149C129.773 57.4899 129.591 57.9455 129.266 58.2814C128.941 58.6173 128.501 58.806 128.042 58.806Z" fill="white"/>
<path d="M128.042 66.2686H72.868C72.4089 66.2686 71.9687 66.0799 71.644 65.744C71.3194 65.4081 71.1371 64.9526 71.1371 64.4776C71.1371 64.0026 71.3194 63.547 71.644 63.2111C71.9687 62.8752 72.4089 62.6865 72.868 62.6865H128.042C128.501 62.6865 128.941 62.8752 129.266 63.2111C129.591 63.547 129.773 64.0026 129.773 64.4776C129.773 64.9526 129.591 65.4081 129.266 65.744C128.941 66.0799 128.501 66.2686 128.042 66.2686Z" fill="white"/>
<path d="M118.223 51.3433H72.865C72.4067 51.3433 71.9672 51.1703 71.6432 50.8624C71.3191 50.5545 71.1371 50.1369 71.1371 49.7015C71.1371 49.2661 71.3191 48.8485 71.6432 48.5406C71.9672 48.2327 72.4067 48.0597 72.865 48.0597H118.223C118.681 48.0597 119.121 48.2327 119.445 48.5406C119.769 48.8485 119.951 49.2661 119.951 49.7015C119.951 50.1369 119.769 50.5545 119.445 50.8624C119.121 51.1703 118.681 51.3433 118.223 51.3433Z" fill="white"/>
<g filter="url(#filter0_d)">
<path d="M83.3562 59.1045H55.6438C54.7799 59.1035 53.9517 58.7597 53.3409 58.1487C52.73 57.5376 52.3864 56.7091 52.3854 55.8449V23.0348C52.3862 22.3885 52.6431 21.7689 53.1 21.3118C53.5568 20.8548 54.1762 20.5977 54.8223 20.597H84.1388C84.7952 20.5977 85.4245 20.8589 85.8886 21.3232C86.3527 21.7876 86.6138 22.4171 86.6146 23.0737V55.8449C86.6136 56.7091 86.27 57.5376 85.6591 58.1487C85.0483 58.7598 84.2201 59.1035 83.3562 59.1045Z" fill="#1F2D4F"/>
</g>
<path d="M69.6488 41.4925C72.7721 41.4925 75.3041 38.9532 75.3041 35.8209C75.3041 32.6885 72.7721 30.1492 69.6488 30.1492C66.5255 30.1492 63.9936 32.6885 63.9936 35.8209C63.9936 38.9532 66.5255 41.4925 69.6488 41.4925Z" fill="#06BEE1"/>
<path d="M78.8758 49.5523H60.4218V49.4926C60.4238 47.7673 61.0993 46.1132 62.3002 44.8933C63.5012 43.6733 65.1295 42.9871 66.8278 42.9851H72.4698C74.1682 42.9871 75.7965 43.6733 76.9974 44.8932C78.1984 46.1132 78.8739 47.7673 78.8758 49.4926V49.5523Z" fill="#06BEE1"/>
<path d="M53.9795 49.9671C53.5887 50.1646 53.1596 50.2738 52.7222 50.287C52.2849 50.3002 51.8499 50.217 51.4481 50.0434C51.0462 49.8698 50.6872 49.6099 50.3963 49.2821C50.1054 48.9543 49.8898 48.5665 49.7645 48.146L39.1383 47.6806L42.3796 43.1906L51.9734 44.3209C52.6917 44.1567 53.4451 44.2624 54.0908 44.618C54.7365 44.9736 55.2298 45.5544 55.4771 46.2504C55.7243 46.9463 55.7085 47.7091 55.4324 48.3941C55.1564 49.0791 54.6395 49.6388 53.9795 49.9671Z" fill="#FFB8B8"/>
<path d="M24.4774 45.7124L18.6339 34.4255C17.8287 32.8746 17.4734 31.1282 17.6083 29.3849C17.7432 27.6416 18.3629 25.9711 19.397 24.5633C19.6052 24.2846 19.8261 24.0135 20.0537 23.7577C20.9818 22.7122 22.1386 21.8963 23.4335 21.3737C24.7284 20.8512 26.1263 20.6362 27.5178 20.7455C28.9563 20.8435 30.3526 21.274 31.5977 22.0031C32.8427 22.7323 33.9027 23.7405 34.6946 24.9488L37.5009 29.2031C37.7881 29.4604 41.6509 33.0352 40.214 37.6868L39.9669 42.1474C39.9497 42.4373 39.8398 42.7138 39.6535 42.9361C39.4671 43.1583 39.2143 43.3144 38.9326 43.3812L25.9693 46.4017C25.6796 46.4695 25.3756 46.4386 25.1054 46.3137C24.8352 46.1889 24.6142 45.9773 24.4774 45.7124L24.4774 45.7124Z" fill="#06BEE1"/>
<path d="M20.379 67.1322C20.0739 66.8177 19.8412 66.4399 19.6974 66.0255C19.5535 65.6111 19.502 65.17 19.5466 64.7335C19.5911 64.2969 19.7305 63.8754 19.955 63.4988C20.1794 63.1221 20.4836 62.7994 20.8459 62.5533L18.0988 52.2481L23.3423 54.001L25.1471 63.5183C25.5189 64.1561 25.6445 64.9085 25.5001 65.633C25.3557 66.3575 24.9514 67.0037 24.3636 67.4492C23.7759 67.8947 23.0457 68.1084 22.3113 68.05C21.5769 67.9916 20.8894 67.665 20.379 67.1322H20.379Z" fill="#FFB8B8"/>
<path d="M19.0911 62.2564C18.8985 62.1628 18.7313 62.0239 18.6038 61.8516C18.4763 61.6792 18.3921 61.4785 18.3585 61.2666L16.5496 43.6666C16.3062 42.2375 16.2702 40.7806 16.4428 39.3413L18.6112 26.1715C18.7016 25.4029 19.0842 24.6988 19.6794 24.206C20.2745 23.7132 21.0363 23.4697 21.806 23.5262C22.2108 23.5552 22.6056 23.6662 22.9665 23.8524C23.3273 24.0387 23.6468 24.2965 23.9055 24.6101C24.1643 24.9237 24.357 25.2866 24.4719 25.677C24.5869 26.0674 24.6217 26.4771 24.5743 26.8814L22.804 41.9888L24.8314 59.8071C24.8628 60.0747 24.8128 60.3455 24.688 60.5841C24.5632 60.8226 24.3694 61.0178 24.1321 61.144L20.2971 62.2424C20.1115 62.3403 19.9054 62.3926 19.6958 62.395C19.4861 62.3975 19.2789 62.3499 19.0911 62.2564L19.0911 62.2564Z" fill="#06BEE1"/>
<path d="M48.1443 115.928L51.7294 115.246L50.813 101.053L45.5218 102.06L48.1443 115.928Z" fill="#FFB8B8"/>
<path d="M47.0079 114.928L54.0683 113.585L54.0686 113.585C54.6595 113.473 55.2667 113.478 55.8554 113.601C56.4442 113.724 57.0031 113.962 57.5001 114.302C57.9972 114.641 58.4227 115.076 58.7523 115.58C59.0819 116.085 59.3092 116.649 59.4213 117.242L59.449 117.389L47.889 119.587L47.0079 114.928Z" fill="#2F2E41"/>
<path d="M16.4187 116.04L20.0678 116.04L21.8037 101.924L16.4181 101.924L16.4187 116.04Z" fill="#FFB8B8"/>
<path d="M15.4879 114.845L22.6742 114.845H22.6745C23.2759 114.845 23.8714 114.964 24.427 115.194C24.9827 115.425 25.4875 115.763 25.9128 116.19C26.3381 116.616 26.6754 117.123 26.9056 117.68C27.1357 118.237 27.2542 118.835 27.2542 119.438V119.587L15.4881 119.587L15.4879 114.845Z" fill="#2F2E41"/>
<path d="M27.0954 17.5796C31.1329 17.5796 34.4059 14.2971 34.4059 10.248C34.4059 6.19881 31.1329 2.91632 27.0954 2.91632C23.058 2.91632 19.785 6.19881 19.785 10.248C19.785 14.2971 23.058 17.5796 27.0954 17.5796Z" fill="#FFB8B8"/>
<path d="M15.8179 110.367C15.6922 110.231 15.5958 110.071 15.5346 109.896C15.4734 109.721 15.4488 109.535 15.4622 109.351L20.4381 64.0517C20.3953 63.6276 19.7195 55.9361 25.203 46.0947L25.2333 46.0403L39.9274 41.9537L41.5522 48.8273L52.4409 108.592C52.4799 108.937 52.3835 109.284 52.1722 109.559C51.9608 109.835 51.651 110.017 51.3082 110.067L47.5182 110.638C47.198 110.686 46.8714 110.616 46.5986 110.441C46.3258 110.266 46.1253 109.998 46.0341 109.687L33.2021 69.3797C33.1752 69.2869 33.1192 69.2053 33.0423 69.1471C32.9653 69.0889 32.8717 69.0572 32.7754 69.0567C32.679 69.0563 32.5851 69.0871 32.5076 69.1445C32.4302 69.202 32.3733 69.2831 32.3456 69.3756L21.8184 109.826C21.7365 110.105 21.5671 110.35 21.3354 110.524C21.1036 110.699 20.8219 110.793 20.5322 110.794H16.7977C16.6139 110.794 16.4321 110.756 16.2636 110.682C16.0951 110.609 15.9434 110.501 15.8179 110.367Z" fill="#2F2E41"/>
<path d="M46.8735 49.151L31.0411 46.4284C30.0119 46.2552 29.0588 45.7743 28.3067 45.0487C27.5546 44.3232 27.0384 43.3868 26.8258 42.3621L23.5199 26.7029C23.3915 26.0951 23.397 25.4665 23.5358 24.8611C23.6745 24.2556 23.9434 23.6878 24.3234 23.1972C24.7035 22.7066 25.1858 22.3051 25.7365 22.0206C26.2872 21.7361 26.8932 21.5756 27.5121 21.5501C28.5824 21.5112 29.6284 21.8759 30.4437 22.5724C31.2589 23.2689 31.7843 24.2466 31.9161 25.3125L33.5752 39.2702L47.5421 42.9097C47.8062 43.0009 48.0353 43.1727 48.1973 43.401C48.3592 43.6293 48.4459 43.9027 48.4452 44.1829L48.4393 47.8304C48.4389 48.0258 48.3961 48.2188 48.3137 48.3959C48.2313 48.5729 48.1114 48.7298 47.9623 48.8556C47.8132 48.9813 47.6385 49.0729 47.4505 49.1239C47.2624 49.175 47.0655 49.1842 46.8735 49.151H46.8735Z" fill="#06BEE1"/>
<path d="M33.3141 8.54598C34.4778 8.30469 35.6092 7.52822 35.9201 6.37799C36.1916 5.37318 35.7899 4.28983 35.161 3.46158C34.341 2.43671 33.2029 1.71617 31.9277 1.41451C30.6524 1.11285 29.3133 1.24739 28.123 1.79673C28.2353 1.20426 27.791 0.619736 27.2442 0.368771C26.6781 0.159157 26.0729 0.0776393 25.4718 0.130051C23.5698 0.156714 21.5449 0.220423 19.9723 1.29356C18.7183 2.14929 17.9222 3.55635 17.5097 5.02016C17.0972 6.48397 17.0298 8.01998 16.965 9.53973C16.8513 12.2033 17.8919 17.8093 17.8919 17.8093C17.8919 17.8093 21.5717 18.8239 23.1838 19.294C24.9162 19.7992 27.8391 20.3043 29.5715 20.8094C30.0149 20.9387 30.6087 21.0113 30.8315 20.6057C31.0094 20.2819 30.8037 19.8875 30.5968 19.5815C29.6859 18.234 28.6424 16.9631 27.9416 15.4947C27.2409 14.0262 26.9129 12.2814 27.5146 10.7693C28.1162 9.25734 32.1504 8.78727 33.3141 8.54598Z" fill="#2F2E41"/>
<path d="M71.4347 119.996H0.297645C0.218704 119.996 0.142997 119.965 0.0871778 119.909C0.0313587 119.853 0 119.777 0 119.697C0 119.618 0.0313587 119.542 0.0871778 119.486C0.142997 119.43 0.218704 119.399 0.297645 119.399H71.4347C71.5136 119.399 71.5893 119.43 71.6451 119.486C71.701 119.542 71.7323 119.618 71.7323 119.697C71.7323 119.777 71.701 119.853 71.6451 119.909C71.5893 119.965 71.5136 119.996 71.4347 119.996Z" fill="#CCCCCC"/>
</g>
<defs>
<filter id="filter0_d" x="48.3854" y="20.597" width="42.2291" height="46.5075" filterUnits="userSpaceOnUse" color-interpolation-filters="sRGB">
<feFlood flood-opacity="0" result="BackgroundImageFix"/>
<feColorMatrix in="SourceAlpha" type="matrix" values="0 0 0 0 0 0 0 0 0 0 0 0 0 0 0 0 0 0 127 0"/>
<feOffset dy="4"/>
<feGaussianBlur stdDeviation="2"/>
<feColorMatrix type="matrix" values="0 0 0 0 0 0 0 0 0 0 0 0 0 0 0 0 0 0 0.25 0"/>
<feBlend mode="normal" in2="BackgroundImageFix" result="effect1_dropShadow"/>
<feBlend mode="normal" in="SourceGraphic" in2="effect1_dropShadow" result="shape"/>
</filter>
<clipPath id="clip0">
<rect width="139" height="120" fill="white"/>
</clipPath>
</defs>
</svg>
