<svg width="99" height="74" viewBox="0 0 99 74" fill="none" xmlns="http://www.w3.org/2000/svg">
<path d="M87.9869 2.94632C87.9869 2.94632 88.3927 8.46397 88.3927 8.66833C88.3927 8.87269 85.552 22.9733 85.552 22.9733C85.552 22.9733 81.4938 30.7389 85.552 30.5346C89.6101 30.3302 88.3927 23.1777 88.3927 23.1777L92.6538 11.325L90.8276 2.94632L87.9869 2.94632Z" fill="#A0616A"/>
<path d="M89.6317 18H9V74H49.3159H89.6317V18Z" fill="#F2F2F2"/>
<path d="M36.2457 38H16L15.8771 74H26H36.1229L36.2457 38Z" fill="#3F3D56"/>
<path d="M25.2039 40.9722H19.7502V46.0924H25.2039V40.9722Z" fill="#F2F2F2"/>
<path d="M32.5062 40.9722H27.0526V46.0924H32.5062V40.9722Z" fill="#F2F2F2"/>
<path d="M25.2039 47.9543H19.7502V53.2607H25.2039V47.9543Z" fill="#F2F2F2"/>
<path d="M32.5062 47.9543H27.0526V53.2607H32.5062V47.9543Z" fill="#F2F2F2"/>
<path d="M33.6764 60.327C34.3874 60.327 34.9637 59.7465 34.9637 59.0305C34.9637 58.3144 34.3874 57.734 33.6764 57.734C32.9655 57.734 32.3891 58.3144 32.3891 59.0305C32.3891 59.7465 32.9655 60.327 33.6764 60.327Z" fill="#06BEE1"/>
<path d="M83.062 35.4579H43.0387V69.2846H83.062V35.4579Z" fill="#3F3D56"/>
<path d="M98.2755 27.8109H0.791771L7.29148 14.1246L8.74608 11.0602L10.6491 7.0528L12.1037 3.98838L13.7899 0.438416H90.595L91.5909 3.98838L92.451 7.0528L93.5757 11.0602L94.4358 14.1246L98.2755 27.8109Z" fill="#3F3D56"/>
<path d="M45.8473 49.4836H44.4429V58.2054H45.8473V49.4836Z" fill="#06BEE1"/>
<path d="M45.8473 50.7801H44.4429V51.8408H45.8473V50.7801Z" fill="#F2F2F2"/>
<path d="M45.8473 55.8482H44.4429V56.909H45.8473V55.8482Z" fill="#F2F2F2"/>
<path d="M49.9433 49.4836H46.5495V58.2054H49.9433V49.4836Z" fill="#06BEE1"/>
<path d="M49.9433 50.7801H46.5495V51.8408H49.9433V50.7801Z" fill="#F2F2F2"/>
<path d="M49.9433 55.8482H46.5495V56.909H49.9433V55.8482Z" fill="#F2F2F2"/>
<path d="M52.1667 49.4836H50.7624V58.2054H52.1667V49.4836Z" fill="#06BEE1"/>
<path d="M52.1667 50.7801H50.7624V51.8408H52.1667V50.7801Z" fill="#F2F2F2"/>
<path d="M52.1667 55.8482H50.7624V56.909H52.1667V55.8482Z" fill="#F2F2F2"/>
<path d="M54.2733 49.4836H52.8689V58.2054H54.2733V49.4836Z" fill="#06BEE1"/>
<path d="M54.2733 50.7801H52.8689V51.8408H54.2733V50.7801Z" fill="#F2F2F2"/>
<path d="M54.2733 55.8482H52.8689V56.909H54.2733V55.8482Z" fill="#F2F2F2"/>
<path d="M55.6265 49.5144L54.3124 50.0133L57.367 58.1746L58.6811 57.6757L55.6265 49.5144Z" fill="#06BEE1"/>
<path d="M56.0806 50.7276L54.7665 51.2265L55.138 52.219L56.4521 51.7202L56.0806 50.7276Z" fill="#F2F2F2"/>
<path d="M57.8556 55.4699L56.5415 55.9688L56.913 56.9614L58.2271 56.4625L57.8556 55.4699Z" fill="#F2F2F2"/>
<path d="M81.7747 49.4836H78.3809V58.2054H81.7747V49.4836Z" fill="#06BEE1"/>
<path d="M81.7747 50.7801H78.3809V51.8408H81.7747V50.7801Z" fill="#F2F2F2"/>
<path d="M81.7747 55.8482H78.3809V56.909H81.7747V55.8482Z" fill="#F2F2F2"/>
<path d="M77.5616 49.4836H76.1573V58.2054H77.5616V49.4836Z" fill="#06BEE1"/>
<path d="M77.5616 50.7801H76.1573V51.8408H77.5616V50.7801Z" fill="#F2F2F2"/>
<path d="M77.5616 55.8482H76.1573V56.909H77.5616V55.8482Z" fill="#F2F2F2"/>
<path d="M75.4552 49.4836H74.0508V58.2054H75.4552V49.4836Z" fill="#06BEE1"/>
<path d="M75.4552 50.7801H74.0508V51.8408H75.4552V50.7801Z" fill="#F2F2F2"/>
<path d="M75.4552 55.8482H74.0508V56.909H75.4552V55.8482Z" fill="#F2F2F2"/>
<path d="M72.6976 49.5144L69.643 57.6757L70.957 58.1746L74.0116 50.0133L72.6976 49.5144Z" fill="#06BEE1"/>
<path d="M72.2436 50.7276L71.8721 51.7202L73.1861 52.2191L73.5576 51.2265L72.2436 50.7276Z" fill="#F2F2F2"/>
<path d="M70.4686 55.4699L70.0971 56.4625L71.4112 56.9614L71.7827 55.9688L70.4686 55.4699Z" fill="#F2F2F2"/>
<path d="M83.062 58.2054H43.0387V59.0305H83.062V58.2054Z" fill="#F2F2F2"/>
<path d="M67.8484 49.4836H60.4757V58.2054H67.8484V49.4836Z" fill="#06BEE1"/>
<path d="M66.0345 51.3694H62.2896V53.0195H66.0345V51.3694Z" fill="#F2F2F2"/>
<path d="M63.4014 35.4579H62.6993V43.0011H63.4014V35.4579Z" fill="#F2F2F2"/>
<path d="M63.0503 44.1797C63.6966 44.1797 64.2206 43.652 64.2206 43.0011C64.2206 42.3501 63.6966 41.8224 63.0503 41.8224C62.404 41.8224 61.88 42.3501 61.88 43.0011C61.88 43.652 62.404 44.1797 63.0503 44.1797Z" fill="#F2F2F2"/>
<path d="M92.451 7.05279H10.6491L12.1037 3.98837H91.5909L92.451 7.05279Z" fill="#06BEE1"/>
<path d="M94.4358 14.1246H7.29156L8.74615 11.0602H93.5758L94.4358 14.1246Z" fill="#06BEE1"/>
</svg>
