<svg width="436" height="199" viewBox="0 0 436 199" fill="none" xmlns="http://www.w3.org/2000/svg">
<g clip-path="url(#clip0)">
<path d="M55.3204 196.14L54.5721 195.971C62.9148 158.806 83.8805 125.058 113.607 100.941C136.081 82.7368 162.811 70.5616 191.28 65.562C219.748 60.5624 249.018 62.9029 276.334 72.3631C303.65 81.8233 328.113 98.092 347.42 119.637C366.727 141.183 380.242 167.296 386.694 195.518L385.946 195.688C368.286 118.014 300.328 63.7652 220.684 63.7652C142.084 63.7652 72.5385 119.437 55.3204 196.14Z" fill="#3F3D56"/>
<path d="M344.978 105.335C356.481 105.335 365.806 95.9937 365.806 84.4708C365.806 72.948 356.481 63.6068 344.978 63.6068C333.475 63.6068 324.15 72.948 324.15 84.4708C324.15 95.9937 333.475 105.335 344.978 105.335Z" fill="#FF4D00"/>
<path d="M337.066 167.886H336.299V198.232H337.066V167.886Z" fill="#3F3D56"/>
<path d="M344.144 171.753C344.193 182.364 336.74 191.001 336.74 191.001C336.74 191.001 329.208 182.433 329.159 171.822C329.11 161.211 336.563 152.574 336.563 152.574C336.563 152.574 344.095 161.142 344.144 171.753Z" fill="#06BEE1"/>
<path opacity="0.1" d="M344.144 171.753C344.193 182.364 336.74 191.001 336.74 191.001C336.74 191.001 329.208 182.433 329.159 171.822C329.11 161.211 336.563 152.574 336.563 152.574C336.563 152.574 344.095 161.142 344.144 171.753Z" fill="black"/>
<path opacity="0.4" d="M192.124 107.552C198.742 107.552 204.107 102.178 204.107 95.5488C204.107 88.9196 198.742 83.5456 192.124 83.5456C185.507 83.5456 180.142 88.9196 180.142 95.5488C180.142 102.178 185.507 107.552 192.124 107.552Z" fill="#06BEE1"/>
<path opacity="0.4" d="M169.948 109.702C174.59 109.702 178.353 105.932 178.353 101.282C178.353 96.6313 174.59 92.8615 169.948 92.8615C165.306 92.8615 161.542 96.6313 161.542 101.282C161.542 105.932 165.306 109.702 169.948 109.702Z" fill="#06BEE1"/>
<path opacity="0.4" d="M79.8335 133.902C84.4758 133.902 88.2391 130.132 88.2391 125.482C88.2391 120.831 84.4758 117.062 79.8335 117.062C75.1912 117.062 71.4279 120.831 71.4279 125.482C71.4279 130.132 75.1912 133.902 79.8335 133.902Z" fill="#06BEE1"/>
<path opacity="0.4" d="M328.366 106.564C334.984 106.564 340.349 101.19 340.349 94.5613C340.349 87.9321 334.984 82.5581 328.366 82.5581C321.748 82.5581 316.384 87.9321 316.384 94.5613C316.384 101.19 321.748 106.564 328.366 106.564Z" fill="#06BEE1"/>
<path d="M21.7158 194.857C22.3654 197.263 24.5903 198.753 24.5903 198.753C24.5903 198.753 25.7621 196.342 25.1125 193.937C24.4629 191.532 22.238 190.042 22.238 190.042C22.238 190.042 21.0662 192.452 21.7158 194.857Z" fill="#3F3D56"/>
<path d="M22.6703 194.341C24.4527 196.079 24.6705 198.751 24.6705 198.751C24.6705 198.751 21.9983 198.604 20.2159 196.866C18.4334 195.128 18.2157 192.456 18.2157 192.456C18.2157 192.456 20.8879 192.602 22.6703 194.341Z" fill="#06BEE1"/>
<path d="M256.397 194.857C257.046 197.263 259.271 198.753 259.271 198.753C259.271 198.753 260.443 196.342 259.793 193.937C259.144 191.532 256.919 190.042 256.919 190.042C256.919 190.042 255.747 192.452 256.397 194.857Z" fill="#3F3D56"/>
<path d="M257.351 194.341C259.134 196.079 259.351 198.751 259.351 198.751C259.351 198.751 256.679 198.604 254.897 196.866C253.114 195.128 252.896 192.456 252.896 192.456C252.896 192.456 255.569 192.602 257.351 194.341Z" fill="#06BEE1"/>
<path d="M26.1281 176.777L24.5417 174.128L39.3489 161.414H77.4247V165.122L63.6751 179.955L47.81 183.134L26.1281 176.777Z" fill="#3F3D56"/>
<path d="M83.9788 168.875V160.587H78.9938V163.201L77.4246 161.414L64.7327 174.128L62.6171 176.247L59.9731 186.842L64.7327 198.496H89.0586V174.658L83.9788 168.875Z" fill="#CCCCCC"/>
<path d="M64.7327 174.128H24.5417V198.496H64.7327V174.128Z" fill="#F2F2F2"/>
<path d="M59.18 181.809H50.7188V189.226H59.18V181.809Z" fill="#3F3D56"/>
<path d="M47.2814 181.544H39.8778V198.496H47.2814V181.544Z" fill="#CCCCCC"/>
<path d="M31.4164 184.193V181.545H28.2437V184.193H31.1518H31.4164Z" fill="#3F3D56"/>
<path d="M31.1518 186.312H28.2437V188.961H31.4164V186.312H31.1518Z" fill="#3F3D56"/>
<path d="M36.7048 181.544H33.5319V184.193H36.7048V181.544Z" fill="#3F3D56"/>
<path d="M36.7048 186.312H33.5319V188.961H36.7048V186.312Z" fill="#3F3D56"/>
<path d="M76.1025 184.458V181.809H72.9293V184.458H75.8379H76.1025Z" fill="#3F3D56"/>
<path d="M75.8379 186.577H72.9293V189.226H76.1025V186.577H75.8379Z" fill="#3F3D56"/>
<path d="M81.3907 181.809H78.2178V184.458H81.3907V181.809Z" fill="#3F3D56"/>
<path d="M81.3907 186.577H78.2178V189.226H81.3907V186.577Z" fill="#3F3D56"/>
<path d="M179.131 176.777L177.544 174.128L192.352 161.414H230.427V165.122L216.678 179.955L200.813 183.134L179.131 176.777Z" fill="#3F3D56"/>
<path d="M236.982 168.875V160.587H231.997V163.201L230.427 161.414L217.736 174.128L215.62 176.247L212.976 186.842L217.736 198.496H242.061V174.658L236.982 168.875Z" fill="#CCCCCC"/>
<path d="M217.735 174.128H177.544V198.496H217.735V174.128Z" fill="#F2F2F2"/>
<path d="M212.183 181.809H203.721V189.226H212.183V181.809Z" fill="#3F3D56"/>
<path d="M200.284 181.544H192.88V198.496H200.284V181.544Z" fill="#CCCCCC"/>
<path d="M184.419 184.193V181.545H181.246V184.193H184.155H184.419Z" fill="#3F3D56"/>
<path d="M184.155 186.312H181.246V188.961H184.419V186.312H184.155Z" fill="#3F3D56"/>
<path d="M189.707 181.544H186.534V184.193H189.707V181.544Z" fill="#3F3D56"/>
<path d="M189.707 186.312H186.534V188.961H189.707V186.312Z" fill="#3F3D56"/>
<path d="M229.105 184.458V181.809H225.932V184.458H228.841H229.105Z" fill="#3F3D56"/>
<path d="M228.841 186.577H225.932V189.226H229.105V186.577H228.841Z" fill="#3F3D56"/>
<path d="M234.393 181.809H231.22V184.458H234.393V181.809Z" fill="#3F3D56"/>
<path d="M234.393 186.577H231.22V189.226H234.393V186.577Z" fill="#3F3D56"/>
<path d="M107.568 132.279L104.924 130.159L119.731 116.916H157.278V128.57L132.952 144.993L107.568 132.279Z" fill="#3F3D56"/>
<path d="M164.123 124.345V117.181H159.138V118.935L157.278 116.916L145.114 130.159L140.355 133.338L132.975 187.348L144.105 198.496H169.97V130.689L164.123 124.345Z" fill="#CCCCCC"/>
<path d="M145.115 130.16H104.924V198.496H145.115V130.16Z" fill="#F2F2F2"/>
<path d="M127.928 181.809H120.524V198.496H127.928V181.809Z" fill="#CCCCCC"/>
<path d="M112.591 186.577V183.929H109.419V186.577H112.327H112.591Z" fill="#3F3D56"/>
<path d="M112.327 188.696H109.419V191.345H112.591V188.696H112.327Z" fill="#3F3D56"/>
<path d="M117.88 183.928H114.707V186.577H117.88V183.928Z" fill="#3F3D56"/>
<path d="M117.88 188.696H114.707V191.345H117.88V188.696Z" fill="#3F3D56"/>
<path d="M134.273 186.577V183.929H131.101V186.577H134.009H134.273Z" fill="#3F3D56"/>
<path d="M134.009 188.696H131.101V191.345H134.273V188.696H134.009Z" fill="#3F3D56"/>
<path d="M139.562 183.928H136.389V186.577H139.562V183.928Z" fill="#3F3D56"/>
<path d="M139.562 188.696H136.389V191.345H139.562V188.696Z" fill="#3F3D56"/>
<path d="M156.484 133.603V130.954H153.311V133.603H156.22H156.484Z" fill="#3F3D56"/>
<path d="M156.22 135.722H153.311V138.371H156.484V135.722H156.22Z" fill="#3F3D56"/>
<path d="M161.773 130.954H158.6V133.603H161.773V130.954Z" fill="#3F3D56"/>
<path d="M161.773 135.722H158.6V138.371H161.773V135.722Z" fill="#3F3D56"/>
<path d="M156.484 148.436V145.787H153.311V148.436H156.22H156.484Z" fill="#3F3D56"/>
<path d="M156.22 150.555H153.311V153.203H156.484V150.555H156.22Z" fill="#3F3D56"/>
<path d="M161.773 145.787H158.6V148.436H161.773V145.787Z" fill="#3F3D56"/>
<path d="M161.773 150.555H158.6V153.203H161.773V150.555Z" fill="#3F3D56"/>
<path d="M156.484 163.269V160.62H153.311V163.269H156.22H156.484Z" fill="#3F3D56"/>
<path d="M156.22 165.387H153.311V168.036H156.484V165.387H156.22Z" fill="#3F3D56"/>
<path d="M161.773 160.62H158.6V163.268H161.773V160.62Z" fill="#3F3D56"/>
<path d="M161.773 165.387H158.6V168.036H161.773V165.387Z" fill="#3F3D56"/>
<path d="M156.484 178.101V175.452H153.311V178.101H156.22H156.484Z" fill="#3F3D56"/>
<path d="M156.22 180.22H153.311V182.869H156.484V180.22H156.22Z" fill="#3F3D56"/>
<path d="M161.773 175.452H158.6V178.101H161.773V175.452Z" fill="#3F3D56"/>
<path d="M161.773 180.22H158.6V182.869H161.773V180.22Z" fill="#3F3D56"/>
<path d="M140.091 133.603H109.419V139.96H140.091V133.603Z" fill="#3F3D56"/>
<path d="M140.091 146.317H109.419V152.674H140.091V146.317Z" fill="#3F3D56"/>
<path d="M140.091 159.031H109.419V165.387H140.091V159.031Z" fill="#3F3D56"/>
<path d="M140.091 171.744H109.419V178.101H140.091V171.744Z" fill="#3F3D56"/>
<path d="M262.104 132.279L259.46 130.159L274.267 116.916H311.814V128.57L287.488 144.993L262.104 132.279Z" fill="#3F3D56"/>
<path d="M318.66 124.345V117.181H313.675V118.935L311.814 116.916L299.651 130.159L294.892 133.338L287.512 187.348L298.641 198.496H324.506V130.689L318.66 124.345Z" fill="#CCCCCC"/>
<path d="M299.651 130.16H259.46V198.496H299.651V130.16Z" fill="#F2F2F2"/>
<path d="M282.464 181.809H275.061V198.496H282.464V181.809Z" fill="#CCCCCC"/>
<path d="M267.128 186.577V183.929H263.955V186.577H266.864H267.128Z" fill="#3F3D56"/>
<path d="M266.864 188.696H263.955V191.345H267.128V188.696H266.864Z" fill="#3F3D56"/>
<path d="M272.416 183.928H269.243V186.577H272.416V183.928Z" fill="#3F3D56"/>
<path d="M272.416 188.696H269.243V191.345H272.416V188.696Z" fill="#3F3D56"/>
<path d="M288.81 186.577V183.929H285.637V186.577H288.546H288.81Z" fill="#3F3D56"/>
<path d="M288.546 188.696H285.637V191.345H288.81V188.696H288.546Z" fill="#3F3D56"/>
<path d="M294.098 183.928H290.925V186.577H294.098V183.928Z" fill="#3F3D56"/>
<path d="M294.098 188.696H290.925V191.345H294.098V188.696Z" fill="#3F3D56"/>
<path d="M311.021 133.603V130.954H307.848V133.603H310.757H311.021Z" fill="#3F3D56"/>
<path d="M310.757 135.722H307.848V138.371H311.021V135.722H310.757Z" fill="#3F3D56"/>
<path d="M316.309 130.954H313.136V133.603H316.309V130.954Z" fill="#3F3D56"/>
<path d="M316.309 135.722H313.136V138.371H316.309V135.722Z" fill="#3F3D56"/>
<path d="M311.021 148.436V145.787H307.848V148.436H310.757H311.021Z" fill="#3F3D56"/>
<path d="M310.757 150.555H307.848V153.203H311.021V150.555H310.757Z" fill="#3F3D56"/>
<path d="M316.309 145.787H313.136V148.436H316.309V145.787Z" fill="#3F3D56"/>
<path d="M316.309 150.555H313.136V153.203H316.309V150.555Z" fill="#3F3D56"/>
<path d="M311.021 163.269V160.62H307.848V163.269H310.757H311.021Z" fill="#3F3D56"/>
<path d="M310.757 165.387H307.848V168.036H311.021V165.387H310.757Z" fill="#3F3D56"/>
<path d="M316.309 160.62H313.136V163.268H316.309V160.62Z" fill="#3F3D56"/>
<path d="M316.309 165.387H313.136V168.036H316.309V165.387Z" fill="#3F3D56"/>
<path d="M311.021 178.101V175.452H307.848V178.101H310.757H311.021Z" fill="#3F3D56"/>
<path d="M310.757 180.22H307.848V182.869H311.021V180.22H310.757Z" fill="#3F3D56"/>
<path d="M316.309 175.452H313.136V178.101H316.309V175.452Z" fill="#3F3D56"/>
<path d="M316.309 180.22H313.136V182.869H316.309V180.22Z" fill="#3F3D56"/>
<path d="M294.627 133.603H263.955V139.96H294.627V133.603Z" fill="#3F3D56"/>
<path d="M294.627 146.317H263.955V152.674H294.627V146.317Z" fill="#3F3D56"/>
<path d="M294.627 159.031H263.955V165.387H294.627V159.031Z" fill="#3F3D56"/>
<path d="M294.627 171.744H263.955V178.101H294.627V171.744Z" fill="#3F3D56"/>
<path d="M346.85 132.279L344.206 130.159L359.013 116.916H396.56V128.57L372.234 144.993L346.85 132.279Z" fill="#3F3D56"/>
<path d="M403.406 124.345V117.181H398.421V118.935L396.56 116.916L384.397 130.159L379.638 133.338L372.258 187.348L383.387 198.496H409.252V130.689L403.406 124.345Z" fill="#CCCCCC"/>
<path d="M384.397 130.16H344.206V198.496H384.397V130.16Z" fill="#F2F2F2"/>
<path d="M367.21 181.809H359.806V198.496H367.21V181.809Z" fill="#CCCCCC"/>
<path d="M351.874 186.577V183.929H348.701V186.577H351.61H351.874Z" fill="#3F3D56"/>
<path d="M351.61 188.696H348.701V191.345H351.874V188.696H351.61Z" fill="#3F3D56"/>
<path d="M357.162 183.928H353.989V186.577H357.162V183.928Z" fill="#3F3D56"/>
<path d="M357.162 188.696H353.989V191.345H357.162V188.696Z" fill="#3F3D56"/>
<path d="M373.556 186.577V183.929H370.383V186.577H373.291H373.556Z" fill="#3F3D56"/>
<path d="M373.291 188.696H370.383V191.345H373.556V188.696H373.291Z" fill="#3F3D56"/>
<path d="M378.844 183.928H375.671V186.577H378.844V183.928Z" fill="#3F3D56"/>
<path d="M378.844 188.696H375.671V191.345H378.844V188.696Z" fill="#3F3D56"/>
<path d="M395.766 133.603V130.954H392.594V133.603H395.502H395.766Z" fill="#3F3D56"/>
<path d="M395.502 135.722H392.594V138.371H395.766V135.722H395.502Z" fill="#3F3D56"/>
<path d="M401.055 130.954H397.882V133.603H401.055V130.954Z" fill="#3F3D56"/>
<path d="M401.055 135.722H397.882V138.371H401.055V135.722Z" fill="#3F3D56"/>
<path d="M395.766 148.436V145.787H392.594V148.436H395.502H395.766Z" fill="#3F3D56"/>
<path d="M395.502 150.555H392.594V153.203H395.766V150.555H395.502Z" fill="#3F3D56"/>
<path d="M401.055 145.787H397.882V148.436H401.055V145.787Z" fill="#3F3D56"/>
<path d="M401.055 150.555H397.882V153.203H401.055V150.555Z" fill="#3F3D56"/>
<path d="M395.766 163.269V160.62H392.594V163.269H395.502H395.766Z" fill="#3F3D56"/>
<path d="M395.502 165.387H392.594V168.036H395.766V165.387H395.502Z" fill="#3F3D56"/>
<path d="M401.055 160.62H397.882V163.268H401.055V160.62Z" fill="#3F3D56"/>
<path d="M401.055 165.387H397.882V168.036H401.055V165.387Z" fill="#3F3D56"/>
<path d="M395.766 178.101V175.452H392.594V178.101H395.502H395.766Z" fill="#3F3D56"/>
<path d="M395.502 180.22H392.594V182.869H395.766V180.22H395.502Z" fill="#3F3D56"/>
<path d="M401.055 175.452H397.882V178.101H401.055V175.452Z" fill="#3F3D56"/>
<path d="M401.055 180.22H397.882V182.869H401.055V180.22Z" fill="#3F3D56"/>
<path d="M379.373 133.603H348.701V139.96H379.373V133.603Z" fill="#3F3D56"/>
<path d="M379.373 146.317H348.701V152.674H379.373V146.317Z" fill="#3F3D56"/>
<path d="M379.373 159.031H348.701V165.387H379.373V159.031Z" fill="#3F3D56"/>
<path d="M379.373 171.744H348.701V178.101H379.373V171.744Z" fill="#3F3D56"/>
<path d="M436 198.232H0V199H436V198.232Z" fill="#3F3D56"/>
<path d="M97.4002 167.886H96.6333V198.232H97.4002V167.886Z" fill="#3F3D56"/>
<path d="M104.478 171.753C104.527 182.364 97.0742 191.001 97.0742 191.001C97.0742 191.001 89.5423 182.433 89.4935 171.822C89.4447 161.211 96.8974 152.574 96.8974 152.574C96.8974 152.574 104.429 161.142 104.478 171.753Z" fill="#06BEE1"/>
<path d="M174.093 167.886H173.326V198.232H174.093V167.886Z" fill="#3F3D56"/>
<path d="M181.171 171.753C181.22 182.364 173.767 191.001 173.767 191.001C173.767 191.001 166.235 182.433 166.187 171.822C166.138 161.211 173.59 152.574 173.59 152.574C173.59 152.574 181.122 161.142 181.171 171.753Z" fill="#06BEE1"/>
<path d="M327.096 167.886H326.329V198.232H327.096V167.886Z" fill="#3F3D56"/>
<path d="M334.174 171.753C334.223 182.364 326.77 191.001 326.77 191.001C326.77 191.001 319.238 182.433 319.189 171.822C319.14 161.211 326.593 152.574 326.593 152.574C326.593 152.574 334.125 161.142 334.174 171.753Z" fill="#06BEE1"/>
<path d="M225.286 66.0892C233.333 66.0892 239.857 64.6188 239.857 62.8049C239.857 60.991 233.333 59.5206 225.286 59.5206C217.238 59.5206 210.714 60.991 210.714 62.8049C210.714 64.6188 217.238 66.0892 225.286 66.0892Z" fill="#06BEE1"/>
<path d="M241.775 16.9016C241.775 26.2361 224.902 52.6255 224.902 52.6255C224.902 52.6255 208.03 26.2361 208.03 16.9016C208.03 12.419 209.808 8.12004 212.972 4.95037C216.136 1.7807 220.428 0 224.902 0C229.377 0 233.669 1.7807 236.833 4.95037C239.997 8.12004 241.775 12.419 241.775 16.9016Z" fill="#06BEE1"/>
<path d="M224.902 26.5048C230.197 26.5048 234.489 22.2053 234.489 16.9016C234.489 11.5979 230.197 7.2984 224.902 7.2984C219.608 7.2984 215.316 11.5979 215.316 16.9016C215.316 22.2053 219.608 26.5048 224.902 26.5048Z" fill="#F2F2F2"/>
</g>
<defs>
<clipPath id="clip0">
<rect width="436" height="199" fill="white"/>
</clipPath>
</defs>
</svg>
