<svg width="98.99999999999999" height="74" xmlns="http://www.w3.org/2000/svg" fill="none">

 <g>
  <title>Layer 1</title>
  <path stroke="null" d="m87.11794,2.32464l-6.61987,0l0,22.96302l6.61987,0l0,-22.96303l0,0.00001z" fill="#3F3D56" id="svg_45"/>
  <path stroke="null" d="m92.99494,23.82167l-19.9103,-23.73755l-39.96557,0.36621l-24.24375,23.66495l0.48992,0.3156l-0.17496,0l0,49.22338l83.75038,0l0,-49.22338l0.05427,-0.60922z" fill="#3F3D56" id="svg_46"/>
  <path stroke="null" d="m73.1784,0.26187l-24.7748,29.17396l0,44.21844l44.53234,0l0,-49.76825l-19.75754,-23.62415z" fill="#06BEE1" id="svg_47"/>
  <path d="m73.76794,47.02427l-9.926,0l0,8.7927l9.926,0l0,-8.7927z" fill="#3F3D56" id="svg_48"/>
  <path d="m73.76794,31.80517l-9.926,0l0,8.6532l9.926,0l0,-8.6532z" fill="#3F3D56" id="svg_49"/>
  <path d="m73.76794,47.02427l-9.926,0l0,8.7927l9.926,0l0,-8.7927z" fill="white" id="svg_50"/>
  <path d="m73.76794,31.80517l-9.926,0l0,8.6532l9.926,0l0,-8.6532z" fill="white" id="svg_51"/>
  <path d="m37.59124,72.08527c0,0 0.2128,-4.4685 4.5751,-3.9491l-4.5751,3.9491z" fill="#E6E6E6" id="svg_52"/>
  <path stroke="null" d="m36.2772,68.1586c0.98093,0 1.77613,-0.79691 1.77613,-1.77996c0,-0.98304 -0.7952,-1.78004 -1.77613,-1.78004c-0.98093,0 -1.77613,0.79699 -1.77613,1.78004c0,0.98304 0.7952,1.77996 1.77613,1.77996z" fill="#06BEE1" id="svg_53"/>
  <path d="m36.61974,69.32937l-0.6163,0l0,4.3234l0.6163,0l0,-4.3234z" fill="#E6E6E6" id="svg_54"/>
  <path d="m29.65544,44.69117l-9.9262,0l0,8.7927l9.9262,0l0,-8.7927z" fill="#3F3D56" id="svg_55"/>
  <path d="m29.65544,29.47207l-9.9262,0l0,8.6532l9.9262,0l0,-8.6532z" fill="#3F3D56" id="svg_56"/>
  <path d="m29.65544,44.69117l-9.9262,0l0,8.7927l9.9262,0l0,-8.7927z" fill="white" id="svg_57"/>
  <path d="m29.65544,29.47207l-9.9262,0l0,8.6532l9.9262,0l0,-8.6532z" fill="white" id="svg_58"/>
 </g>
</svg>