<svg width="1100.02" height="811.41" xmlns="http://www.w3.org/2000/svg" data-name="Layer 1">
 <defs>
  <linearGradient id="785c60ff-874e-47fc-85e9-4f7317d8d736-906" x1="0.4999" y1="1.00002" x2="0.4999" y2="0.00002">
   <stop offset="0" stop-color="gray" stop-opacity="0.25"/>
   <stop offset="0.54" stop-color="gray" stop-opacity="0.12"/>
   <stop offset="1" stop-color="gray" stop-opacity="0.1"/>
  </linearGradient>
 </defs>
 <title>feeling blue</title>
 <g>
  <title>Layer 1</title>
  <path d="m11.84,389.02c17.37,67.13 54.11,125.16 112.17,153.29c120.7,58.46 392.91,28.31 596.07,-6.3c105.09,-17.9 197.46,-67.3 264.56,-136.82l-972.8,-10.17z" fill="#06bde1" opacity="0.1" id="svg_1"/>
  <path d="m1077.2,73.03l-111.47,0c-5.29,0 -9.63,-3.92 -9.63,-8.71s4.34,-8.72 9.63,-8.72l19.28,0c-5.3,0 -9.63,-3.92 -9.63,-8.72s4.33,-8.71 9.63,-8.71l-13.76,0c-5.3,0 -9.64,-3.92 -9.64,-8.72s4.34,-8.71 9.64,-8.71l58.18,0c-12.91,-5.43 -28,-9.29 -45.39,-11.32c-158.65,-18.43 -215.29,-6.24 -235.27,6.29a234.52,234.52 0 0 1 -81.54,32.34c-97.88,18.27 -280.93,40.25 -446.84,-7c-82.46,-23.53 -143.75,16.18 -180.48,82.56l1056.65,0c-1.38,-19.29 -5.51,-37.11 -13.09,-52.7a10.17,10.17 0 0 1 -6.27,2.12z" fill="#06bde1" opacity="0.1" id="svg_2"/>
  <path d="m2.39,248.9a402.53,402.53 0 0 0 4.32,117.12l978.68,32.39a415.21,415.21 0 0 0 68,-93.82l-1051,-55.69zm387.08,83.55l-19.27,0c5.3,0 9.64,3.93 9.64,8.72s-4.34,8.71 -9.64,8.71l-111.47,0c-5.29,0 -9.63,-3.92 -9.63,-8.71s4.34,-8.72 9.63,-8.72l19.28,0c-5.3,0 -9.63,-3.92 -9.63,-8.71s4.33,-8.72 9.63,-8.72l-13.77,0c-5.3,0 -9.64,-3.92 -9.64,-8.71s4.34,-8.72 9.64,-8.72l111.47,0c5.3,0 9.63,3.92 9.63,8.72s-4.33,8.71 -9.63,8.71l13.76,0c5.3,0 9.63,3.92 9.63,8.72s-4.33,8.71 -9.63,8.71z" fill="#06bde1" opacity="0.1" id="svg_3"/>
  <path d="m1096.6,124.21l-1068.48,23.5c-13,30.23 -21.62,64.41 -25.59,99.83l1075.35,0a379.29,379.29 0 0 0 15.52,-63.63c3.21,-20.81 4.49,-40.94 3.2,-59.7zm-877.13,77.05l-19.27,0c5.3,0 9.64,3.93 9.64,8.72s-4.34,8.72 -9.64,8.72l-111.47,0c-5.29,0 -9.63,-3.93 -9.63,-8.72s4.34,-8.72 9.63,-8.72l19.28,0c-5.3,0 -9.63,-3.92 -9.63,-8.71s4.33,-8.72 9.63,-8.72l-13.77,0c-5.3,0 -9.64,-3.92 -9.64,-8.71s4.34,-8.72 9.64,-8.72l111.47,0c5.3,0 9.63,3.92 9.63,8.72s-4.33,8.71 -9.63,8.71l13.76,0c5.3,0 9.63,3.93 9.63,8.72s-4.33,8.71 -9.63,8.71z" fill="#06bde1" opacity="0.1" id="svg_4"/>
  <ellipse cx="545.08" cy="739.96" rx="446.98" ry="41.12" fill="#06bde1" opacity="0.1" id="svg_5"/>
  <path d="m1050.63,444.61a1.48,1.48 0 0 1 0,-0.21c0,-0.11 0,-0.21 0,-0.31l0,0a8.54,8.54 0 0 0 -1.27,-3.21a25.29,25.29 0 0 0 -9.26,-8.76c-6.6,-3.62 -15.67,-5.17 -18.31,-12.08c-0.81,-2.14 -0.83,-4.47 -1.23,-6.71a20.29,20.29 0 0 0 -13.39,-15.23c-3.14,-1.05 -6.53,-1.34 -9.58,-2.64c-6.82,-2.9 -10.42,-10.05 -13.47,-16.66q-5.92,-12.8 -11.84,-25.61c-3,1.51 -6.88,0.8 -9.69,-1.09a20.1,20.1 0 0 1 -6.27,-7.75c-4.07,-7.9 -5.82,-16.85 -10.6,-24.37s-14.33,-13.46 -22.77,-10.19a38.86,38.86 0 0 1 -5.1,2.11c-7.23,1.69 -15.23,-6.57 -21.42,-2.56a7,7 0 0 0 -2.43,2.66a1.2,1.2 0 0 1 0,-0.2a12.79,12.79 0 0 0 -1.32,5.22l0,0c0,0.37 0,0.73 0,1.08c0,0.06 0,0.12 0,0.18c0,1.44 0.09,2.9 0.11,4.36a19.43,19.43 0 0 1 -0.28,3.66l0,-0.1a12.32,12.32 0 0 1 -0.52,2c-1.61,4.32 -6.07,7.15 -8.16,11.21l0,-0.2a10.56,10.56 0 0 0 -0.61,1.37a10.2,10.2 0 0 0 -0.57,3.31c-0.18,7.63 7.91,14.81 8.85,23c0.67,5.8 2,7.66 6.93,10.94l1.08,0.72c-0.43,0 -0.87,0.06 -1.36,0.07a3.32,3.32 0 0 0 -0.57,0.06a6.1,6.1 0 0 0 -5.14,0.9c-3.78,3 -12.72,0.69 -16.69,0s-17.57,1.17 -19.47,8.71s-5.16,23.1 -5.16,23.1s0,9.87 -1.21,11.71a0.59,0.59 0 0 0 0,0.4c0,2.77 0.1,19.42 -2.58,23.71c-0.66,1 -0.61,3.21 -0.12,5.93c-2.82,3.63 -5.47,7.87 -5,10.65c0.86,5.69 12.4,23.58 28.94,14c0,0 9.41,-17.21 -2.43,-26.36l0.51,-2c3.58,4.4 6.23,7.56 6.23,7.56s0.14,0.37 0.36,1l-0.36,0a47,47 0 0 1 2.78,13.08a16,16 0 0 1 -0.88,4.81l0.31,0c-0.09,0.34 -0.19,0.68 -0.31,1a8.72,8.72 0 0 1 -3.11,4.21c-8.27,5.86 -17.74,47.71 -17.74,47.71s-18.76,67.65 -22.51,71.5c-3.1,3.16 16.38,12.06 31,11a23.86,23.86 0 0 0 6,-1.14c0.09,1 0.19,2 0.29,2.91c0.31,3 0.63,5.78 0.83,6.65c0.52,2.18 1.55,24.44 1.55,24.44s-2.11,14.46 -1.6,24.52c0,0.69 0.09,1.35 0.15,2l-1.82,0.28c-2.76,6.2 8.61,57.93 10.16,62.28a41.42,41.42 0 0 1 1.72,10.55s-1,3.68 -0.17,5.69a13.84,13.84 0 0 1 1,3.85s-0.68,3.34 0.35,5.52s-0.17,6 -0.17,6s-0.34,15.07 -3.44,23.27a13.4,13.4 0 0 0 2.15,13.28a8.21,8.21 0 0 0 0.7,0.81s17.1,0.14 20.11,0l0.39,0c1.21,-0.17 4.31,-13.73 1.55,-20.26s-0.34,-14.57 -0.34,-14.57l0,-11.88s3.1,-2.86 0,-9s-2.59,-8 -2.59,-8s3.45,-9.88 -0.17,-13.06s0.69,-15.24 0.69,-15.24l1.22,-40.2a15.81,15.81 0 0 0 -1.95,-0.5c-0.07,-0.66 -0.14,-1.34 -0.21,-2.06c-0.71,-7.28 -1.32,-17.18 0.26,-20s2.34,-27.44 2.59,-44.55l15.76,0.6c0.33,8 0.68,15.3 0.9,16.23c0.52,2.18 1.56,24.44 1.56,24.44s-2.12,14.46 -1.61,24.52c0,0.69 0.09,1.35 0.15,2l-1.82,0.28c-2.76,6.2 8.61,57.93 10.16,62.28a41.65,41.65 0 0 1 1.73,10.55s-1,3.68 -0.18,5.69a13.84,13.84 0 0 1 1,3.85s-0.68,3.34 0.35,5.52s-0.17,6 -0.17,6s-0.34,15.07 -3.44,23.27a13.4,13.4 0 0 0 2.22,13.26a8.21,8.21 0 0 0 0.7,0.81s17.1,0.14 20.11,0l0.39,0c1.21,-0.17 4.31,-13.73 1.55,-20.26s-0.34,-14.57 -0.34,-14.57l0,-11.86s3.1,-2.86 0,-9s-2.59,-8 -2.59,-8s3.45,-9.88 -0.17,-13.06s0.69,-15.24 0.69,-15.24l1.24,-40.2a15.36,15.36 0 0 0 -2,-0.5c-0.07,-0.66 -0.14,-1.34 -0.21,-2.06c-0.71,-7.28 -1.32,-17.18 0.26,-20c1.27,-2.31 2,-17.19 2.33,-31.72c0,-1 0,-2 0.08,-3a155.09,155.09 0 0 0 21.58,-2.42s-8.43,-29.81 -5.85,-34.66c1.11,-2.09 -0.49,-13.22 -2.68,-25.21a17.52,17.52 0 0 0 10.78,3.9c3.77,7.25 15.24,23.93 21.7,26.5c7.58,3 1.89,-23.6 -1.72,-27.45a32.39,32.39 0 0 1 -4.28,-6.87c0.1,-0.12 0.21,-0.22 0.31,-0.33s0.18,-28.3 -1.55,-27.79s-3.79,-4.19 -3.79,-4.19l-5.34,-46.87l-2.24,-19.62l0,0c1.87,1.38 4.09,2.26 6,3.63c5.2,3.81 6.9,10.5 9.18,16.42c1.88,4.87 4.52,9.7 8.85,12.76s10.68,3.87 15,0.77c4,-2.91 5.18,-8.16 6.06,-12.95c7.26,2.55 16.07,-4.27 15.13,-11.72c-0.23,-1.84 -0.91,-3.85 0.05,-5.46c1.92,-3.18 8,-1.33 10,-4.47a3.34,3.34 0 0 0 0.5,-1.81c0.03,-0.14 0.04,-0.2 0.04,-0.27zm-97.11,25.78c-0.11,1.79 2.35,16.17 4.35,27.55c-1.64,-7.09 -4.93,-14.66 -11.41,-19.85c0,0 0,-0.36 -0.08,-1l0.08,0s-0.27,-2.86 -0.31,-6.93a76.34,76.34 0 0 1 0.8,-10.78l0,-0.09l-0.13,0c0,-0.3 0.08,-0.61 0.13,-0.91a32.5,32.5 0 0 1 2.43,-8.74a24.23,24.23 0 0 1 1.85,-3.14c1.07,9.67 2.39,22.08 2.29,23.89zm5.38,33.32c0.88,4.91 1.51,8.36 1.51,8.36l5.31,36.46l0,0.17c-2.86,-15.39 -6.51,-31.61 -6.51,-31.61a63,63 0 0 0 -0.31,-13.38z" transform="translate(-49.99 -44.29)" fill="url(#785c60ff-874e-47fc-85e9-4f7317d8d736-906)" id="svg_6"/>
  <path d="m843.83,324.6c-1,-9.24 -11,-17.21 -8,-26c1.63,-4.79 6.73,-7.72 8.45,-12.48c1.14,-3.14 0.63,-6.59 0.64,-9.93s0.79,-7.07 3.57,-8.92c6,-4 13.72,4.23 20.72,2.55a36.67,36.67 0 0 0 4.93,-2.1c8.17,-3.25 17.41,2.67 22,10.15s6.31,16.4 10.25,24.26a19.9,19.9 0 0 0 6.06,7.71c2.72,1.88 6.44,2.59 9.38,1.09l11.45,25.5c3,6.57 6.44,13.69 13,16.58c2.94,1.29 6.22,1.58 9.26,2.63a20,20 0 0 1 13,15.15c0.39,2.24 0.4,4.56 1.19,6.69c2.55,6.88 11.32,8.42 17.71,12a24.77,24.77 0 0 1 9,8.71c1,1.73 1.86,4 0.79,5.7c-1.93,3.12 -7.8,1.28 -9.66,4.45c-0.94,1.6 -0.28,3.6 0,5.44c0.91,7.41 -7.62,14.2 -14.64,11.66c-0.85,4.77 -2,10 -5.86,12.89c-4.15,3.1 -10.3,2.28 -14.49,-0.76s-6.73,-7.85 -8.55,-12.7c-2.21,-5.9 -3.86,-12.56 -8.89,-16.35c-1.82,-1.36 -4,-2.24 -5.78,-3.61c-4,-3.06 -6,-8.11 -7.43,-13c-1.85,-6.1 -3.32,-12.37 -6,-18.13s-6.92,-11.12 -12.73,-13.75c-5.45,-2.45 -11.73,-2.29 -17.36,-4.28c-9.69,-3.42 -16.86,-11.57 -26.5,-15.41a42.89,42.89 0 0 1 -8.7,-4.92c-4.85,-3.19 -6.17,-5.04 -6.81,-10.82z" fill="#3f3d56" id="svg_7"/>
  <g opacity="0.1" id="svg_8">
   <path d="m844.73,284.16a10.12,10.12 0 0 0 0.54,-1.21c1.13,-3.14 0.63,-6.59 0.64,-9.93a17.84,17.84 0 0 1 0.31,-3.32a14,14 0 0 0 -1.31,6.32c-0.01,2.69 0.31,5.51 -0.18,8.14z" id="svg_9"/>
   <path d="m968.01,435.19c-4.15,3.09 -10.3,2.28 -14.49,-0.77s-6.74,-7.84 -8.51,-12.71c-2.21,-5.9 -3.85,-12.56 -8.89,-16.35c-1.81,-1.36 -4,-2.25 -5.77,-3.61c-4,-3.06 -6,-8.11 -7.44,-12.95c-1.85,-6.1 -3.31,-12.37 -6,-18.13s-6.91,-11.12 -12.73,-13.75c-5.44,-2.45 -11.72,-2.29 -17.35,-4.28c-9.7,-3.42 -16.87,-11.57 -26.5,-15.41a43.45,43.45 0 0 1 -8.71,-4.92c-4.74,-3.27 -6,-5.12 -6.7,-10.89c-1,-8.66 -9.8,-16.21 -8.43,-24.37a12.68,12.68 0 0 0 -0.59,1.36c-3,8.8 7,16.77 8,26c0.65,5.77 2,7.62 6.7,10.89a43.45,43.45 0 0 0 8.71,4.92c9.63,3.84 16.8,12 26.5,15.41c5.63,2 11.91,1.83 17.35,4.28c5.82,2.63 10,8 12.73,13.75s4.19,12 6,18.13c1.47,4.84 3.4,9.89 7.44,12.95c1.81,1.36 4,2.25 5.77,3.61c5,3.79 6.68,10.45 8.89,16.35c1.82,4.85 4.37,9.65 8.56,12.69s10.34,3.86 14.49,0.77c2.65,-2 4,-5.05 4.89,-8.32a12.28,12.28 0 0 1 -3.92,5.35z" id="svg_10"/>
   <path d="m988.56,405.2a4.21,4.21 0 0 0 -0.48,2.34c2.26,-2.23 7.36,-0.92 9.14,-3.79a3.65,3.65 0 0 0 0.46,-2.35c-2.32,2.2 -7.42,0.89 -9.12,3.8z" id="svg_11"/>
   <path d="m973.87,422.3c-0.19,1 -0.38,2.07 -0.62,3.11c6.12,1.91 13.19,-3 14.19,-9.2c-2.43,4.77 -8.43,7.96 -13.57,6.09z" id="svg_12"/>
  </g>
  <path d="m856.75,329.41s3.33,6.72 -6.5,6.86s6.33,43.64 6.33,43.64l16.34,20.8l20.33,-11l1.17,-30.34l1.5,-18.33s-19,-6.17 -15.5,-14.33s-23.67,2.7 -23.67,2.7z" fill="#fbbebe" id="svg_13"/>
  <path d="m915.76,506.77s12,11.81 26,-3.86l-10.75,-11.41l-13.6,0l-1.65,15.27z" fill="#575a89" id="svg_14"/>
  <path d="m917.06,491.5l-1.65,15.27s12,11.81 26,-3.86" opacity="0.1" id="svg_15"/>
  <path d="m937.25,493.58s4.83,12.67 8.33,16.5s9,30.33 1.67,27.33s-21.33,-25.33 -22.17,-29.16s-1.16,-14.67 -1.16,-14.67l13.33,0z" fill="#fbbebe" id="svg_16"/>
  <polygon points="832.42 558.58 897.08 561.08 889.58 533.74 857.01 533.08 832.42 558.58" fill="#575a89" id="svg_17"/>
  <polygon points="841.41 558.58 906.08 561.08 898.58 533.74 866 533.08 841.41 558.58" opacity="0.1" id="svg_18"/>
  <path d="m853.58,603.71c-1.53,2.85 -0.94,12.71 -0.25,20c0.44,4.64 0.92,8.21 0.92,8.21s-24.17,7.5 -27.83,1c-0.93,-1.65 -1.39,-4.54 -1.55,-7.93c-0.5,-10 1.55,-24.41 1.55,-24.41s-1,-22.16 -1.5,-24.33c-0.2,-0.87 -0.51,-3.63 -0.81,-6.62c-0.44,-4.44 -0.86,-9.38 -0.86,-9.38l33,-17.5s0,3.28 -0.06,8.33c-0.18,15.86 -0.71,49.13 -2.61,52.63z" fill="#fbbebe" id="svg_19"/>
  <path d="m854.25,631.92s-24.17,7.5 -27.83,1c-0.93,-1.65 -1.39,-4.54 -1.55,-7.93c5,-0.76 20.22,-2.86 28.46,-1.28c0.44,4.64 0.92,8.21 0.92,8.21z" opacity="0.1" id="svg_20"/>
  <path d="m855.08,757.92l-0.38,0c-2.91,0.11 -19.45,0 -19.45,0a9,9 0 0 1 -0.68,-0.8a13.64,13.64 0 0 1 -2.15,-13.2c3,-8.17 3.33,-23.17 3.33,-23.17s1.17,-3.83 0.17,-6s-0.34,-5.5 -0.34,-5.5a14.25,14.25 0 0 0 -1,-3.83c-0.83,-2 0.17,-5.67 0.17,-5.67a42.45,42.45 0 0 0 -1.67,-10.5c-1.5,-4.33 -12.5,-55.83 -9.83,-62c0,0 23.33,-4 32.17,-1l-1.17,40s-4.17,12 -0.67,15.17s0.17,13 0.17,13s-0.5,1.83 2.5,8s0,9 0,9l0,11.83s-2.33,8 0.33,14.5s-0.33,19.96 -1.5,20.17z" fill="#3f3d56" id="svg_21"/>
  <path d="m900.87,603.71c-1.53,2.85 -0.94,12.71 -0.25,20c0.44,4.64 0.92,8.21 0.92,8.21s-24.17,7.5 -27.83,1c-0.93,-1.65 -1.39,-4.54 -1.55,-7.93c-0.5,-10 1.55,-24.41 1.55,-24.41s-1,-22.16 -1.5,-24.33c-0.27,-1.17 -0.74,-12.33 -1.11,-22.34c-0.31,-8.54 -0.56,-16.26 -0.56,-16.26l33,5.1s0,14.51 -0.41,29.42c-0.36,14.46 -1.03,29.28 -2.26,31.54z" fill="#fbbebe" id="svg_22"/>
  <path d="m901.54,631.92s-24.17,7.5 -27.83,1c-0.93,-1.65 -1.39,-4.54 -1.55,-7.93c5,-0.76 20.22,-2.86 28.46,-1.28c0.44,4.64 0.92,8.21 0.92,8.21z" opacity="0.1" id="svg_23"/>
  <path d="m902.37,757.92l-0.38,0c-2.91,0.11 -19.45,0 -19.45,0a9,9 0 0 1 -0.68,-0.8a13.64,13.64 0 0 1 -2.15,-13.2c3,-8.21 3.3,-23.21 3.3,-23.21s1.17,-3.83 0.17,-6s-0.34,-5.5 -0.34,-5.5a14.25,14.25 0 0 0 -1,-3.83c-0.83,-2 0.17,-5.67 0.17,-5.67a42.45,42.45 0 0 0 -1.67,-10.5c-1.5,-4.33 -12.5,-55.83 -9.83,-62c0,0 23.33,-4 32.17,-1l-1.17,40s-4.17,12 -0.67,15.17s0.17,13 0.17,13s-0.5,1.83 2.5,8s0,9 0,9l0,11.83s-2.33,8 0.33,14.5s-0.3,20 -1.47,20.21z" fill="#3f3d56" id="svg_24"/>
  <circle cx="869.75" cy="313.77" r="23.5" opacity="0.1" id="svg_25"/>
  <circle cx="869.75" cy="312.77" r="23.5" fill="#fbbebe" id="svg_26"/>
  <path d="m823.25,560.25l33,-17.5s0,3.28 -0.06,8.33c-4.82,2.88 -12.09,7.21 -19.08,11.3c-3.8,2.23 -7.51,4.39 -10.69,6.2a14.2,14.2 0 0 1 -2.31,1c-0.44,-4.39 -0.86,-9.33 -0.86,-9.33z" opacity="0.1" id="svg_27"/>
  <path d="m903.54,542.71s0,14.51 -0.41,29.42l-0.12,0a55.48,55.48 0 0 1 -7.39,-0.23c-4.31,-0.46 -7.76,-1.6 -9,-3.86c-2.51,-4.4 -9.54,-10 -15.48,-14.17c-0.31,-8.54 -0.56,-16.26 -0.56,-16.26l32.96,5.1z" opacity="0.1" id="svg_28"/>
  <path d="m897.4,416.62a95.17,95.17 0 0 0 -0.48,19.63c15.16,12.5 12.33,38.83 12.33,38.83s11.67,53.34 9.17,58.17s5.66,34.5 5.66,34.5a145.51,145.51 0 0 1 -21.07,2.42a55.48,55.48 0 0 1 -7.39,-0.23c-4.31,-0.46 -7.76,-1.6 -9,-3.86c-4.66,-8.16 -24.83,-20.33 -24.83,-20.33s-12.78,7.66 -24.68,14.63c-3.8,2.23 -7.51,4.39 -10.69,6.2a19.84,19.84 0 0 1 -8.35,2.29c-14.15,1.05 -33,-7.81 -30,-10.95c3.67,-3.84 21.84,-71.17 21.84,-71.17s9.16,-41.67 17.16,-47.5a8.65,8.65 0 0 0 3,-4.19c2.74,-7.61 -1.84,-19.81 -1.84,-19.81s-25.83,-31.83 -24.67,-33.67s1.17,-11.66 1.17,-11.66s3.17,-15.5 5,-23s15,-9.34 18.83,-8.67s12.49,3 16.15,0s9.84,1.17 9.84,1.17l15.18,4.18l13.65,-8s13.68,0.7 14.85,2.53s19.17,5.34 19.17,5.34c9.16,6.16 8.83,35.5 8.83,35.5s-22,19.16 -26.5,29a33.06,33.06 0 0 0 -2.33,8.65z" fill="#575a89" id="svg_29"/>
  <path d="m921.25,373.91l5,4l5.17,46.5l5.16,46.67s2,4.67 3.67,4.17s1.5,27.66 1.5,27.66s-19.14,-11.77 -26,3.86l-5.34,-37.69s-6.84,-38.5 -6.67,-41.5s-3.5,-35.5 -3.5,-35.5l21.01,-18.17z" fill="#575a89" id="svg_30"/>
  <path d="m807.25,376.08l-3.67,4.5s0.34,19.33 -2.5,24s7.84,32 11.84,30.33s13,-44.33 13,-44.83s-18.67,-14 -18.67,-14z" fill="#575a89" id="svg_31"/>
  <path d="m806.92,403.58s-11.67,11.83 -10.84,17.5s12,23.48 28,13.91c0,0 14.84,-27.91 -17.16,-31.41z" fill="#575a89" id="svg_32"/>
  <path d="m854.7,757.95c-2.91,0.11 -19.45,0 -19.45,0a9,9 0 0 1 -0.68,-0.8c4.23,-1.44 13.37,-3.6 20.13,0.8z" opacity="0.1" id="svg_33"/>
  <path d="m902.01,757.95c-2.91,0.11 -19.45,0 -19.45,0a9,9 0 0 1 -0.68,-0.8c4.21,-1.44 13.35,-3.6 20.13,0.8z" opacity="0.1" id="svg_34"/>
  <path d="m838.29,464.82c-2.55,24.46 -1.71,73 -1.18,94.56c-3.8,2.23 -7.51,4.39 -10.69,6.2a19.84,19.84 0 0 1 -8.35,2.29c-1.06,-6.52 13.62,-73.49 20.22,-103.05z" opacity="0.1" id="svg_35"/>
  <path d="m841.41,450.94c-0.07,0.35 -1.28,5.67 -3.12,13.88c0.72,-7.01 1.72,-12.04 3.12,-13.88z" opacity="0.1" id="svg_36"/>
  <path d="m882.01,448.3s14.17,89 -27.79,100c-0.01,-0.04 29.03,-4.45 27.79,-100z" opacity="0.1" id="svg_37"/>
  <path d="m903.01,569.17a55.48,55.48 0 0 1 -7.39,-0.23l-11.32,-121.69c7.22,4.72 15.86,91.08 18.71,121.92z" opacity="0.1" id="svg_38"/>
  <path d="m852.25,298.95a6.19,6.19 0 0 1 2.23,0.23a9.73,9.73 0 0 1 2.82,2.12a10.05,10.05 0 0 0 9.54,1.85a12.58,12.58 0 0 1 3.59,-1c1.91,0 3.56,1.4 4.55,3s1.5,3.5 2.35,5.21s2.21,3.33 4.08,3.75a7.14,7.14 0 0 1 2.6,0.6a3.68,3.68 0 0 1 1.12,1.55c1.56,3.37 2.8,7.35 6.13,9a9.17,9.17 0 0 0 3.91,0.85a8.17,8.17 0 0 0 4,-0.72a7.66,7.66 0 0 0 2.94,-2.93c2.08,-3.44 2.32,-7.7 1.83,-11.69a32.16,32.16 0 0 0 -5.23,-14.06a29.35,29.35 0 0 0 -26.85,-12.39a37.42,37.42 0 0 0 -5.35,1c-6.36,1.7 -12.6,4.88 -16.46,10.21a34.64,34.64 0 0 1 -3.07,3.78c1.75,-0.17 3.51,-0.32 5.27,-0.36z" opacity="0.1" id="svg_39"/>
  <path d="m852.25,297.95a6.19,6.19 0 0 1 2.23,0.23a9.73,9.73 0 0 1 2.82,2.12a10.05,10.05 0 0 0 9.54,1.85a12.58,12.58 0 0 1 3.59,-1c1.91,0 3.56,1.4 4.55,3s1.5,3.5 2.35,5.21s2.21,3.33 4.08,3.75a7.14,7.14 0 0 1 2.6,0.6a3.68,3.68 0 0 1 1.12,1.55c1.56,3.37 2.8,7.35 6.13,9a9.17,9.17 0 0 0 3.91,0.85a8.17,8.17 0 0 0 4,-0.72a7.66,7.66 0 0 0 2.94,-2.93c2.08,-3.44 2.32,-7.7 1.83,-11.69a32.16,32.16 0 0 0 -5.23,-14.06a29.35,29.35 0 0 0 -26.85,-12.39a37.42,37.42 0 0 0 -5.35,1c-6.36,1.7 -12.6,4.88 -16.46,10.21a34.64,34.64 0 0 1 -3.07,3.78c1.75,-0.17 3.51,-0.32 5.27,-0.36z" fill="#3f3d56" id="svg_40"/>
  <path d="m826.75,353.91s1.17,9.34 -2.83,11.67s2.83,-11.67 2.83,-11.67z" opacity="0.1" id="svg_41"/>
  <path d="m911.58,426.25s9.5,-14 10.84,-10s-10.84,10 -10.84,10z" opacity="0.1" id="svg_42"/>
  <path d="m912.25,430.91s9.37,-11.5 10.27,-7s-10.27,7 -10.27,7z" opacity="0.1" id="svg_43"/>
  <path d="m884.73,417.22a15.21,15.21 0 0 1 -9.42,-3.1l-0.82,0a14.8,14.8 0 0 1 -10.29,3.87a14.6,14.6 0 0 1 -10.67,-4.28l-1.09,0a15.71,15.71 0 0 1 -20.28,-0.37l-3.91,-0.07s4.58,12.2 1.84,19.81l66.83,1.19a95.17,95.17 0 0 1 0.48,-19.63l0,-0.09l-3.67,-0.07a15.38,15.38 0 0 1 -9,2.74z" opacity="0.1" id="svg_44"/>
  <path d="m884.73,419.22a15.21,15.21 0 0 1 -9.42,-3.1l-0.82,0a14.8,14.8 0 0 1 -10.29,3.87a14.6,14.6 0 0 1 -10.67,-4.28l-1.09,0a15.71,15.71 0 0 1 -20.28,-0.37l-3.91,-0.07s4.58,12.2 1.84,19.81l66.83,1.19a95.17,95.17 0 0 1 0.48,-19.63l0,-0.09l-3.67,-0.07a15.38,15.38 0 0 1 -9,2.74z" opacity="0.1" id="svg_45"/>
  <path d="m884.73,418.22a15.21,15.21 0 0 1 -9.42,-3.1l-0.82,0a14.8,14.8 0 0 1 -10.29,3.87a14.6,14.6 0 0 1 -10.67,-4.28l-1.09,0a15.71,15.71 0 0 1 -20.28,-0.37l-3.91,-0.07s4.58,12.2 1.84,19.81l66.83,1.19a95.17,95.17 0 0 1 0.48,-19.63l0,-0.09l-3.67,-0.07a15.38,15.38 0 0 1 -9,2.74z" fill="#3f3d56" id="svg_46"/>
  <path d="m881.76,351.54s14.07,0.9 14.16,2.9s-14.16,-2.9 -14.16,-2.9z" opacity="0.1" id="svg_47"/>
  <path d="m847.58,343.01s-14.07,0.9 -14.16,2.9s14.16,-2.9 14.16,-2.9z" opacity="0.1" id="svg_48"/>
  <path d="m901.35,383.9c-0.14,-0.1 -0.28,-0.18 -0.42,-0.27c3.6,3.24 3,10.32 -1.42,16.16s-11.13,8.27 -15.21,5.65c0.13,0.11 0.24,0.23 0.38,0.34c4,3.06 11,0.66 15.62,-5.38s5.07,-13.43 1.05,-16.5z" opacity="0.1" id="svg_49"/>
  <path d="m824.06,399.04c-3.56,-6.42 -3.1,-13.51 0.93,-16.2c-0.15,0.07 -0.31,0.13 -0.46,0.21c-4.42,2.46 -5,9.83 -1.34,16.47s10.26,10 14.68,7.58a3.83,3.83 0 0 0 0.42,-0.28c-4.41,2 -10.67,-1.36 -14.23,-7.78z" opacity="0.1" id="svg_50"/>
  <path d="m828.82,344.9l0,0l-1.29,2l-3.29,-1.75l1.73,-2.66a7.25,7.25 0 0 1 2.85,2.41z" opacity="0.1" id="svg_51"/>
  <path d="m807.92,418.91s2.93,-13.78 -1,-18.16s-2.67,-27.34 3.33,-26.84s15,18.66 13.5,22.5s-7.17,23.5 -7.17,23.5l-8.66,-1z" fill="#fbbebe" id="svg_52"/>
  <path d="m902.01,319.49a7.66,7.66 0 0 1 -2.94,2.93a8.17,8.17 0 0 1 -4,0.72a9.17,9.17 0 0 1 -3.91,-0.85c-3.33,-1.66 -4.57,-5.64 -6.13,-9a3.68,3.68 0 0 0 -1.02,-1.58a7.14,7.14 0 0 0 -2.57,-0.63c-1.87,-0.42 -3.22,-2.05 -4.08,-3.75s-1.37,-3.58 -2.35,-5.21s-2.64,-3.06 -4.55,-3a12.29,12.29 0 0 0 -3.59,1.05a10.08,10.08 0 0 1 -9.54,-1.86a9.73,9.73 0 0 0 -2.82,-2.12a6.19,6.19 0 0 0 -2.23,-0.23c-1.15,0 -2.29,0.11 -3.44,0.2a25.14,25.14 0 0 1 -1.83,2.14c1.75,-0.15 3.51,-0.3 5.27,-0.34a6.19,6.19 0 0 1 2.23,0.23a9.73,9.73 0 0 1 2.82,2.12a10.08,10.08 0 0 0 9.54,1.86a12.29,12.29 0 0 1 3.59,-1.05c1.91,0 3.56,1.4 4.55,3s1.5,3.5 2.35,5.21s2.21,3.33 4.08,3.75a7.14,7.14 0 0 1 2.57,0.63a3.68,3.68 0 0 1 1.12,1.55c1.56,3.37 2.8,7.35 6.13,9a9.17,9.17 0 0 0 3.91,0.85a8.17,8.17 0 0 0 4,-0.72a7.66,7.66 0 0 0 2.94,-2.93a16.59,16.59 0 0 0 2,-9.26a15.28,15.28 0 0 1 -2.1,7.29z" opacity="0.1" id="svg_53"/>
  <ellipse cx="812.35" cy="423.74" rx="9" ry="6.1" fill="#575a89" id="svg_54"/>
  <circle cx="518.99" cy="454.79" r="308.5" fill="#06bde1" id="svg_55"/>
  <path d="m680.86,609.82c0,48.7 -76.56,4.16 -158.64,4.16s-165.1,42.7 -165.1,-6c0,-27.77 26.46,-66.39 64.42,-94.44l0,0c28.6,-21.14 63.72,-36.28 99,-36.28c36.28,0 71.82,16.39 100.17,38.89c35.78,28.37 60.15,66.49 60.15,93.67z" fill="#444053" id="svg_56"/>
  <path d="m620.7,516.13c-43.63,-6.57 -122.54,-14.58 -199.16,-2.61c28.6,-21.14 63.72,-36.28 99,-36.28c36.27,0 71.81,16.39 100.16,38.89z" fill="#f6f8fb" id="svg_57"/>
  <path d="m357.12,237.02s-92.93,59.41 -92.17,152.34s92.17,-152.34 92.17,-152.34z" opacity="0.05" id="svg_58"/>
  <path d="m827.37,68.23s-84.2,-5.07 -74.27,53.93c0,0 -2,10.42 7.48,15.16c0,0 0.15,-4.37 8.63,-2.89a39,39 0 0 0 9.15,0.44a19,19 0 0 0 11.18,-4.62l0,0s23.67,-9.77 32.88,-48.46c0,0 6.81,-8.44 6.54,-10.6l-14.21,6.06s4.85,10.25 1,18.77c0,0 -0.46,-18.39 -3.19,-18c-0.55,0.09 -7.38,3.55 -7.38,3.55s8.35,17.86 2,30.83c0,0 2.39,-22 -4.66,-29.54l-10,5.84s9.76,18.44 3.14,33.49c0,0 1.7,-23.08 -5.24,-32.07l-9.07,7.07s9.17,18.18 3.58,30.66c0,0 -0.73,-26.87 -5.54,-28.9c0,0 -7.93,7 -9.14,9.87c0,0 6.28,13.19 2.39,20.15c0,0 -2.39,-17.9 -4.35,-18c0,0 -7.9,11.86 -8.73,20c0,0 0.35,-12.1 6.81,-21.13c0,0 -7.64,1.31 -12.09,6.27c0,0 1.23,-8.39 14,-9.12c0,0 6.53,-9 8.28,-9.54c0,0 -12.75,-1.07 -20.48,2.36c0,0 6.8,-7.91 22.81,-4.32l9,-7.3s-16.78,-2.3 -23.9,0.24c0,0 8.19,-7 26.31,-1.9l9.75,-5.83s-14.31,-3.08 -22.84,-2c0,0 9,-4.85 25.69,0.41l7,-3.13s-10.49,-2.06 -13.56,-2.38s-3.23,-1.18 -3.23,-1.18a36.35,36.35 0 0 1 19.73,2.29s14.78,-5.55 14.53,-6.48z" fill="#ff4d00" id="svg_59"/>
  <path d="m741.01,43s-38,-2.3 -33.56,24.36c0,0 -0.89,4.71 3.38,6.85c0,0 0.06,-2 3.9,-1.3a18.06,18.06 0 0 0 4.13,0.2a8.69,8.69 0 0 0 5.06,-2.09l0,0s10.69,-4.42 14.85,-21.9c0,0 3.08,-3.81 3,-4.79l-6.42,2.74s2.2,4.63 0.47,8.48c0,0 -0.21,-8.31 -1.44,-8.11c-0.25,0 -3.34,1.6 -3.34,1.6s3.78,8.07 0.93,13.93c0,0 1.08,-9.94 -2.1,-13.35l-4.52,2.64s4.41,8.34 1.42,15.14c0,0 0.76,-10.43 -2.37,-14.49l-4.1,3.19s4.14,8.21 1.62,13.85c0,0 -0.33,-12.14 -2.51,-13.06c0,0 -3.58,3.16 -4.13,4.46c0,0 2.84,6 1.08,9.11c0,0 -1.08,-8.09 -2,-8.12c0,0 -3.57,5.35 -3.94,9a19.48,19.48 0 0 1 3.07,-9.55a10.71,10.71 0 0 0 -5.46,2.83s0.55,-3.79 6.34,-4.12c0,0 2.95,-4.06 3.74,-4.31c0,0 -5.76,-0.48 -9.25,1.07c0,0 3.07,-3.58 10.31,-2l4,-3.29s-7.58,-1 -10.8,0.1c0,0 3.7,-3.16 11.89,-0.85l4.4,-2.64s-6.46,-1.39 -10.32,-0.89c0,0 4.07,-2.19 11.61,0.19l3.15,-1.42s-4.74,-0.93 -6.12,-1.07s-1.47,-0.53 -1.47,-0.53a16.39,16.39 0 0 1 8.9,1s6.71,-2.44 6.6,-2.86z" fill="#b23500" id="svg_60"/>
  <ellipse cx="1073.09" cy="725.46" rx="26.93" ry="4.55" fill="#06bde1" opacity="0.1" id="svg_61"/>
  <ellipse cx="46.77" cy="801.15" rx="26.93" ry="4.55" fill="#06bde1" opacity="0.1" id="svg_62"/>
  <ellipse cx="203.1" cy="806.86" rx="26.93" ry="4.55" fill="#06bde1" opacity="0.1" id="svg_63"/>
  <ellipse cx="1014.15" cy="774.22" rx="40.21" ry="6.8" fill="#048489" id="svg_64"/>
  <path d="m1030.77,762.11a11.73,11.73 0 0 0 3.84,-5.79c0.49,-2.29 -0.49,-5.05 -2.68,-5.89c-2.46,-0.94 -5.09,0.77 -7.08,2.49s-4.28,3.68 -6.89,3.32a10.47,10.47 0 0 0 3.24,-9.81a4.12,4.12 0 0 0 -0.9,-2c-1.37,-1.46 -3.84,-0.84 -5.48,0.31c-5.2,3.66 -6.65,10.72 -6.68,17.08c-0.52,-2.29 -0.08,-4.68 -0.09,-7s-0.66,-5 -2.64,-6.23a8,8 0 0 0 -4,-0.94c-2.34,-0.09 -4.94,0.14 -6.54,1.85c-2,2.13 -1.47,5.69 0.26,8s4.35,3.81 6.76,5.42a15,15 0 0 1 4.84,4.61a4.83,4.83 0 0 1 0.36,0.83l14.65,0a40.77,40.77 0 0 0 9.03,-6.25z" fill="#06bde1" id="svg_65"/>
  <path d="m59.34,679.26s5.49,7.18 -2.54,18s-14.65,20 -12,26.76c0,0 12.11,-20.14 22,-20.43s3.38,-12.22 -7.46,-24.33z" fill="#048489" id="svg_66"/>
  <path d="m59.34,679.26a9,9 0 0 1 1.12,2.25c9.62,11.3 14.74,21.85 5.5,22.11c-8.62,0.25 -19,15.65 -21.43,19.54a9.3,9.3 0 0 0 0.3,0.89s12.11,-20.14 22,-20.43s3.35,-12.25 -7.49,-24.36z" opacity="0.1" id="svg_67"/>
  <path d="m69.55,688.41c0,2.53 -0.29,4.58 -0.64,4.58s-0.63,-2 -0.63,-4.58s0.35,-1.34 0.71,-1.34s0.56,-1.19 0.56,1.34z" fill="#ffd037" id="svg_68"/>
  <path d="m73.01,691.43c-2.22,1.21 -4.15,1.94 -4.32,1.63s1.5,-1.53 3.72,-2.74s1.34,-0.33 1.51,0s1.35,-0.1 -0.91,1.11z" fill="#ffd037" id="svg_69"/>
  <path d="m30.32,679.26s-5.49,7.18 2.53,18s14.65,20 12,26.76c0,0 -12.12,-20.14 -22,-20.43s-3.38,-12.22 7.47,-24.33z" fill="#048489" id="svg_70"/>
  <path d="m30.32,679.26a8.63,8.63 0 0 0 -1.12,2.25c-9.62,11.3 -14.75,21.85 -5.5,22.11c8.61,0.25 19,15.65 21.42,19.54a9.24,9.24 0 0 1 -0.29,0.89s-12.12,-20.14 -22,-20.43s-3.36,-12.25 7.49,-24.36z" opacity="0.1" id="svg_71"/>
  <path d="m20.11,688.41c0,2.53 0.28,4.58 0.63,4.58s0.63,-2 0.63,-4.58s-0.35,-1.34 -0.7,-1.34s-0.56,-1.19 -0.56,1.34z" fill="#ffd037" id="svg_72"/>
  <path d="m16.6,691.43c2.22,1.21 4.16,1.94 4.33,1.63s-1.5,-1.53 -3.72,-2.74s-1.35,-0.33 -1.51,0s-1.32,-0.1 0.9,1.11z" fill="#ffd037" id="svg_73"/>
  <path d="m21.86,723.11s15.36,-0.47 20,-3.77s23.63,-7.23 24.78,-2s23.08,26.3 5.74,26.44s-40.29,-2.71 -44.91,-5.52s-5.61,-15.15 -5.61,-15.15z" fill="#a8a8a8" id="svg_74"/>
  <path d="m72.67,741.99c-17.34,0.14 -40.29,-2.71 -44.91,-5.52c-3.52,-2.14 -4.92,-9.83 -5.39,-13.38l-0.51,0s1,12.39 5.59,15.2s27.57,5.66 44.91,5.52c5,0 6.73,-1.83 6.64,-4.46c-0.7,1.61 -2.6,2.61 -6.33,2.64z" opacity="0.2" id="svg_75"/>
  <path d="m409.31,414.34c5.87,-0.33 33.5,-2.41 51.05,-12.42a19.89,19.89 0 0 1 9.27,-2.73c5.58,-0.16 12,2.17 7.89,15.21c-6.66,21.33 -45.33,45.33 -69.33,44c-23.08,-1.28 -50.46,-10.58 -68.54,-43.28a20,20 0 0 1 -2.47,-10.29c0.21,-6.6 2.61,-14.87 15,-5.65c16.74,12.45 48.5,14.81 54.87,15.16a21.11,21.11 0 0 0 2.26,0z" fill="#444053" id="svg_76"/>
  <path d="m631.31,414.34c5.87,-0.33 33.5,-2.41 51.05,-12.42a19.89,19.89 0 0 1 9.27,-2.73c5.58,-0.16 12,2.17 7.89,15.21c-6.66,21.33 -45.33,45.33 -69.33,44c-23.08,-1.28 -50.46,-10.58 -68.54,-43.28a20,20 0 0 1 -2.47,-10.29c0.21,-6.6 2.61,-14.87 15,-5.65c16.74,12.45 48.5,14.81 54.87,15.16a21.11,21.11 0 0 0 2.26,0z" fill="#444053" id="svg_77"/>
 </g>
</svg>