<svg width="637.67004" height="652.45733" xmlns="http://www.w3.org/2000/svg" data-name="Layer 1">

 <g>
  <title>Layer 1</title>
  <path id="svg_1" fill="#ccc" d="m637.67002,651.26733a1.18647,1.18647 0 0 1 -1.19006,1.19l-635.28994,0a1.19,1.19 0 0 1 0,-2.38l635.29,0a1.18651,1.18651 0 0 1 1.19,1.19z"/>
  <path id="svg_2" fill="#06bde1" d="m517.09602,29.47752a24.78979,24.78979 0 0 0 -5.62,-11.8a47.50217,47.50217 0 0 0 -67.04,-4.32995l-0.4,0.36a48.45962,48.45962 0 0 0 -77.96,15a45.14609,45.14609 0 0 0 2.03,40.99a47.43088,47.43088 0 0 0 5.59,7.82c2.19,2.5 61.31,68.27 61.9,68.93a0.74652,0.74652 0 0 0 0.57,0.26c0.01995,0 0.05,-0.01 0.07995,-0.01a0.267,0.267 0 0 0 0.12006,-0.03a0.7656,0.7656 0 0 0 0.47,-0.34l0.31,-0.51l0.37,-0.63l5.47,-9.14c15.17,-25.35 35.62,-49.27 60.79,-71.09a39.02957,39.02957 0 0 0 4.49,-4.6a40.469,40.469 0 0 0 9.3,-22.76a31.92511,31.92511 0 0 0 -0.47001,-8.12005z"/>
  <path id="svg_3" fill="#f2f2f2" d="m245.85936,543.6342l11.13406,-36.26067a122.38627,122.38627 0 0 0 -48.92087,-32.776c18.30066,30.31875 0.56729,69.87 7.957,104.50429a73.61565,73.61565 0 0 0 39.42959,50.16736l16.896,20.93476a123.35654,123.35654 0 0 0 9.06662,-102.88786a119.15587,119.15587 0 0 0 -13.79674,-26.51807c-10.04034,11.80359 -21.76566,22.83619 -21.76566,22.83619z"/>
  <path id="svg_4" fill="#f2f2f2" d="m184.63794,548.26717l-6.20611,-37.42042a122.38639,122.38639 0 0 0 -58.40373,-7.51814c29.90145,18.97483 31.66844,62.28363 53.7288,89.98709a73.6156,73.6156 0 0 0 57.66483,27.31708l24.45913,11.20221a123.35653,123.35653 0 0 0 -37.771,-96.13254a119.1558,119.1558 0 0 0 -24.17522,-17.58171c-3.72237,15.04252 -9.2967,30.14643 -9.2967,30.14643z"/>
  <polygon id="svg_5" fill="#ffb6b6" points="306.87 302.876 303.796 310.026 308.82 335.422 360.075 328.295 359.666 297.329 358.637 290.546 306.87 302.876"/>
  <polygon id="svg_6" fill="#ffb6b6" points="280.389 632.005 291.697 632.005 297.078 588.389 280.389 588.389 280.389 632.005"/>
  <path id="svg_7" fill="#2f2e41" d="m311.93824,642.78584l-17.16971,-11.86231l0,-7.7456l-1.996,0.12473l-12.38393,0.73717l-3.6857,0.21548l-2.27948,27.34221l8.1086,0l1.44021,-7.65492l3.70841,7.65492l21.51311,0a4.8342,4.8342 0 0 0 2.74448,-8.81168l0.00001,0z"/>
  <polygon id="svg_8" fill="#ffb6b6" points="343.907 632.005 355.215 632.005 361.867 567.792 340.619 566.522 343.907 632.005"/>
  <path id="svg_9" fill="#2f2e41" d="m375.45702,642.78584l-17.16971,-11.86231l0,-7.7456l-2.17738,0.12473l-12.59948,0.75981l-3.28874,0.19284l-2.27947,27.34221l8.1085,0l1.44028,-7.65492l3.7084,7.65492l21.51312,0a4.8342,4.8342 0 0 0 2.74448,-8.81168z"/>
  <path id="svg_10" fill="#2f2e41" d="m275.58902,594.39233l0.044,0l2.17473,-70.91863a18.54444,18.54444 0 0 1 0.24332,-17.52412l0.31136,-0.56361l-0.8073,-3.74218a23.83637,23.83637 0 0 1 1.36215,-14.34564l2.02882,-66.15393c-7.24815,-46.97408 27.29438,-77.6088 27.29438,-77.6088l-3.17482,-24.62047l55.87035,1.26979l-0.95036,23.35068l11.1091,38.16821c5.84641,56.95964 6.19416,112.76163 0.21348,167.23118a1.04,1.04 0 0 0 0.06819,0.46a13.90642,13.90642 0 0 1 -1.12309,11.2217a4.24357,4.24357 0 0 0 -0.50587,1.39231c-1.23214,9.549 -1.39259,-2.53 -3.02545,6.93464l0.31771,0.16066c1.144,0.39489 1.63466,1.97966 1.09622,3.53981s-1.90242,2.50478 -3.04642,2.10989l-29.86695,0.31928c-1.144,-0.3948 -1.63484,-1.97966 -1.09622,-3.5398c0.53844,-1.56015 1.90242,-2.5047 3.04642,-2.1099l1.85809,0.93981l-3.10867,-10.17079l-1.08969,-1.01733a4.73667,4.73667 0 0 1 0.60218,-7.40162l0,0l0.90329,-29.52756l0.43976,-12.49986l-0.906,-14.18085l-4.18879,-63.78535l-15.85517,78.438l-16.19528,84.96382a2.96811,2.96811 0 0 1 0.929,2.75281a3.07738,3.07738 0 0 1 -3.06579,2.43469l-21.98568,0a2.99464,2.99464 0 0 1 -2.88387,-3.79109a3.03126,3.03126 0 0 1 2.96287,-2.18575z"/>
  <path id="svg_11" fill="#2f2e41" d="m295.1404,182.20192a27.66159,27.66159 0 1 0 47.57794,-19.18617l-0.13277,-0.13264c-0.22131,-0.23245 -0.44262,-0.46476 -0.675,-0.68614a0.01082,0.01082 0 0 1 -0.011,-0.01107a5.8062,5.8062 0 0 1 -0.87413,-0.78555c-3.73412,-5.21808 -7.968,-9.5935 -18.22345,-6.86c-14.76478,3.93538 -27.66159,12.38124 -27.66159,27.66157z"/>
  <path id="svg_12" fill="#ffb6b6" d="m447.09146,170.36028a10.13236,10.13236 0 0 1 -11.479,10.47017l-71.33755,58.54655l-10.89644,-19.15214l73.54881,-51.527a10.18731,10.18731 0 0 1 20.16421,1.66246l-0.00003,-0.00004z"/>
  <path id="svg_13" fill="#e6e6e6" d="m334.15255,256.64305s2.32373,4.822 11.36246,-2.02746c7.23618,-5.48354 41.78077,-29.1418 49.45438,-39.14245a7.95988,7.95988 0 0 0 9.48943,-2.27619l-18.87351,-18.17158c-5.92257,0.4 -5.98315,4.36308 -5.47577,6.6387l-15.16833,6.02728l-39.50612,22.69718l6.97587,22.79876l1.74159,3.45576z"/>
  <circle id="svg_14" fill="#ffb7b7" r="23.19543" cy="188.60201" cx="329.61699"/>
  <path id="svg_15" fill="#e6e6e6" d="m361.25857,303.65607l0.23818,-12.93968c0.94122,-1.29278 8.83431,-12.57671 7.06518,-23.84928c-0.82784,-5.3074 -3.7084,-9.76426 -8.53952,-13.23455l-3.11867,-7.25795l-4.61563,-10.72825l-13.50665,-8.04046l-1.87123,-3.8105l-1.5423,-3.164l-18.63263,-1.85987l-4.59293,6.18065l-0.09075,0.01135a30.14819,30.14819 0 0 0 -11.62413,5.44348a30.676,30.676 0 0 0 -12.13447,24.47306l0.11344,15.03767l0.02264,2.15467l0.01135,2.08671l11.62413,31.28872l0.4423,1.21345l4.55895,12.25921l-0.7825,1.29284a6.86443,6.86443 0 0 0 1.50825,8.81168l0.5444,7.66627l0.98662,-0.27223l5.61362,-1.56494l42.45927,-11.851a7.71064,7.71064 0 0 0 4.02591,-2.71042a1.65789,1.65789 0 0 0 0.102,-0.14744a4.2666,4.2666 0 0 0 0.4423,-0.66906c0.964,-2.43826 1.066,-3.096 1.07738,-3.77644a9.31192,9.31192 0 0 0 0.45365,-11.72623l-0.23816,-0.31746z"/>
  <path id="svg_16" fill="#2f2e41" d="m305.34196,194.68286c0.21023,-0.03322 0.42046,-0.07752 0.63069,-0.11075c3.61816,-0.6417 7.23625,-1.27233 10.84333,-1.92524l0.332,-8.17664l4.37048,7.32465c9.96924,3.30831 19.29672,1.43845 28.071,-2.68864a79.24916,79.24916 0 0 0 8.40916,-4.636c0.89125,-13.82865 -4.69967,-22.68158 -15.10325,-21.75313c-0.38,0.03391 -0.65277,-0.354 -0.98477,-0.52014a0.01082,0.01082 0 0 1 -0.011,-0.01107c-0.5643,-0.26554 -1.13969,-0.52 -1.71507,-0.75232a25.55056,25.55056 0 0 0 -26.82067,5.20032c-7.08136,6.76061 -10.26798,17.92477 -8.0219,28.04896z"/>
  <path id="svg_17" fill="#2f2e41" d="m320.45502,155.20738a4.29931,4.29931 0 0 1 -3.54962,3.062c-3.11867,3.85583 -6.691,7.93843 -11.5788,8.70958a5.56858,5.56858 0 0 1 -4.07131,-0.70311a2.26049,2.26049 0 0 1 -0.40824,-0.32885c-1.1567,-1.10008 -1.24744,-3.31151 0.12473,-4.13936c-6.1466,2.43826 -9.74155,9.0725 -10.64879,15.616c-0.9073,6.54349 0.35156,13.15509 1.1794,19.71c0.82784,6.55484 1.19075,13.4386 -1.38352,19.52851c-3.03935,7.17863 -10.02514,12.33859 -17.646,13.983c-0.68048,0.14743 -1.36089,0.27216 -2.05272,0.35155a20.94228,20.94228 0 0 0 -3.37948,-8.68695a18.73793,18.73793 0 0 1 -0.80514,8.98182a35.78744,35.78744 0 0 1 -16.40991,-4.24138c-6.90646,-3.64036 -12.65609,-9.19729 -17.36248,-15.42328c8.10857,5.7497 19.31311,7.90445 28.13607,3.35685c7.89309,-4.08266 12.55407,-12.65617 14.59537,-21.29771c2.04129,-8.6529 -6.53856,-19.25425 -5.60862,-28.08856c0.94129,-8.83439 11.5965,-16.33262 17.42552,-23.03489c3.71976,-4.27543 9.20858,-7.43951 14.8676,-6.90647a13.36,13.36 0 0 1 11.70353,16.50059c1.61034,-2.27948 5.77233,-1.78049 6.80437,0.81656a3.36054,3.36054 0 0 1 0.06804,2.2341z"/>
  <path id="svg_18" fill="#fd6584" d="m305.97265,194.57211s6.87117,-25.64775 36.32523,-31.56744c0.03315,-0.01094 0.14384,-0.05524 0.28769,-0.12156c0.08846,-0.05538 0.19915,-0.11075 0.30977,-0.166c-0.33192,-0.18814 -0.65277,-0.354 -0.98477,-0.52014a0.01082,0.01082 0 0 1 -0.011,-0.01107c-0.28769,-0.26554 -0.57538,-0.53108 -0.87415,-0.78555l-0.84092,0.03323s-29.55361,-4.68032 -34.21185,33.13853z"/>
  <path id="svg_19" fill="#2f2e41" d="m379.89286,316.79498a3.91255,3.91255 0 0 0 -3.24327,-2.4564a9.314,9.314 0 0 0 -4.20817,0.60916a32.35941,32.35941 0 0 0 -13.68284,8.89575l0.06355,2.59606a12.42821,12.42821 0 0 0 0.20367,15.58884a7.6633,7.6633 0 0 0 3.97884,2.57575a4.47558,4.47558 0 0 0 4.38525,-1.32224c1.56785,-1.9094 0.81043,-4.78617 -0.34232,-6.9714a25.39877,25.39877 0 0 0 -8.55715,-9.38238a41.1922,41.1922 0 0 0 17.30278,-4.3007a9.75745,9.75745 0 0 0 3.16593,-2.22173a3.92272,3.92272 0 0 0 0.93373,-3.61071z"/>
  <path id="svg_20" fill="#f2f2f2" d="m487.70208,469.54995l-11.22454,0.44414a36.24438,36.24438 0 0 0 -4.36218,16.88442c6.67793,-8.08686 19.46909,-7.00952 28.42282,-12.47055a21.80106,21.80106 0 0 0 10.15273,-15.93743l4.19337,-6.7742a36.53168,36.53168 0 0 0 -29.64035,7.55492a35.28772,35.28772 0 0 0 -6.05748,6.45559c4.28293,1.64833 8.51563,3.84311 8.51563,3.84311z"/>
  <path id="svg_21" fill="#f2f2f2" d="m431.70208,591.54995l-11.22454,0.44414a36.24438,36.24438 0 0 0 -4.36218,16.88442c6.67793,-8.08686 19.46909,-7.00952 28.42282,-12.47055a21.80106,21.80106 0 0 0 10.15273,-15.93743l4.19337,-6.7742a36.53168,36.53168 0 0 0 -29.64035,7.55492a35.28772,35.28772 0 0 0 -6.05748,6.45559c4.28293,1.64833 8.51563,3.84311 8.51563,3.84311z"/>
  <path id="svg_22" fill="#f2f2f2" d="m167.16395,418.81367l-9.51394,-5.97264a36.24434,36.24434 0 0 0 -13.13557,11.47035c10.07814,-2.90228 20.02566,5.21074 30.49895,5.76072a21.80106,21.80106 0 0 0 17.37942,-7.41856l7.2864,-3.22219a36.53168,36.53168 0 0 0 -28.72755,-10.505a35.28781,35.28781 0 0 0 -8.64483,1.90648c2.60359,3.7791 4.85712,7.98084 4.85712,7.98084z"/>
  <path id="svg_23" fill="#3f3d56" d="m447.49902,158.30919c-0.22387,-1.50324 1.4068,-2.57447 2.01685,-3.96643a6.341,6.341 0 0 0 -0.00049,-3.81684c-0.352,-1.68731 -0.75781,-3.47711 -1.97937,-4.69311a8.04033,8.04033 0 0 0 -4.40979,-1.84864a38.64786,38.64786 0 0 0 -11.943,-0.21124l3.00988,0.18311a15.85192,15.85192 0 0 0 -5.61444,0.65149a5.67326,5.67326 0 0 0 -3.76672,3.92291c-0.37238,1.85785 0.898,4.034 2.78613,4.19305a3.64128,3.64128 0 0 0 -1.49334,7.12769c-0.43427,1.17413 -1.72675,1.73633 -2.83307,2.322c-1.10639,0.58575 -2.27063,1.59021 -2.0838,2.82806c0.247,1.63666 2.43426,1.973 4.08789,1.90082l18.00274,-0.78552a9.63029,9.63029 0 0 0 4.4906,-0.9325c1.33448,-0.77832 2.2652,-2.48413 1.64881,-3.90069c-0.47625,-1.09428 -1.74303,-1.7938 -1.91888,-2.97416z"/>
  <path id="svg_24" fill="#3f3d56" d="m238.70758,318.64967c-2.47411,10.86971 -3.65,23.19285 2.94906,32.92a22.60018,22.60018 0 0 0 11.69787,8.86176a33.194,33.194 0 0 0 14.9065,0.9156c11.25543,-1.55938 21.25864,-7.42213 32.32809,-9.69833c4.88493,-1.00448 10.06918,-1.33649 14.77168,0.59669c3.52347,1.44848 7.23465,4.36065 7.25156,8.51474c0.01737,4.26581 -3.6876,7.09707 -7.37228,8.40863c-4.91663,1.75007 -10.02624,1.07274 -15.12595,0.85214c-5.49244,-0.23758 -11.093,0.25908 -15.65586,3.62276a27.22959,27.22959 0 0 0 -8.70142,11.79727c-2.29343,5.5661 -3.22429,11.55034 -4.69076,17.35774a77.07276,77.07276 0 0 1 -5.53231,15.12563a78.35216,78.35216 0 0 1 -19.14374,24.81465c-3.93926,3.39017 -8.72569,6.84394 -14.10564,7.15467c-4.14959,0.23967 -9.19371,-1.50406 -10.79318,-5.707a8.19475,8.19475 0 0 1 3.83658,-9.72918c3.55622,-1.79454 7.42916,0.76542 8.57758,4.279a5.47725,5.47725 0 0 1 -0.57067,4.93908c-1.07829,1.60788 1.51933,3.11129 2.59041,1.51416c2.48685,-3.70824 1.187,-8.69548 -1.85866,-11.66586a8.737,8.737 0 0 0 -11.499,-0.85706a11.3612,11.3612 0 0 0 -4.1531,11.73953c1.27929,4.6166 5.81562,7.55311 10.34564,8.2806c5.5941,0.89838 10.97782,-1.30019 15.49346,-4.47648a69.45318,69.45318 0 0 0 12.26916,-11.333a81.43983,81.43983 0 0 0 16.24638,-29.04895c3.30206,-10.58122 3.54225,-24.55935 13.354,-31.70535c5.04883,-3.67711 11.2352,-3.26928 17.15486,-2.93176c5.22555,0.29795 10.32313,0.24379 15.117,-2.12187c3.95837,-1.95338 7.15208,-5.55889 7.21812,-10.15241c0.06666,-4.63721 -3.22567,-8.36593 -7.10487,-10.47861c-10.24787,-5.58119 -22.55427,-1.08 -32.622,2.64875c-10.12432,3.74971 -21.68375,8.15072 -32.4433,4.20477a20.12461,20.12461 0 0 1 -11.11766,-10.62283c-2.60543,-5.52533 -2.97613,-11.79462 -2.37425,-17.791a77.42686,77.42686 0 0 1 1.64958,-9.43092c0.42785,-1.87972 -2.46384,-2.68225 -2.89284,-0.79752l-0.00004,-0.00004z"/>
  <path id="svg_25" fill="#ffb6b6" d="m288.39302,379.13814a10.13238,10.13238 0 0 1 3.12306,-15.2197l-15.249,-45.14456l12.45169,-47.84133l20.0784,9.07715l-12.39002,36.08537l9.26965,52.52505a10.18731,10.18731 0 0 1 -17.28383,10.518l0.00005,0.00002z"/>
  <path id="svg_26" fill="#e6e6e6" d="m306.7718,231.51399s-4.71583,-2.53231 -7.99554,8.32391c-2.62564,8.69123 -20.49435,55.88042 -20.81637,68.48175a7.95988,7.95988 0 0 0 -6.33458,7.42316l25.95221,3.59141c4.554,-3.80762 2.27154,-7.048 0.52252,-8.58972l8.83916,-14.97226l18.47515,-40.42014l-15.20123,-22.06817l-3.44132,-1.76994z"/>
  <path id="svg_27" fill="#ff4d00" d="m257.09602,288.15751a100.84336,100.84336 0 0 1 -13.26,27.84q-2.16,3.15006 -4.54,6.14a32.49311,32.49311 0 0 0 -4.45,-6.22c-6.05,-6.65 -14.16,-11 -22.03,-15.36c-7.87,-4.36 -15.86,-9.04 -21.42,-16.11a28.39908,28.39908 0 0 1 -5.24,-10.79c-1.26,-5.33 -0.78,-10.89 2.33,-15.34c4.52,-6.47 13.53,-8.75 21.19,-6.88c7.67,1.87 14.09,7.2 19.06994,13.32c-1.62994,-7.52 6.3,-14.78 13.97,-14.12c7.67,0.67 13.82,7.37 15.86,14.79c2.05006,7.41 0.72006,15.35 -1.47994,22.73z"/>
  <path id="svg_28" fill="#3f3d56" d="m405.36183,13.03373a30.39729,30.39729 0 0 0 -20.20827,12.86372a29.38479,29.38479 0 0 0 -3.91316,24.17881a29.97319,29.97319 0 0 0 6.99182,12.65227c1.31812,1.41637 3.436,-0.70867 2.12132,-2.12132a27.5038,27.5038 0 0 1 -7.02054,-21.451a26.38366,26.38366 0 0 1 11.22814,-18.59051a27.2968,27.2968 0 0 1 11.59821,-4.63916c1.90267,-0.28645 1.09419,-3.17764 -0.79752,-2.89283l0,0.00002z"/>
  <g id="svg_29" opacity="0.2">
   <path id="svg_30" d="m508.26602,60.35753a39.02957,39.02957 0 0 1 -4.49,4.6c-25.17,21.82 -45.62,45.74 -60.79,71.09l-5.47,9.14l-0.37,0.63a15.0419,15.0419 0 0 1 -3.33,-3.47c-3.5,-5.09 -3.52,-11.78 -2.66,-17.9a74.63333,74.63333 0 0 1 77.11,-64.09z"/>
  </g>
  <g id="svg_31" opacity="0.2">
   <path id="svg_32" d="m243.83602,315.99748q-2.16,3.15006 -4.54,6.14a32.49311,32.49311 0 0 0 -4.45,-6.22c-6.05,-6.65 -14.16,-11 -22.03,-15.36c-7.87,-4.36 -15.86,-9.04 -21.42,-16.11a28.39908,28.39908 0 0 1 -5.24,-10.79a75.76566,75.76566 0 0 1 45.9,24.35a73.70884,73.70884 0 0 1 11.78,17.99z"/>
  </g>
  <circle id="svg_33" fill="#3f3d56" r="4" cy="141.59751" cx="435.586"/>
 </g>
</svg>