<svg width="997.17528" height="465.45949" xmlns="http://www.w3.org/2000/svg" data-name="Layer 1">

 <g>
  <title>Layer 1</title>
  <path id="svg_2" fill="#06bde1" d="m849.23364,464.23974l-344.86329,0c-9.41918,0 -17.08251,-6.93946 -17.08251,-15.46973l0,-208.75877a8.67562,8.67562 0 0 1 5.69238,-7.92676l160.57542,-64.23291a62.5155,62.5155 0 0 1 45.93847,-0.02295l161.12012,64.25879a8.67511,8.67511 0 0 1 5.70215,7.93018l0,208.75244c0.00002,8.53027 -7.66331,15.46971 -17.08274,15.46971z"/>
  <circle id="svg_3" fill="#ff4d00" r="50.53168" cy="194.47994" cx="298.68503"/>
  <ellipse id="svg_4" fill="#04849d" ry="80.10973" rx="64.00072" cy="298.3466" cx="320.81038"/>
  <polygon id="svg_5" fill="#ccc" points="319.986 282.238 320.162 282.238 323.327 463.69 316.646 463.69 319.986 282.238"/>
  <path id="svg_6" fill="#ccc" d="m330.90241,402.36474l0,0a1.58243,1.58243 0 0 1 -0.663,2.13741l-9.17931,4.83272l-1.47438,-2.80046l9.17931,-4.83271a1.58242,1.58242 0 0 1 2.13738,0.66304z"/>
  <ellipse id="svg_7" fill="#04849d" ry="80.10973" rx="64.00072" cy="298.3466" cx="135.81038"/>
  <path id="svg_8" fill="#ccc" d="m146.90258,405.36474l0,0a1.58278,1.58278 0 0 0 -2.13769,-0.663l-6.40821,3.37378l-2.19482,-125.83789l-0.17578,0l-3.34033,181.45245l6.68115,0l-0.90821,-52.07037l7.82081,-4.11749a1.5831,1.5831 0 0 0 0.66308,-2.13748z"/>
  <path id="svg_9" fill="#06bde1" d="m227.58764,113.72974c44.788,0 81.19156,84.39131 81.19156,140.45242s-36.3078,101.50763 -81.09578,101.50763s-81.09578,-45.44651 -81.09578,-101.50763s36.212,-140.45242 81,-140.45242z"/>
  <path id="svg_10" fill="#3f3d56" d="m241.73803,389.78559a2.00473,2.00473 0 0 0 -2.708,-0.84008l-8.12011,4.2749l-2.78078,-159.45008l-0.22265,0l-4.23291,229.91968l8.46582,0l-1.15088,-65.97882l9.90967,-5.21722a2.00478,2.00478 0 0 0 0.83984,-2.70838z"/>
  <path id="svg_11" fill="#fff" d="m596.28038,320.77832l0,-21.59094a10.61779,10.61779 0 0 0 -10.61774,-10.61776l-54.48343,0a10.61779,10.61779 0 0 0 -10.61775,10.61776l0,21.59094l75.71892,0z"/>
  <path id="svg_12" fill="#fff" d="m520.56146,324.16874l0,33.45734a10.6178,10.6178 0 0 0 10.61775,10.61775l54.48343,0a10.6178,10.6178 0 0 0 10.61775,-10.61775l0,-33.45734l-75.71893,0z"/>
  <path id="svg_13" fill="#3f3d56" d="m853.20083,261.51499l-163.57579,-59.96309a44.73889,44.73889 0 0 0 -30.79647,0l-163.57578,59.96309a22.81327,22.81327 0 0 1 -30.66515,-21.41946l0,0a22.81326,22.81326 0 0 1 14.96139,-21.41946l179.27954,-65.71972a44.73878,44.73878 0 0 1 30.79647,0l179.27954,65.71972a22.81326,22.81326 0 0 1 14.96139,21.41946l0,0a22.81327,22.81327 0 0 1 -30.66514,21.41946z"/>
  <path id="svg_14" fill="#3f3d56" d="m700.6394,465.23951l-43.71876,0a17.52,17.52 0 0 1 -17.5,-17.5l0,-105.876a17.52,17.52 0 0 1 17.5,-17.5l43.71875,0a17.52,17.52 0 0 1 17.5,17.5l0,105.876a17.52,17.52 0 0 1 -17.49999,17.5zm-43.71876,-137.87598a14.51669,14.51669 0 0 0 -14.5,14.5l0,105.876a14.51669,14.51669 0 0 0 14.5,14.5l43.71875,0a14.51669,14.51669 0 0 0 14.5,-14.5l0,-105.876a14.51669,14.51669 0 0 0 -14.5,-14.5l-43.71875,0z"/>
  <path id="svg_18" fill="#ccc" d="m521.1267,357.44239a8.541,8.541 0 0 0 0,17.082l74.58863,0a8.541,8.541 0 0 0 0,-17.082l-74.58863,0z"/>
  <path id="svg_19" fill="#fff" d="m752.80322,324.16874l0,33.45734a10.61781,10.61781 0 0 0 10.61776,10.61775l54.48341,0a10.61781,10.61781 0 0 0 10.61776,-10.61775l0,-33.45734l-75.71893,0z"/>
  <path id="svg_20" fill="#fff" d="m828.52215,320.77832l0,-21.59094a10.61779,10.61779 0 0 0 -10.61776,-10.61776l-54.48341,0a10.61779,10.61779 0 0 0 -10.61776,10.61776l0,21.59094l75.71893,0z"/>
  <circle id="svg_21" fill="#3f3d56" r="6.21572" cy="391.97653" cx="704.77278"/>
  <polygon id="svg_22" fill="#3f3d56" points="495.986 395.977 471.503 357.893 472.636 357.164 495.868 393.303 514.799 357.216 515.991 357.841 495.986 395.977"/>
  <path id="svg_23" fill="#3f3d56" d="m515.92264,345.40863l-58.24237,0l0,-1.01a12.45645,12.45645 0 0 0 -12.45646,-12.45647l0,0a12.45646,12.45646 0 0 0 -12.45647,12.45647l0,1.01l-5.72324,0a12.45646,12.45646 0 1 0 0,24.91292l5.72324,0l0,94.13534c24.8203,-0.49741 -0.1797,0.50259 24.91293,0l0,-94.13534l58.24237,0a12.45646,12.45646 0 0 0 0,-24.91292z"/>
  <circle id="svg_24" fill="#fff" r="4.71326" cy="357.52843" cx="444.88714"/>
  <path id="svg_25" fill="#ccc" d="m523.32446,419.97413l-53.85645,0a9.60541,9.60541 0 0 1 -9.59448,-9.59473l0,-17.49707a9.60531,9.60531 0 0 1 9.59448,-9.59423l53.85645,0a9.60531,9.60531 0 0 1 9.59448,9.59423l0,17.49707a9.60542,9.60542 0 0 1 -9.59448,9.59473z"/>
  <rect id="svg_26" fill="#06bde1" rx="3.70327" height="7.40655" width="41.74598" y="397.25445" x="475.18665"/>
  <path id="svg_27" fill="#ccc" d="m996.40222,465.45948l-995.62916,0a0.77306,0.77306 0 0 1 0,-1.54612l995.62916,0a0.77306,0.77306 0 0 1 0,1.54612z"/>
  <path id="svg_28" fill="#ccc" d="m827.39184,375.52442l-74.58862,0a9.541,9.541 0 1 1 0,-19.082l74.58862,0a9.541,9.541 0 0 1 0,19.082z"/>
 </g>
</svg>