<svg width="910.90802" height="704.99598" xmlns="http://www.w3.org/2000/svg" data-name="Layer 1">

 <g>
  <title>Layer 1</title>
  <ellipse id="svg_1" fill="#3f3d56" ry="98.96521" rx="48.50275" cy="542.77039" cx="697.31696"/>
  <path id="svg_2" fill="#cacaca" d="m692.83792,704.76051c19.42584,-116.55145 0.19556,-232.68182 -0.00091,-233.84027l-3.77869,0.64008c0.19556,1.15289 19.31543,116.67309 -0.00092,232.57135l3.78052,0.62884z"/>
  <rect id="svg_3" transform="rotate(-61.8584 -268.853 959.859)" fill="#cacaca" height="49.73956" width="3.83319" y="1567.40131" x="549.41665"/>
  <rect id="svg_4" transform="rotate(-28.158 -345.984 387.631)" fill="#cacaca" height="3.83319" width="49.74127" y="1029.88382" x="495.62407"/>
  <ellipse id="svg_5" fill="#252435" ry="193.56433" rx="94.86566" cy="385.19143" cx="813.85468"/>
  <path id="svg_6" fill="#cacaca" d="m803.28806,702.67699c37.944,-227.6604 0.38275,-454.49169 -0.00092,-456.75628l-3.77869,0.64007c0.38275,2.259 37.83362,228.48017 -0.00091,455.48737l3.78052,0.62884z"/>
  <rect id="svg_7" transform="rotate(-61.8584 -73.4911 957.626)" fill="#cacaca" height="97.28711" width="3.83319" y="1377.25362" x="840.59674"/>
  <rect id="svg_8" transform="rotate(-28.1574 -257.253 435.623)" fill="#cacaca" height="3.83319" width="97.28717" y="924.97454" x="700.65005"/>
  <path id="svg_9" fill="#141d33" d="m593.52951,703.28523l-504.59619,0a7.00818,7.00818 0 0 1 -7,-7l0,-318.8457a7.00785,7.00785 0 0 1 7,-7l504.59619,0a7.00817,7.00817 0 0 1 7,7l0,318.8457a7.00848,7.00848 0 0 1 -7,7z"/>
  <path id="svg_10" fill="#20293d" d="m135.33762,409.07722a3.00328,3.00328 0 0 0 -3,3l0,249.57129a3.00328,3.00328 0 0 0 3,3l411.78759,0a3.00328,3.00328 0 0 0 3,-3l0,-249.57129a3.00328,3.00328 0 0 0 -3,-3l-411.78759,0z"/>
  <path id="svg_11" fill="#141d33" d="m551.12496,473.3572l0,-15.81482l-58.23365,0l0,-49.46521l-15.81494,0l0,49.46521l-103.67529,0l0,-49.46521l-15.81445,0l0,49.46521l-159.90577,0l0,-49.46521l-15.81494,0l0,49.46521l-55.29443,0l0,15.81482l55.29443,0l0,61.50214l-55.29443,0l0,15.81482l55.29443,0l0,65.89514l-55.29443,0l0,15.81482l140.519,0l0,33.26387l15.81494,0l0,-33.26387l74.68116,0l0,33.26387l15.81445,0l0,-33.26387l177.72392,0l0,-15.81482l-177.72388,0l0,-65.89514l177.72388,0l0,-15.81482l-58.23365,0l0,-61.50214l58.23365,0zm-193.53833,0l0,19.32928l-159.90577,0l0,-19.32928l159.90577,0zm-159.90577,35.1441l159.90577,0l0,26.358l-159.90577,0l0,-26.358zm0,108.068l0,-65.89514l69.40967,0l0,65.89514l-69.40967,0zm159.90577,0l-74.68116,0l0,-65.89514l74.68116,0l0,65.89514zm119.48974,-81.71l-103.67529,0l0,-61.5021l103.67529,0l0,61.5021z"/>
  <path id="svg_12" d="m365.49384,564.97461c-11.16454,0 -20.20782,-9.04328 -20.20782,-20.20782c0,-11.16454 9.04328,-20.20782 20.20782,-20.20782c11.16454,0 20.20782,9.04328 20.20782,20.20782c0,11.16454 -9.04328,20.20782 -20.20782,20.20782z" opacity="undefined" fill="#ff4d00"/>
  <polygon id="svg_13" fill="#cacaca" points="910.513 704.996 0 704.996 0 702.814 910.908 702.814 910.513 704.996"/>
  <circle id="svg_14" fill="#ff4d00" r="124.6554" cy="300.06687" cx="367.91605"/>
  <polygon id="svg_15" fill="#ff4d00" points="369.135 502.707 329.753 435.433 290.371 368.159 368.323 367.69 446.275 367.221 407.705 434.964 369.135 502.707"/>
  <circle id="svg_16" fill="#e5e5e5" r="44.72449" cy="299.28272" cx="368.91666"/>
  <path id="svg_17" fill="#2f2e41" d="m365.03268,0.64052s-26.67361,-7.51371 -34.563,28.92773s-2.87842,31.85 -2.87842,31.85l59.546,-6.95017s17.90586,-42.74488 -22.10458,-53.82756z"/>
  <path id="svg_18" fill="#ffb6b6" d="m326.24141,160.51022s-40.24153,1.86275 -33.27269,17.65871q0.73892,1.67489 1.37584,3.13846a282.52157,282.52157 0 0 0 17.16391,33.22306l24.73294,40.97977l9,-5l-25.32671,-65.837l22.76474,-1.85834l-16.43803,-22.30466z"/>
  <path id="svg_19" fill="#ffb6b6" d="m432.34463,177.23979l13.00843,28.33978s9.75628,9.75632 20.44177,48.78159s13.00842,37.63153 13.00842,37.63153l-10.56184,3.51753l-43.33025,-78.78056l-21.371,-26.946l6.50421,-14.40219l22.30026,1.85832z"/>
  <path id="svg_20" fill="#2f2e41" d="m416.54874,144.7187l18.69267,34.79152s42.38015,83.27659 38,83c-4.92373,-0.31093 -18.75364,5.42831 -23,11c-2.04957,2.68926 -32,-63 -42.51988,-77.68693l-22.76477,-17.6543s-64.63613,10.8788 -64.71535,7.34123c-0.0388,-1.73284 21.39973,39.8423 17,38c-5.012,-2.09867 -16.80244,8.11375 -22,6c-2.14452,-0.87214 -17.29757,-37.61145 -23.43159,-52.6662a8.14809,8.14809 0 0 1 3.76974,-10.31057c4.60991,-2.39749 68.66185,-17.02323 68.66185,-17.02323l-1.12019,-5.72066l4.6459,-9.29174l48.78162,10.22088z"/>
  <circle id="svg_21" transform="rotate(-80.7827 144.47 515.71)" fill="#ffb6b6" r="18.1189" cy="652.46796" cx="649.34861"/>
  <path id="svg_22" fill="#06bde1" d="m418.24141,147.51022c1.00049,3.00146 -5.47911,4.72554 -14.51067,3.03908c-7.81427,-1.4588 -16.36737,-3.19171 -23.11322,-4.59476c-7.2243,-1.50525 -12.3858,-2.62954 -12.3858,-2.62954s-1.85834,11.61465 -7.898,10.22088c-5.20334,-1.19864 -20.753,-55.51343 -24.95758,-70.52423a5.2218,5.2218 0 0 1 2.309,-5.86774l21.357,-13.041s14.71811,-5.05471 20.08408,-5.19871s14.65772,-1.53778 14.65772,-1.53778s10.68548,0.92918 12.54388,8.82713s9.61285,54.72575 9.75629,65.9713c0.1573,12.33537 -0.8427,6.33537 2.1573,15.33537z"/>
  <path id="svg_23" fill="#2f2e41" d="m367.10764,15.98274s-7.51371,19.9113 -25.92228,28.17636l-3.00546,-17.65719l28.92774,-10.51917z"/>
  <ellipse id="svg_24" fill="#ffb6b6" ry="4.87816" rx="2.55524" cy="32.28878" cx="377.98804"/>
  <path id="svg_25" fill="#2f2e41" d="m352.7303,260.15604l-35.91687,16.5124l-0.20887,-0.45428a15.38729,15.38729 0 0 1 7.5521,-20.407l0.00089,-0.00041l21.93684,-10.08514l6.63591,14.43443z"/>
  <path id="svg_26" fill="#2f2e41" d="m462.88694,293.14512l22.03165,-9.8763l0.00089,-0.0004a15.3873,15.3873 0 0 1 20.33383,7.74694l0.20451,0.45627l-36.07222,16.17022l-6.49866,-14.49673z"/>
  <polygon id="svg_27" opacity="0.2" points="403.241 104.51 399.035 150.771 406.512 151.124 403.241 104.51"/>
  <path id="svg_28" fill="#ffb6b6" d="m373.92229,190.93199a9.13591,9.13591 0 0 0 -1.99925,-13.8654l-16.15883,-81.62595l-18.55613,7.09923l21.71849,78.00329a9.1854,9.1854 0 0 0 14.99572,10.38883z"/>
  <path id="svg_29" fill="#06bde1" d="m359.85238,109.19763l-20.37537,3.58876a4.09641,4.09641 0 0 1 -4.80539,-3.92235l-0.56235,-20.61872a11.37649,11.37649 0 0 1 22.41945,-3.88108l6.49978,19.50525a4.0964,4.0964 0 0 1 -3.17607,5.32814l-0.00005,0z"/>
  <path id="svg_30" fill="#ffb6b6" d="m389.54447,189.49591a9.13584,9.13584 0 0 0 2.55241,-13.7743l10.86868,-82.49709l-19.8527,0.77413l-4.441,80.84851a9.1854,9.1854 0 0 0 10.87258,14.64875l0.00003,0z"/>
  <path id="svg_31" fill="#06bde1" d="m402.42652,106.56599l-20.45025,-3.13434a4.09642,4.09642 0 0 1 -3.29389,-5.25613l6.07895,-19.71025a11.37649,11.37649 0 0 1 22.48008,3.5129l-0.098,20.55948a4.09641,4.09641 0 0 1 -4.71689,4.02834z"/>
 </g>
</svg>