<svg width="46" height="26" viewBox="0 0 46 26" fill="none" xmlns="http://www.w3.org/2000/svg">
<g clip-path="url(#clip0)">
<path d="M38.3964 22.5247C38.3964 21.6031 38.7598 20.7191 39.4067 20.0674C40.0536 19.4156 40.931 19.0495 41.8459 19.0495H42.0505C42.9654 19.0495 43.8428 19.4156 44.4897 20.0674C45.1366 20.7191 45.5 21.6031 45.5 22.5247C45.4999 23.4464 45.1364 24.3302 44.4895 24.9819C43.8426 25.6335 42.9653 25.9996 42.0505 25.9996H41.8459C40.9311 25.9996 40.0537 25.6335 39.4068 24.9819C38.7599 24.3302 38.3965 23.4464 38.3964 22.5247Z" fill="#FF4D00"/>
<path d="M29.8807 26C29.7761 26 29.6758 25.9581 29.6018 25.8836C29.5279 25.8091 29.4863 25.7081 29.4863 25.6027V10.6577C29.4863 9.05042 29.0989 7.75892 28.3239 6.78325C27.6413 5.92397 26.6011 5.44686 25.5088 5.45759C24.3014 5.4695 23.3025 5.98449 22.512 7.00254C21.7108 8.03224 21.3104 9.3191 21.3109 10.8631V25.6015C21.3109 25.7069 21.2694 25.808 21.1954 25.8825C21.1215 25.957 21.0212 25.9988 20.9166 25.9988H15.0606C14.956 25.9988 14.8557 25.957 14.7818 25.8825C14.7078 25.808 14.6663 25.7069 14.6663 25.6015V10.761C14.6663 9.7308 14.5981 8.88966 14.4616 8.23762C14.3252 7.58559 14.0954 7.07073 13.7724 6.69307C13.4482 6.31567 13.0309 6.0499 12.5204 5.89577C12.0099 5.74163 11.3966 5.66416 10.6805 5.66337C7.98836 5.66337 6.64256 7.31095 6.64308 10.6061V25.6027C6.64308 25.6549 6.63288 25.7066 6.61307 25.7548C6.59325 25.803 6.5642 25.8468 6.52759 25.8836C6.49097 25.9205 6.4475 25.9498 6.39966 25.9698C6.35182 25.9897 6.30055 26 6.24876 26H0.394318C0.289739 26 0.189442 25.9581 0.115493 25.8836C0.0415441 25.8091 0 25.7081 0 25.6027L0 1.06705C0 0.961685 0.0415441 0.86064 0.115493 0.786139C0.189442 0.711638 0.289739 0.669784 0.394318 0.669784H5.44593C5.65509 0.669784 5.85568 0.753492 6.00358 0.902494C6.15148 1.0515 6.23457 1.25359 6.23457 1.46431V3.60158C6.23455 3.64504 6.24869 3.68731 6.2748 3.7219C6.30092 3.75649 6.33758 3.7815 6.37916 3.79309C6.42074 3.80468 6.46494 3.8022 6.50499 3.78605C6.54504 3.7699 6.57873 3.74096 6.60089 3.70367C7.37454 2.38397 8.27438 1.45835 9.30039 0.926812C10.4923 0.308937 11.9233 0 13.5933 0C14.4451 0 15.2029 0.0687263 15.867 0.206179C16.4988 0.331124 17.1042 0.566403 17.6556 0.901387C18.2125 1.25137 18.7199 1.67565 19.1639 2.16269C19.6159 2.6572 20.0318 3.18402 20.4083 3.73903C20.4275 3.76714 20.4535 3.7898 20.4839 3.80485C20.5142 3.81989 20.5479 3.82681 20.5817 3.82493C20.6155 3.82306 20.6483 3.81245 20.6768 3.79414C20.7053 3.77582 20.7287 3.75041 20.7447 3.72036C21.4064 2.46501 22.2595 1.5427 23.3042 0.953429C24.4272 0.31781 25.7897 0 27.3917 0C28.6517 0 29.8098 0.214521 30.8661 0.643564C31.9223 1.07261 32.8253 1.67327 33.575 2.44554C35.125 4.05071 35.9875 6.20481 35.9768 8.4442V25.6027C35.9768 25.7081 35.9353 25.8091 35.8613 25.8836C35.7874 25.9581 35.6871 26 35.5825 26H29.8807Z" fill="#06BEE1"/>
</g>
<defs>
<clipPath id="clip0">
<rect width="45.5493" height="26" fill="white"/>
</clipPath>
</defs>
</svg>
