<svg width="221" height="50" viewBox="0 0 221 50" fill="none" xmlns="http://www.w3.org/2000/svg">
<g clip-path="url(#clip0)">
<path d="M42.4233 48.9963C42.2748 48.9963 42.1324 48.937 42.0274 48.8315C41.9224 48.726 41.8635 48.5829 41.8635 48.4337V27.2686C41.8635 24.9924 41.3133 23.1636 40.2131 21.7822C39.244 20.5654 37.7671 19.8891 36.2164 19.9043C34.5022 19.9212 33.0839 20.6505 31.9616 22.0922C30.824 23.5505 30.2556 25.3731 30.2564 27.56V48.432C30.2564 48.5812 30.1974 48.7243 30.0924 48.8298C29.9874 48.9353 29.845 48.9946 29.6965 48.9946H21.3824C21.2339 48.9946 21.0915 48.9353 20.9865 48.8298C20.8815 48.7243 20.8226 48.5812 20.8226 48.432V27.4149C20.8226 25.9566 20.7257 24.7655 20.532 23.8413C20.3383 22.9172 20.0121 22.1882 19.5534 21.6545C19.0932 21.1201 18.5007 20.7435 17.7759 20.5249C17.0511 20.3062 16.1804 20.1969 15.1637 20.1969C11.3415 20.1969 9.43082 22.5303 9.43157 27.1971V48.4348C9.43157 48.5087 9.41709 48.5819 9.38895 48.6501C9.36082 48.7184 9.31958 48.7804 9.2676 48.8326C9.21561 48.8849 9.15389 48.9263 9.08597 48.9546C9.01805 48.9829 8.94525 48.9974 8.87173 48.9974H0.559837C0.411359 48.9974 0.268962 48.9382 0.163972 48.8326C0.0589826 48.7271 0 48.584 0 48.4348L0 13.6866C0 13.5374 0.0589826 13.3943 0.163972 13.2888C0.268962 13.1833 0.411359 13.124 0.559837 13.124H7.7319C8.02886 13.124 8.31365 13.2426 8.52363 13.4536C8.73361 13.6646 8.85158 13.9508 8.85158 14.2492V17.2765C8.85156 17.338 8.87162 17.3979 8.9087 17.4469C8.94578 17.4959 8.99783 17.5313 9.05686 17.5477C9.11589 17.5641 9.17865 17.5606 9.23551 17.5377C9.29238 17.5149 9.3402 17.4739 9.37167 17.4211C10.4701 15.5521 11.7476 14.2411 13.2043 13.488C14.8965 12.613 16.9282 12.1755 19.2992 12.1755C20.5085 12.1755 21.5845 12.2728 22.5273 12.4675C23.4243 12.6447 24.2837 12.9778 25.0667 13.452C25.8572 13.9478 26.5776 14.5486 27.2081 15.2382C27.8497 15.9386 28.4402 16.6847 28.9749 17.4706C29.0021 17.5104 29.039 17.5425 29.0821 17.5638C29.1253 17.5851 29.1731 17.5949 29.2211 17.5922C29.269 17.5896 29.3155 17.5745 29.356 17.5486C29.3966 17.5227 29.4298 17.4867 29.4524 17.4441C30.3922 15.6663 31.6033 14.36 33.0858 13.5251C34.6813 12.625 36.6163 12.1749 38.8907 12.1749C40.6796 12.1749 42.3238 12.4787 43.8234 13.0863C45.3231 13.6939 46.6047 14.5451 47.6684 15.6399C49.869 17.9131 51.0935 20.9636 51.0784 24.135V48.4337C51.0784 48.5829 51.0194 48.726 50.9144 48.8315C50.8094 48.937 50.667 48.9963 50.5185 48.9963H42.4233Z" fill="#06BEE1"/>
<path d="M64.2368 35.4268C65.0796 38.0188 66.3967 39.9037 68.1882 41.0813C69.9796 42.259 71.9969 42.5461 74.24 41.9427C75.7329 41.5406 76.9619 40.8451 77.9271 39.856C78.7907 38.9683 79.2679 37.9517 79.3586 36.8062C79.3663 36.6891 79.4102 36.5772 79.4843 36.4864C79.5584 36.3956 79.6589 36.3304 79.7717 36.2999L88.0215 34.0782C88.1076 34.0549 88.1979 34.0526 88.2851 34.0715C88.3722 34.0903 88.4536 34.1298 88.5225 34.1867C88.5914 34.2435 88.6458 34.316 88.6811 34.3983C88.7165 34.4805 88.7318 34.57 88.7258 34.6594C88.4824 38.1767 87.3592 41.1663 85.3561 43.6282C83.2041 46.2727 80.2825 48.0912 76.5913 49.0836C65.096 52.1782 57.6716 47.4337 54.3182 34.8501C53.605 32.1737 53.334 29.6552 53.5053 27.2946C53.6766 24.9339 54.2686 22.7869 55.2811 20.8535C56.2922 18.9204 57.7162 17.2662 59.5532 15.8909C61.3903 14.5156 63.6404 13.4691 66.3038 12.7517C71.6297 11.3174 76.116 11.9462 79.7628 14.638C83.3129 17.2578 86.007 21.871 87.8451 28.4777C87.8652 28.5492 87.8709 28.624 87.8621 28.6978C87.8532 28.7715 87.8299 28.8428 87.7934 28.9074C87.757 28.9721 87.7082 29.0288 87.6498 29.0744C87.5914 29.12 87.5246 29.1535 87.4533 29.173L64.2368 35.4268ZM76.4889 25.9353C76.5635 25.9153 76.6332 25.8799 76.6935 25.8315C76.7539 25.783 76.8036 25.7225 76.8395 25.6538C76.8755 25.5852 76.8969 25.5097 76.9025 25.4323C76.908 25.3549 76.8976 25.2771 76.8718 25.204C76.512 24.1992 76.0567 23.3366 75.5058 22.6161C74.8519 21.7606 74.1135 21.1042 73.2905 20.647C72.4847 20.1949 71.5923 19.9205 70.6727 19.842C69.7606 19.7626 68.8417 19.8441 67.9575 20.0827C66.1347 20.5733 64.7362 21.667 63.7621 23.3638C62.872 24.9124 62.5764 26.7727 62.8753 28.9446C62.8858 29.024 62.913 29.1002 62.9552 29.1682C62.9973 29.2361 63.0534 29.2942 63.1197 29.3386C63.186 29.3831 63.261 29.4127 63.3396 29.4257C63.4183 29.4387 63.4987 29.4346 63.5757 29.4138L76.4889 25.9353Z" fill="#06BEE1"/>
<path d="M91.2007 48.4338V0.562588C91.2007 0.41338 91.2597 0.270284 91.3647 0.164778C91.4696 0.0592725 91.612 0 91.7605 0L100.072 0C100.221 0 100.363 0.0592725 100.468 0.164778C100.573 0.270284 100.632 0.41338 100.632 0.562588V48.4338C100.632 48.583 100.573 48.7261 100.468 48.8316C100.363 48.9371 100.221 48.9963 100.072 48.9963H91.7605C91.612 48.9963 91.4696 48.9371 91.3647 48.8316C91.2597 48.7261 91.2007 48.583 91.2007 48.4338Z" fill="#06BEE1"/>
<path d="M127.84 48.4337V45.7552C127.84 45.2236 127.173 44.9873 126.844 45.4031C124.449 48.4305 121.081 49.9441 116.739 49.9437C114.948 49.9437 113.315 49.6279 111.841 48.9963C110.393 48.3829 109.095 47.4617 108.034 46.2959C106.97 45.1295 106.135 43.7442 105.531 42.14C104.927 40.5359 104.625 38.7373 104.625 36.7443V13.6866C104.625 13.5374 104.683 13.3943 104.788 13.2888C104.893 13.1833 105.036 13.124 105.184 13.124H113.496C113.645 13.124 113.787 13.1833 113.892 13.2888C113.997 13.3943 114.056 13.5374 114.056 13.6866V35.29C114.056 39.7614 116.064 41.997 120.079 41.9966C122.497 41.9966 124.323 41.2313 125.556 39.7007C126.79 38.1701 127.407 36.2136 127.407 33.8312V13.6866C127.407 13.5374 127.465 13.3943 127.57 13.2888C127.675 13.1833 127.818 13.124 127.966 13.124H136.207C136.355 13.124 136.497 13.1833 136.602 13.2888C136.707 13.3943 136.766 13.5374 136.766 13.6866V48.4337C136.766 48.5829 136.707 48.726 136.602 48.8315C136.497 48.937 136.355 48.9963 136.207 48.9963H128.4C128.252 48.9963 128.109 48.937 128.004 48.8315C127.899 48.726 127.84 48.5829 127.84 48.4337Z" fill="#06BEE1"/>
<path d="M161.703 25.3727H169.362C169.51 25.3727 169.653 25.432 169.758 25.5375C169.863 25.643 169.922 25.7861 169.922 25.9353V35.5803C169.93 37.4239 169.648 39.2573 169.088 41.0126C168.547 42.7106 167.657 44.2754 166.475 45.6056C165.29 46.9427 163.79 48 161.976 48.7775C160.163 49.555 157.998 49.9437 155.482 49.9437C152.87 49.9437 150.645 49.555 148.807 48.7775C146.969 48 145.458 46.9551 144.272 45.6427C143.083 44.3236 142.204 42.7539 141.697 41.0486C141.158 39.2516 140.889 37.3839 140.899 35.5071V3.98928C140.899 3.84008 140.958 3.69698 141.063 3.59147C141.168 3.48597 141.311 3.4267 141.459 3.4267H149.626C149.774 3.4267 149.917 3.48597 150.022 3.59147C150.127 3.69698 150.186 3.84008 150.186 3.98928V12.5614C150.186 12.7106 150.245 12.8537 150.35 12.9592C150.455 13.0648 150.597 13.124 150.746 13.124H169.362C169.51 13.124 169.653 13.1833 169.758 13.2888C169.863 13.3943 169.922 13.5374 169.922 13.6866V19.2686C169.922 19.4178 169.863 19.5609 169.758 19.6664C169.653 19.7719 169.51 19.8312 169.362 19.8312H150.747C150.598 19.8312 150.456 19.8905 150.351 19.996C150.246 20.1015 150.187 20.2446 150.187 20.3938V34.5597C150.187 36.8442 150.61 38.607 151.456 39.8481C152.302 41.0891 153.693 41.708 155.628 41.7046C157.515 41.7046 158.905 41.097 159.8 39.8818C160.695 38.6666 161.143 36.9414 161.144 34.706V25.9353C161.144 25.7863 161.203 25.6433 161.308 25.5379C161.412 25.4324 161.554 25.373 161.703 25.3727Z" fill="#06BEE1"/>
<path d="M191.325 49.9438C188.423 49.9438 185.835 49.4819 183.562 48.5581C181.288 47.6344 179.366 46.3464 177.795 44.6943C176.222 43.0414 175.025 41.0485 174.203 38.7157C173.382 36.3828 172.971 33.8309 172.972 31.06C172.972 28.2406 173.395 25.6646 174.241 23.3317C175.087 20.9988 176.309 19.0058 177.906 17.3525C179.502 15.6996 181.424 14.4244 183.672 13.5269C185.92 12.6294 188.471 12.1793 191.326 12.1767C194.132 12.1767 196.647 12.6268 198.872 13.5269C201.097 14.427 202.995 15.6902 204.564 17.3165C206.136 18.9443 207.345 20.9249 208.192 23.2586C209.038 25.5922 209.462 28.1926 209.462 31.06C209.462 33.9273 209.038 36.5152 208.192 38.8237C207.345 41.1322 206.136 43.1132 204.564 44.7669C202.992 46.4197 201.082 47.6949 198.833 48.5924C196.584 49.49 194.081 49.9404 191.325 49.9438Z" fill="#06BEE1"/>
<path d="M210.915 44.0748C210.915 42.7701 211.432 41.519 212.35 40.5966C213.268 39.6743 214.514 39.1561 215.812 39.1561H216.103C217.401 39.1561 218.647 39.6746 219.566 40.5976C220.484 41.5206 221 42.7724 221 44.0776C221 45.3829 220.484 46.6347 219.566 47.5577C218.647 48.4807 217.401 48.9992 216.103 48.9992H215.812C215.169 48.9992 214.532 48.8718 213.937 48.6243C213.343 48.3768 212.803 48.014 212.348 47.5567C211.893 47.0994 211.533 46.5565 211.287 45.9591C211.041 45.3617 210.914 44.7214 210.915 44.0748Z" fill="#FF4D00"/>
</g>
<defs>
<clipPath id="clip0">
<rect width="221" height="50" fill="white"/>
</clipPath>
</defs>
</svg>
